<svg width="260" height="161" viewBox="0 0 260 161" fill="none" xmlns="http://www.w3.org/2000/svg"><rect opacity="0.08" x="47.8066" y="2.5" width="110.262" height="110.262" rx="16.5694" transform="rotate(23.516 47.8066 2.5)" fill="#FF9600"/><rect opacity="0.08" x="167.871" y="25.4492" width="63.3377" height="63.3377" rx="11.3885" transform="rotate(-20.6759 167.871 25.4492)" fill="#FF9600"/><rect opacity="0.08" x="155.263" y="100.691" width="61.2644" height="61.2644" rx="11.1673" transform="rotate(-9.10205 155.263 100.691)" fill="#FF9600"/><rect opacity="0.1" x="247.49" y="81.0703" width="7.04041" height="7.04041" rx="2.35833" transform="rotate(38.5077 247.49 81.0703)" fill="#FF9600"/><rect opacity="0.1" x="23.4902" y="128.07" width="7.04041" height="7.04041" rx="2.35833" transform="rotate(38.5077 23.4902 128.07)" fill="#FF9600"/><rect opacity="0.1" x="29.4043" y="3.98047" width="7.04041" height="7.04041" rx="2.35833" transform="rotate(79.2683 29.4043 3.98047)" fill="#FF9600"/><rect opacity="0.1" x="196.877" y="0.554688" width="7.04041" height="7.04041" rx="2.35833" transform="rotate(80.8166 196.877 0.554688)" fill="#FF9600"/><rect opacity="0.1" x="174.703" y="4" width="12.576" height="12.576" rx="2.35833" transform="rotate(80.8166 174.703 4)" fill="#FF9600"/><rect opacity="0.1" x="8.625" y="29" width="11.3484" height="11.3484" rx="2.73729" transform="rotate(24.0509 8.625 29)" fill="#FF9600"/><rect x="22" y="147.5" width="208" height="1.5" rx="0.75" fill="#083156"/><rect x="10" y="147.5" width="8" height="1.5" rx="0.75" fill="#083156"/><rect x="234" y="147.5" width="8" height="1.5" rx="0.75" fill="#083156"/><rect x="246" y="147.5" width="4" height="1.5" rx="0.75" fill="#083156"/><g opacity="0.6"><path fill-rule="evenodd" clip-rule="evenodd" d="M16 95.5C16 97.7091 17.7909 99.5 20 99.5H88C90.2091 99.5 92 97.7091 92 95.5V54C92 51.7909 90.2091 50 88 50H20C17.7909 50 16 51.7909 16 54V95.5Z" fill="white"/><path fill-rule="evenodd" clip-rule="evenodd" d="M16 91.5C16 95.2712 16 97.1569 17.1716 98.3284C18.3431 99.5 20.2288 99.5 24 99.5H84C87.7712 99.5 89.6569 99.5 90.8284 98.3284C92 97.1569 92 95.2712 92 91.5V58C92 54.2288 92 52.3431 90.8284 51.1716C89.6569 50 87.7712 50 84 50H24C20.2288 50 18.3431 50 17.1716 51.1716C16 52.3431 16 54.2288 16 58V91.5Z" stroke="#3C5D87" stroke-width="1.25"/><rect opacity="0.15" x="28.1113" y="96.5" width="64.9713" height="6.11168" rx="1.70389" fill="#3C5D87"/><rect x="24" y="58" width="57" height="1.5" rx="0.75" fill="#FFD9AB"/><rect x="24" y="62" width="51" height="1.5" rx="0.75" fill="#FFD9AB"/><rect x="24" y="66" width="60" height="1.5" rx="0.75" fill="#FFD9AB"/><rect x="24" y="70" width="47" height="1.5" rx="0.75" fill="#3C5D87"/><rect x="24" y="74" width="57" height="1.5" rx="0.75" fill="#3C5D87"/><rect x="24" y="78" width="54" height="1.5" rx="0.75" fill="#FFD9AB"/><rect x="24" y="82" width="58" height="1.5" rx="0.75" fill="#FFD9AB"/><rect x="24" y="86" width="47" height="1.5" rx="0.75" fill="#FFD9AB"/><rect x="24" y="90" width="24" height="1.5" rx="0.75" fill="#FFD9AB"/></g><g opacity="0.6"><rect x="157" y="67" width="85.1069" height="62.6258" rx="4.25973" fill="white" stroke="#3C5D87" stroke-width="0.851947" stroke-miterlimit="10" stroke-linejoin="round"/><circle cx="199.5" cy="99" r="11" fill="#3C5D87"/><path d="M201.275 96.8975C203.168 97.9901 204.114 98.5364 204.114 99.3558C204.114 100.175 203.168 100.722 201.275 101.814L200.211 102.429C198.318 103.521 197.372 104.068 196.662 103.658C195.953 103.248 195.953 102.156 195.953 99.9704L195.953 98.7412C195.953 96.556 195.953 95.4634 196.662 95.0537C197.372 94.6439 198.318 95.1902 200.211 96.2829L201.275 96.8975Z" fill="#FFD9AB"/><path d="M157 75.5195C157 71.5034 157 69.4953 158.248 68.2476C159.495 67 161.503 67 165.519 67H233.675C237.691 67 239.699 67 240.947 68.2476C242.195 69.4953 242.195 71.5034 242.195 75.5195V77.2234H157V75.5195Z" fill="#FFD9AB"/><rect x="157" y="67" width="85.1069" height="62.6258" rx="4.25973" stroke="#3C5D87" stroke-width="1.25" stroke-miterlimit="10" stroke-linejoin="round"/><path d="M162.051 73.8205C162.993 73.8205 163.756 73.0572 163.756 72.1154C163.756 71.1735 162.993 70.4102 162.051 70.4102C161.109 70.4102 160.346 71.1735 160.346 72.1154C160.346 73.0572 161.109 73.8205 162.051 73.8205Z" fill="#3C5D87"/><path d="M167.166 73.8205C168.108 73.8205 168.871 73.0572 168.871 72.1154C168.871 71.1735 168.108 70.4102 167.166 70.4102C166.224 70.4102 165.461 71.1735 165.461 72.1154C165.461 73.0572 166.224 73.8205 167.166 73.8205Z" fill="#3C5D87"/><path d="M172.281 73.8205C173.223 73.8205 173.987 73.0572 173.987 72.1154C173.987 71.1735 173.223 70.4102 172.281 70.4102C171.34 70.4102 170.576 71.1735 170.576 72.1154C170.576 73.0572 171.34 73.8205 172.281 73.8205Z" fill="#3C5D87"/><rect opacity="0.15" x="161.111" y="127.5" width="74.9713" height="6.11168" rx="1.70389" fill="#3C5D87"/><rect x="160.211" y="118.387" width="78.6837" height="8.02895" rx="1.60579" fill="#3C5D87" fill-opacity="0.5"/><path d="M163.633 122.401C163.633 121.957 163.992 121.598 164.436 121.598H234.672C235.115 121.598 235.474 121.957 235.474 122.401C235.474 122.844 235.115 123.203 234.672 123.203H164.436C163.992 123.203 163.633 122.844 163.633 122.401Z" fill="#083156"/><path opacity="0.4" d="M163.633 122.401C163.633 121.957 163.992 121.598 164.436 121.598H212.435C212.878 121.598 213.238 121.957 213.238 122.401C213.238 122.844 212.878 123.203 212.435 123.203H164.436C163.992 123.203 163.633 122.844 163.633 122.401Z" fill="white"/><path d="M163.633 122.401C163.633 121.957 163.992 121.598 164.436 121.598H186.777C187.221 121.598 187.58 121.957 187.58 122.401C187.58 122.844 187.221 123.203 186.777 123.203H164.436C163.992 123.203 163.633 122.844 163.633 122.401Z" fill="#FFD9AB"/><circle cx="186.707" cy="122.399" r="1.60579" fill="#FFD9AB"/></g><g opacity="0.6"><path d="M138.449 35.2665C138.449 31.9626 138.449 30.3106 139.476 29.2842C140.502 28.2578 142.154 28.2578 145.458 28.2578H222.991C226.295 28.2578 227.947 28.2578 228.974 29.2842C230 30.3106 230 31.9626 230 35.2665V44.0273C230 47.3312 230 48.9832 228.974 50.0096C227.947 51.036 226.295 51.036 222.991 51.036H145.458C142.154 51.036 140.502 51.036 139.476 50.0096C138.449 48.9832 138.449 47.3312 138.449 44.0273V35.2665Z" fill="white" stroke="#3C5D87" stroke-width="1.25"/><rect opacity="0.15" x="138.076" y="48.2812" width="86.2943" height="5.50434" rx="1.31413" fill="#3C5D87"/><path opacity="0.04" d="M138.887 34.3904C138.887 31.4995 138.887 30.054 139.785 29.1559C140.683 28.2578 142.128 28.2578 145.019 28.2578H169.55C170.789 28.2578 171.408 28.2578 171.793 28.6427C172.178 29.0276 172.178 29.6471 172.178 30.8861V48.4077C172.178 49.6467 172.178 50.2662 171.793 50.6511C171.408 51.036 170.789 51.036 169.55 51.036H145.019C142.128 51.036 140.683 51.036 139.785 50.1379C138.887 49.2398 138.887 47.7943 138.887 44.9034V34.3904Z" fill="#1CB0F6"/><path opacity="0.4" d="M172.178 29.7617V49.0981" stroke="#3C5D87" stroke-width="0.876084" stroke-linecap="round"/><path d="M148.525 38.8359V40.463" stroke="#FFD9AB" stroke-linecap="round"/><path d="M145.896 39.375V39.9178" stroke="#FFD9AB" stroke-linecap="round"/><path d="M151.154 37.7461V41.5425" stroke="#FFD9AB" stroke-linecap="round"/><path d="M153.781 37.207V42.0881" stroke="#FFD9AB" stroke-linecap="round"/><path d="M156.408 37.7461V41.5425" stroke="#FFD9AB" stroke-linecap="round"/><path d="M159.037 38.5625V40.4607" stroke="#FFD9AB" stroke-linecap="round"/><path d="M161.666 37.207V42.0881" stroke="#FFD9AB" stroke-linecap="round"/><path d="M164.295 36.1211V43.1715" stroke="#FFD9AB" stroke-linecap="round"/><path d="M166.924 37.207V42.0881" stroke="#FFD9AB" stroke-linecap="round"/><path d="M169.551 36.1211V43.1715" stroke="#FFD9AB" stroke-linecap="round"/><path d="M174.807 33.4102V45.8839" stroke="#FFD9AB" stroke-linecap="round"/><path d="M177.436 34.2266V45.0733" stroke="#FFD9AB" stroke-linecap="round"/><path d="M180.062 35.5781V43.7132" stroke="#FFD9AB" stroke-linecap="round"/><path d="M182.693 34.4961V44.8005" stroke="#FFD9AB" stroke-linecap="round"/><path d="M185.318 34.7656V44.5277" stroke="#FFD9AB" stroke-linecap="round"/><path d="M187.947 33.1367V46.1528" stroke="#FFD9AB" stroke-linecap="round"/><path d="M190.576 32.0547V47.2401" stroke="#FFD9AB" stroke-linecap="round"/><path d="M193.205 33.4102V45.8839" stroke="#FFD9AB" stroke-linecap="round"/><path d="M195.834 35.0391V44.2588" stroke="#FFD9AB" stroke-linecap="round"/><path d="M198.461 37.207V42.0881" stroke="#FFD9AB" stroke-linecap="round"/><path d="M201.088 37.7461V41.5425" stroke="#FFD9AB" stroke-linecap="round"/><path d="M203.717 36.1211V43.1715" stroke="#FFD9AB" stroke-linecap="round"/><path d="M206.346 37.207V42.0881" stroke="#FFD9AB" stroke-linecap="round"/><path d="M208.975 37.7461V41.5425" stroke="#FFD9AB" stroke-linecap="round"/><path d="M211.604 36.9336V42.357" stroke="#FFD9AB" stroke-linecap="round"/><path d="M214.23 38.293V41.0047" stroke="#FFD9AB" stroke-linecap="round"/><path d="M216.859 38.8359V40.463" stroke="#FFD9AB" stroke-linecap="round"/><path d="M219.486 39.1055V40.1893" stroke="#FFD9AB" stroke-linecap="round"/><path d="M222.115 39.375V39.9178" stroke="#FFD9AB" stroke-linecap="round"/><path d="M224.744 39.375V39.9178" stroke="#FFD9AB" stroke-linecap="round"/><path d="M148.525 38.832V40.459" stroke="#3C5D87" stroke-width="0.876084" stroke-linecap="round"/><path d="M145.896 39.375V39.9178" stroke="#3C5D87" stroke-width="0.876084" stroke-linecap="round"/><path d="M143.268 39.375V39.9178" stroke="#3C5D87" stroke-width="0.876084" stroke-linecap="round"/><path d="M151.152 37.7461V41.5425" stroke="#3C5D87" stroke-width="0.876084" stroke-linecap="round"/><path d="M153.781 37.2031V42.0842" stroke="#3C5D87" stroke-width="0.876084" stroke-linecap="round"/><path d="M156.408 37.7461V41.5425" stroke="#3C5D87" stroke-width="0.876084" stroke-linecap="round"/><path d="M159.037 38.5625V40.4607" stroke="#3C5D87" stroke-width="0.876084" stroke-linecap="round"/><path d="M161.666 37.2031V42.0842" stroke="#3C5D87" stroke-width="0.876084" stroke-linecap="round"/><path d="M164.295 36.1211V43.1715" stroke="#3C5D87" stroke-width="0.876084" stroke-linecap="round"/><path d="M166.922 37.2031V42.0842" stroke="#3C5D87" stroke-width="0.876084" stroke-linecap="round"/><path d="M169.551 36.1211V43.1715" stroke="#3C5D87" stroke-width="0.876084" stroke-linecap="round"/></g><path d="M56 54C56 49.5817 59.5817 46 64 46H196C200.418 46 204 49.5817 204 54V138H56V54Z" fill="#B2BECE"/><path d="M56 62C56 54.4575 56 50.6863 58.3431 48.3431C60.6863 46 64.4575 46 72 46H188C195.542 46 199.314 46 201.657 48.3431C204 50.6863 204 54.4575 204 62V138H56V62Z" stroke="#083156" stroke-width="1.5"/><path d="M66 59C66 57.3431 67.3431 56 69 56H191C192.657 56 194 57.3431 194 59V138H66V59Z" fill="#083156" fill-opacity="0.55"/><path d="M66 62C66 59.1716 66 57.7574 66.8787 56.8787C67.7574 56 69.1716 56 72 56H188C190.828 56 192.243 56 193.121 56.8787C194 57.7574 194 59.1716 194 62V138H66V62Z" stroke="#083156" stroke-width="1.5"/><rect opacity="0.1" x="178" y="40" width="7" height="103" rx="2" fill="#083156"/><path fill-rule="evenodd" clip-rule="evenodd" d="M82 140H178V16C178 12.6863 175.314 10 172 10H88C84.6863 10 82 12.6863 82 16V140Z" fill="white"/><path fill-rule="evenodd" clip-rule="evenodd" d="M82 138H178V22C178 16.3431 178 13.5147 176.243 11.7574C174.485 10 171.657 10 166 10H94C88.3431 10 85.5147 10 83.7574 11.7574C82 13.5147 82 16.3431 82 22V138Z" stroke="#083156" stroke-width="1.5"/><path fill-rule="evenodd" clip-rule="evenodd" d="M108 26.9997C108 30.8658 104.866 34 101 34C97.1344 34 94 30.8658 94 26.9997C94 23.1335 97.1344 20 101 20C104.866 20 108 23.1335 108 26.9997Z" fill="#FFD9AB"/><path d="M98.8409 26.6329C98.7782 26.5701 98.7031 26.5201 98.62 26.4857C98.537 26.4513 98.4477 26.4332 98.3573 26.4324C98.267 26.4316 98.1774 26.4483 98.0937 26.4813C98.0101 26.5143 97.9341 26.5631 97.8702 26.6247C97.8063 26.6864 97.7558 26.7597 97.7216 26.8404C97.6873 26.9211 97.6701 27.0076 97.6709 27.0948C97.6717 27.182 97.6905 27.2682 97.7261 27.3483C97.7618 27.4284 97.8137 27.5009 97.8787 27.5615L99.6889 29.3077C99.8165 29.4308 99.9896 29.5 100.17 29.5C100.35 29.5 100.524 29.4308 100.651 29.3077L104.48 25.613C104.604 25.4891 104.672 25.3232 104.671 25.151C104.669 24.9788 104.598 24.8141 104.472 24.6923C104.345 24.5706 104.175 24.5015 103.996 24.5C103.818 24.4985 103.646 24.5647 103.518 24.6843L100.169 27.9148L98.8409 26.6329Z" fill="#3C5D87"/><rect x="114" y="22.5" width="50" height="1.5" rx="0.75" fill="#FFD9AB"/><rect x="114" y="26.5" width="40" height="1.5" rx="0.75" fill="#FFD9AB"/><rect x="114" y="30.5" width="20" height="1.5" rx="0.75" fill="#FFD9AB"/><path fill-rule="evenodd" clip-rule="evenodd" d="M108 50.9997C108 54.8658 104.866 58 101 58C97.1344 58 94 54.8658 94 50.9997C94 47.1335 97.1344 44 101 44C104.866 44 108 47.1335 108 50.9997Z" fill="#FFD9AB"/><path d="M98.8409 50.6329C98.7782 50.5701 98.7031 50.5201 98.62 50.4857C98.537 50.4513 98.4477 50.4332 98.3573 50.4324C98.267 50.4316 98.1774 50.4483 98.0937 50.4813C98.0101 50.5143 97.9341 50.5631 97.8702 50.6247C97.8063 50.6864 97.7558 50.7597 97.7216 50.8404C97.6873 50.9211 97.6701 51.0076 97.6709 51.0948C97.6717 51.182 97.6905 51.2682 97.7261 51.3483C97.7618 51.4284 97.8137 51.5009 97.8787 51.5615L99.6889 53.3077C99.8165 53.4308 99.9896 53.5 100.17 53.5C100.35 53.5 100.524 53.4308 100.651 53.3077L104.48 49.613C104.604 49.4891 104.672 49.3232 104.671 49.151C104.669 48.9788 104.598 48.8141 104.472 48.6923C104.345 48.5706 104.175 48.5015 103.996 48.5C103.818 48.4985 103.646 48.5647 103.518 48.6843L100.169 51.9148L98.8409 50.6329Z" fill="#3C5D87"/><rect x="114" y="46.5" width="40" height="1.5" rx="0.75" fill="#FFD9AB"/><rect x="114" y="50.5" width="52" height="1.5" rx="0.75" fill="#FFD9AB"/><rect x="114" y="54.5" width="45" height="1.5" rx="0.75" fill="#FFD9AB"/><path fill-rule="evenodd" clip-rule="evenodd" d="M108 74.9997C108 78.8658 104.866 82 101 82C97.1344 82 94 78.8658 94 74.9997C94 71.1335 97.1344 68 101 68C104.866 68 108 71.1335 108 74.9997Z" fill="#FFD9AB"/><path d="M98.8409 74.6329C98.7782 74.5701 98.7031 74.5201 98.62 74.4857C98.537 74.4513 98.4477 74.4332 98.3573 74.4324C98.267 74.4316 98.1774 74.4483 98.0937 74.4813C98.0101 74.5143 97.9341 74.5631 97.8702 74.6247C97.8063 74.6864 97.7558 74.7597 97.7216 74.8404C97.6873 74.9211 97.6701 75.0076 97.6709 75.0948C97.6717 75.182 97.6905 75.2682 97.7261 75.3483C97.7618 75.4284 97.8137 75.5009 97.8787 75.5615L99.6889 77.3077C99.8165 77.4308 99.9896 77.5 100.17 77.5C100.35 77.5 100.524 77.4308 100.651 77.3077L104.48 73.613C104.604 73.4891 104.672 73.3232 104.671 73.151C104.669 72.9788 104.598 72.8141 104.472 72.6923C104.345 72.5706 104.175 72.5015 103.996 72.5C103.818 72.4985 103.646 72.5647 103.518 72.6843L100.169 75.9148L98.8409 74.6329Z" fill="#3C5D87"/><rect x="114" y="70.5" width="50" height="1.5" rx="0.75" fill="#FFD9AB"/><rect x="114" y="74.5" width="47" height="1.5" rx="0.75" fill="#FFD9AB"/><rect x="114" y="78.5" width="30" height="1.5" rx="0.75" fill="#FFD9AB"/><path fill-rule="evenodd" clip-rule="evenodd" d="M108 98.9997C108 102.866 104.866 106 101 106C97.1344 106 94 102.866 94 98.9997C94 95.1335 97.1344 92 101 92C104.866 92 108 95.1335 108 98.9997Z" fill="#FFD9AB"/><path d="M98.8409 98.6329C98.7782 98.5701 98.7031 98.5201 98.62 98.4857C98.537 98.4513 98.4477 98.4332 98.3573 98.4324C98.267 98.4316 98.1774 98.4483 98.0937 98.4813C98.0101 98.5143 97.9341 98.5631 97.8702 98.6247C97.8063 98.6864 97.7558 98.7597 97.7216 98.8404C97.6873 98.9211 97.6701 99.0076 97.6709 99.0948C97.6717 99.182 97.6905 99.2682 97.7261 99.3483C97.7618 99.4284 97.8137 99.5009 97.8787 99.5615L99.6889 101.308C99.8165 101.431 99.9896 101.5 100.17 101.5C100.35 101.5 100.524 101.431 100.651 101.308L104.48 97.613C104.604 97.4891 104.672 97.3232 104.671 97.151C104.669 96.9788 104.598 96.8141 104.472 96.6923C104.345 96.5706 104.175 96.5015 103.996 96.5C103.818 96.4985 103.646 96.5647 103.518 96.6843L100.169 99.9148L98.8409 98.6329Z" fill="#3C5D87"/><rect x="114" y="94.5" width="47" height="1.5" rx="0.75" fill="#FFD9AB"/><rect x="114" y="98.5" width="51" height="1.5" rx="0.75" fill="#FFD9AB"/><rect x="114" y="102.5" width="10" height="1.5" rx="0.75" fill="#FFD9AB"/><path fill-rule="evenodd" clip-rule="evenodd" d="M108 123C108 126.866 104.866 130 101 130C97.1344 130 94 126.866 94 123C94 119.134 97.1344 116 101 116C104.866 116 108 119.134 108 123Z" fill="#FFD9AB"/><path d="M98.8409 122.633C98.7782 122.57 98.7031 122.52 98.62 122.486C98.537 122.451 98.4477 122.433 98.3573 122.432C98.267 122.432 98.1774 122.448 98.0937 122.481C98.0101 122.514 97.9341 122.563 97.8702 122.625C97.8063 122.686 97.7558 122.76 97.7216 122.84C97.6873 122.921 97.6701 123.008 97.6709 123.095C97.6717 123.182 97.6905 123.268 97.7261 123.348C97.7618 123.428 97.8137 123.501 97.8787 123.561L99.6889 125.308C99.8165 125.431 99.9896 125.5 100.17 125.5C100.35 125.5 100.524 125.431 100.651 125.308L104.48 121.613C104.604 121.489 104.672 121.323 104.671 121.151C104.669 120.979 104.598 120.814 104.472 120.692C104.345 120.571 104.175 120.502 103.996 120.5C103.818 120.499 103.646 120.565 103.518 120.684L100.169 123.915L98.8409 122.633Z" fill="#3C5D87"/><rect x="114" y="118.5" width="50" height="1.5" rx="0.75" fill="#FFD9AB"/><rect x="114" y="122.5" width="40" height="1.5" rx="0.75" fill="#FFD9AB"/><rect x="114" y="126.5" width="20" height="1.5" rx="0.75" fill="#FFD9AB"/><path d="M44 142C44 139.791 45.7909 138 48 138H212C214.209 138 216 139.791 216 142V144C216 146.209 214.209 148 212 148H48C45.7909 148 44 146.209 44 144V142Z" fill="#B2BECE"/><path opacity="0.4" d="M116 138H144V139C144 140.105 143.105 141 142 141H118C116.895 141 116 140.105 116 139V138Z" fill="#083156"/><path opacity="0.1" d="M64 145C64 144.068 64 143.602 64.1522 143.235C64.3552 142.745 64.7446 142.355 65.2346 142.152C65.6022 142 66.0681 142 67 142H218C218.932 142 219.398 142 219.765 142.152C220.255 142.355 220.645 142.745 220.848 143.235C221 143.602 221 144.068 221 145C221 145.932 221 146.398 220.848 146.765C220.645 147.255 220.255 147.645 219.765 147.848C219.398 148 218.932 148 218 148H67C66.0681 148 65.6022 148 65.2346 147.848C64.7446 147.645 64.3552 147.255 64.1522 146.765C64 146.398 64 145.932 64 145Z" fill="#083156"/><path opacity="0.12" d="M61 135C61 134.068 61 133.602 61.1522 133.235C61.3552 132.745 61.7446 132.355 62.2346 132.152C62.6022 132 63.0681 132 64 132H199C199.932 132 200.398 132 200.765 132.152C201.255 132.355 201.645 132.745 201.848 133.235C202 133.602 202 134.068 202 135C202 135.932 202 136.398 201.848 136.765C201.645 137.255 201.255 137.645 200.765 137.848C200.398 138 199.932 138 199 138H64C63.0681 138 62.6022 138 62.2346 137.848C61.7446 137.645 61.3552 137.255 61.1522 136.765C61 136.398 61 135.932 61 135Z" fill="#083156"/><path d="M44 143C44 142.071 44 141.606 44.0769 141.22C44.3925 139.633 45.6329 138.392 47.2196 138.077C47.606 138 48.0707 138 49 138H211C211.929 138 212.394 138 212.78 138.077C214.367 138.392 215.608 139.633 215.923 141.22C216 141.606 216 142.071 216 143V143C216 143.929 216 144.394 215.923 144.78C215.608 146.367 214.367 147.608 212.78 147.923C212.394 148 211.929 148 211 148H49C48.0707 148 47.606 148 47.2196 147.923C45.6329 147.608 44.3925 146.367 44.0769 144.78C44 144.394 44 143.929 44 143V143Z" stroke="#083156" stroke-width="1.5"/><path opacity="0.14" d="M68.4668 81.4492C81.0238 86.0365 95.6547 83.2924 105.73 73.2167C110.117 68.8303 113.114 63.5807 114.721 58.0147" stroke="#083156" stroke-width="12.4412" stroke-linecap="round"/><rect width="6.22063" height="20.5281" transform="matrix(-0.707107 -0.707107 -0.707107 0.707107 60.5254 72.7812)" fill="#FFE49F" stroke="#083156" stroke-width="1.5"/><path d="M53.4861 75.4197C52.0348 73.9683 50.7233 72.4301 49.5516 70.8217C48.8948 69.9201 48.5664 69.4692 48.2749 68.729C47.9646 67.9412 47.7927 66.7625 47.8649 65.9188C47.9328 65.1262 48.1712 64.4518 48.648 63.1031L48.648 63.1031L65.8027 80.2578C64.454 80.7346 63.7797 80.973 62.987 81.0409C62.1433 81.1132 60.9647 80.9412 60.1768 80.6309C59.4366 80.3394 58.9858 80.011 58.0841 79.3542C56.4757 78.1825 54.9375 76.871 53.4861 75.4197Z" fill="#FFF3C7" stroke="#083156" stroke-width="1.5"/><circle cx="35.4576" cy="35.4576" r="35.4576" transform="matrix(-0.707107 -0.707107 -0.707107 0.707107 130.902 48.1484)" fill="#FFF3C7" stroke="#083156" stroke-width="1.5"/><circle cx="29.2369" cy="29.2369" r="29.2369" transform="matrix(-0.707107 -0.707107 -0.707107 0.707107 122.104 48.1484)" fill="#FFFAED"/><mask id="mask0_667_155" style="mask-type:alpha" maskUnits="userSpaceOnUse" x="51" y="18" width="59" height="60"><circle cx="29.2369" cy="29.2369" r="29.2369" transform="matrix(-0.707107 -0.707107 -0.707107 0.707107 122.107 48.1445)" fill="white"/></mask><g mask="url(#mask0_667_155)"><g opacity="0.9"><path fill-rule="evenodd" clip-rule="evenodd" d="M77.7129 48.003C77.7129 58.4967 69.2072 67.0039 58.7129 67.0039C48.2205 67.0039 39.7129 58.4967 39.7129 48.003C39.7129 37.5092 48.2205 29.0039 58.7129 29.0039C69.2072 29.0039 77.7129 37.5092 77.7129 48.003Z" fill="#FFD9AB"/><path d="M52.8516 47.0079C52.6812 46.8377 52.4774 46.7019 52.252 46.6085C52.0267 46.5151 51.7843 46.4659 51.539 46.4638C51.2937 46.4618 51.0505 46.5069 50.8235 46.5965C50.5965 46.6861 50.3902 46.8185 50.2168 46.9858C50.0434 47.1532 49.9062 47.3523 49.8133 47.5713C49.7204 47.7904 49.6737 48.0251 49.6759 48.2618C49.678 48.4985 49.7289 48.7324 49.8257 48.9499C49.9226 49.1673 50.0633 49.364 50.2397 49.5285L55.1532 54.2683C55.4996 54.6024 55.9693 54.7902 56.4591 54.7902C56.9489 54.7902 57.4187 54.6024 57.7651 54.2683L68.1573 44.2396C68.4937 43.9035 68.6799 43.4532 68.6757 42.9858C68.6715 42.5184 68.4773 42.0713 68.1348 41.7408C67.7923 41.4103 67.329 41.2229 66.8447 41.2188C66.3603 41.2148 65.8937 41.3944 65.5454 41.7191L56.4573 50.4875L52.8516 47.0079Z" fill="#3C5D87"/><rect x="86.998" y="35.7891" width="108.571" height="4.07143" rx="2.03571" fill="#FFD9AB"/><rect x="86.998" y="46.6445" width="141.143" height="4.07143" rx="2.03571" fill="#FFD9AB"/><rect x="86.998" y="57.5039" width="122.143" height="4.07143" rx="2.03571" fill="#FFD9AB"/></g><g opacity="0.7"><path d="M59.3105 27.2109L67.2281 19.2934L90.1011 42.1663C92.2874 44.3527 92.2874 47.8975 90.1011 50.0839C87.9147 52.2703 84.3699 52.2703 82.1835 50.0839L59.3105 27.2109Z" fill="white"/><path d="M51.8457 34.0508L55.8045 30.092L89.4541 63.7416C90.5473 64.8348 90.5473 66.6072 89.4541 67.7004C88.3609 68.7936 86.5885 68.7936 85.4953 67.7004L51.8457 34.0508Z" fill="white"/></g></g><circle cx="29.2369" cy="29.2369" r="29.2369" transform="matrix(-0.707107 -0.707107 -0.707107 0.707107 122.104 48.1484)" stroke="#083156" stroke-width="1.5"/><circle cx="31.7252" cy="31.7252" r="31.7252" transform="matrix(-0.707107 -0.707107 -0.707107 0.707107 125.625 48.1484)" stroke="#FFE091" stroke-width="1.04152"/><rect width="11.1971" height="45.4106" rx="3.73238" transform="matrix(-0.707107 -0.707107 -0.707107 0.707107 51.2871 85.5391)" fill="white" stroke="#083156" stroke-width="1.04152"/><rect width="11.1971" height="45.4106" rx="3.73238" transform="matrix(-0.707107 -0.707107 -0.707107 0.707107 51.2871 85.5391)" fill="#FFF3C7" stroke="#083156" stroke-width="1.5"/><rect width="11.1971" height="37.9458" transform="matrix(-0.707107 -0.707107 -0.707107 0.707107 48.6484 88.1758)" fill="#FFD9AB" stroke="#083156" stroke-width="1.5" stroke-linejoin="round"/><path opacity="0.13" d="M46.2168 92.332L22.8895 115.659" stroke="#083156" stroke-width="9.33094" stroke-linecap="round"/><path opacity="0.13" d="M99.3184 28.1758C88.9317 17.7891 72.0916 17.7891 61.7049 28.1758C60.1464 29.7343 58.8217 31.4381 57.731 33.2435" stroke="#083156" stroke-width="7.46475" stroke-linecap="round"/></svg>