<svg width="105" height="80" viewBox="0 0 105 80" fill="none" xmlns="http://www.w3.org/2000/svg"><g clip-path="url(#clip0_5242_10067)"><path d="M5.38037 22.7171V16.6756H7.08891V22.5198C7.08891 24.6841 7.89904 25.5512 9.75043 25.5512C11.5001 25.5512 12.2873 24.5279 12.2873 22.6993V16.6756H13.8594V22.5589C13.8594 25.2558 12.5234 26.9668 9.68774 26.9668C6.7211 26.9668 5.38037 25.2935 5.38037 22.7171Z" fill="#8C96A1" style="fill:#8C96A1;fill:color(display-p3 0.5490 0.5882 0.6314);fill-opacity:1;"/><path d="M17.65 16.6773H19.3604L23.8275 22.7975C24.401 23.6052 24.8518 24.4696 24.8679 24.4696H24.9104C24.9104 24.4696 24.8287 23.6848 24.8287 22.915V16.6774H26.3658V26.792H24.8287L20.0883 20.3002C19.6147 19.6095 19.1816 18.8011 19.1816 18.8011H19.1632C19.1632 18.8011 19.2186 19.4741 19.2186 20.1028V26.792H17.6499L17.65 16.6773Z" fill="#8C96A1" style="fill:#8C96A1;fill:color(display-p3 0.5490 0.5882 0.6314);fill-opacity:1;"/><path d="M30.3843 16.6774H32.0748V26.792H30.3843V16.6774Z" fill="#8C96A1" style="fill:#8C96A1;fill:color(display-p3 0.5490 0.5882 0.6314);fill-opacity:1;"/><path d="M34.9195 16.6774H36.7088L39.2668 23.3103C39.5615 24.0567 39.8595 25.02 39.8595 25.0402H39.8972C39.8972 25.02 40.1929 24.0788 40.4856 23.3103L42.9444 16.6774H44.5797L40.6652 26.792H39.0122L34.9195 16.6774Z" fill="#8C96A1" style="fill:#8C96A1;fill:color(display-p3 0.5490 0.5882 0.6314);fill-opacity:1;"/><path d="M47.3415 16.6774H53.5195V18.0545H49.0307V20.8282H53.0465V22.1667H49.0307V25.412H53.6167V26.792H47.3413V16.6774" fill="#8C96A1" style="fill:#8C96A1;fill:color(display-p3 0.5490 0.5882 0.6314);fill-opacity:1;"/><path d="M60.2061 21.127C61.6229 21.127 62.2314 20.5906 62.2314 19.5488C62.2314 18.4883 61.565 17.9952 60.1069 17.9952H58.7697V21.127L60.2061 21.127ZM57.0797 16.6774H60.2451C62.6066 16.6774 63.9636 17.6387 63.9636 19.4742C63.9636 21.2027 62.7066 21.9693 61.1884 22.1304V22.1666C61.4058 22.3244 61.7817 22.701 62.3909 23.543L64.7926 26.792H62.8429L60.7944 23.8987C59.7917 22.5022 59.5554 22.3855 58.9469 22.3855H58.7697V26.792H57.0796L57.0797 16.6774Z" fill="#8C96A1" style="fill:#8C96A1;fill:color(display-p3 0.5490 0.5882 0.6314);fill-opacity:1;"/><path d="M66.7516 25.964L67.5 24.7605C67.7752 24.9594 68.5199 25.591 69.8599 25.591C71.0615 25.591 71.8463 25.0586 71.8463 24.1728C71.8463 23.1123 70.8827 22.814 69.4091 22.1285C68.1093 21.5368 67.0086 20.8074 67.0086 19.2137C67.0086 17.4442 68.5199 16.4806 70.2727 16.4806C71.9273 16.4806 72.7719 17.0075 73.2044 17.3058L72.4777 18.5059C72.1033 18.2501 71.3362 17.857 70.332 17.857C69.368 17.857 68.6603 18.2718 68.6603 19.1375C68.6603 20.1011 69.5064 20.3953 70.6075 20.8899C72.0243 21.5167 73.4796 22.2424 73.4796 24.0959C73.4796 25.8672 72.0626 26.9668 69.8814 26.9668C68.1907 26.9668 67.1636 26.3385 66.7515 25.9641" fill="#8C96A1" style="fill:#8C96A1;fill:color(display-p3 0.5490 0.5882 0.6314);fill-opacity:1;"/><path d="M76.814 16.6774H78.5047V26.792H76.814V16.6774Z" fill="#8C96A1" style="fill:#8C96A1;fill:color(display-p3 0.5490 0.5882 0.6314);fill-opacity:1;"/><path d="M84.4665 18.0767H81.3804V16.6774H89.269V18.0767H86.1802V26.792H84.4664L84.4665 18.0767Z" fill="#8C96A1" style="fill:#8C96A1;fill:color(display-p3 0.5490 0.5882 0.6314);fill-opacity:1;"/><path d="M94.6604 22.9526L91.0991 16.6772H92.948L95.5439 21.4811H95.5843L98.1416 16.6772H99.7947L96.351 22.9526V26.792H94.6604L94.6604 22.9526Z" fill="#8C96A1" style="fill:#8C96A1;fill:color(display-p3 0.5490 0.5882 0.6314);fill-opacity:1;"/><path d="M4.80235 56.5211C4.80235 53.7051 6.73061 51.2871 10.154 51.2871C11.5102 51.2871 12.4149 51.5825 13.2051 52.0918L12.3993 53.3523C11.8063 52.9581 11.0978 52.7031 10.1163 52.7031C7.81285 52.7031 6.61201 54.2988 6.61201 56.4597C6.61201 58.6863 7.75279 60.3594 10.1539 60.3594C11.2969 60.3594 12.0632 59.9816 12.6538 59.5527L13.3643 60.7503C12.8109 61.2232 11.6314 61.7754 10.0953 61.7754C6.65378 61.7754 4.80235 59.3321 4.80235 56.5211Z" fill="#8C96A1" style="fill:#8C96A1;fill:color(display-p3 0.5490 0.5882 0.6314);fill-opacity:1;"/><path d="M21.6019 58.0122L20.403 54.9224C20.0684 54.0362 19.7713 53.0902 19.7713 53.0902H19.7344C19.7344 53.0902 19.4173 54.0771 19.1042 54.9224L17.9242 58.0122H21.6019ZM18.9868 51.4804H20.6399L24.7522 61.5928H22.9824L22.1162 59.3907H17.4135L16.5864 61.5928H14.9116L18.9868 51.4804Z" fill="#8C96A1" style="fill:#8C96A1;fill:color(display-p3 0.5490 0.5882 0.6314);fill-opacity:1;"/><path d="M27.2476 51.4803H28.9816V60.2137H33.2498V61.5928H27.2476V51.4803Z" fill="#8C96A1" style="fill:#8C96A1;fill:color(display-p3 0.5490 0.5882 0.6314);fill-opacity:1;"/><path d="M36.1304 51.4804H37.8236V61.5928H36.1304V51.4804Z" fill="#8C96A1" style="fill:#8C96A1;fill:color(display-p3 0.5490 0.5882 0.6314);fill-opacity:1;"/><path d="M41.5796 51.4805H47.6599V52.8549H43.273V55.7287H47.1485V57.0844H43.273V61.5928H41.5796V51.4805Z" fill="#8C96A1" style="fill:#8C96A1;fill:color(display-p3 0.5490 0.5882 0.6314);fill-opacity:1;"/><path d="M58.7193 56.5571C58.7193 54.47 57.5562 52.6633 55.217 52.6633C52.8751 52.6633 51.6546 54.4539 51.6546 56.4982C51.6546 58.5827 52.8399 60.3752 55.1779 60.3752C57.519 60.3752 58.7193 58.6242 58.7193 56.5569V56.5571ZM49.8452 56.5571C49.8452 53.7839 51.795 51.2852 55.1779 51.2852C58.5635 51.2852 60.5128 53.7245 60.5128 56.4982C60.5128 59.2737 58.6027 61.7734 55.217 61.7734C51.8329 61.7734 49.8452 59.33 49.8452 56.5569" fill="#8C96A1" style="fill:#8C96A1;fill:color(display-p3 0.5490 0.5882 0.6314);fill-opacity:1;"/><path d="M66.1661 55.9275C67.5843 55.9275 68.1942 55.3938 68.1942 54.352C68.1942 53.2873 67.5214 52.7976 66.0664 52.7976H64.7301V55.9274L66.1661 55.9275ZM63.0328 51.4804H66.2067C68.5667 51.4804 69.9242 52.4434 69.9242 54.2737C69.9242 56.0046 68.6638 56.7699 67.1472 56.9262V56.9681C67.3672 57.1251 67.7387 57.5022 68.3502 58.3461L70.7499 61.5928H68.8041L66.7552 58.7004C65.7506 57.305 65.5142 57.1813 64.9057 57.1813H64.7301V61.5928H63.0327L63.0328 51.4804Z" fill="#8C96A1" style="fill:#8C96A1;fill:color(display-p3 0.5490 0.5882 0.6314);fill-opacity:1;"/><path d="M73.2358 51.4801H74.9475L79.4176 57.5993C79.9868 58.4043 80.4417 59.2709 80.4578 59.2709H80.4969C80.4969 59.2709 80.4201 58.4851 80.4201 57.7168V51.4802H81.9531V61.5926H80.4201L75.6763 55.1032C75.2061 54.4078 74.7716 53.6031 74.7716 53.6031H74.7546C74.7546 53.6031 74.8113 54.2736 74.8113 54.9031V61.5928H73.236V51.4804" fill="#8C96A1" style="fill:#8C96A1;fill:color(display-p3 0.5490 0.5882 0.6314);fill-opacity:1;"/><path d="M85.7085 51.4804H87.4019V61.5928H85.7085V51.4804Z" fill="#8C96A1" style="fill:#8C96A1;fill:color(display-p3 0.5490 0.5882 0.6314);fill-opacity:1;"/><path d="M96.6942 58.0122L95.4931 54.9224C95.16 54.0362 94.8644 53.0902 94.8644 53.0902H94.8225C94.8225 53.0902 94.5108 54.0771 94.195 54.9224L93.0143 58.0122H96.6942ZM94.0764 51.4804H95.7295L99.8439 61.5928H98.0721L97.2056 59.3907H92.5016L91.6771 61.5928H90.0054L94.0764 51.4804Z" fill="#8C96A1" style="fill:#8C96A1;fill:color(display-p3 0.5490 0.5882 0.6314);fill-opacity:1;"/><path d="M13.6772 39.1669C13.6772 37.082 12.5167 35.2698 10.1741 35.2698C7.83431 35.2698 6.61183 37.0619 6.61183 39.1074C6.61183 41.1954 7.79297 42.9874 10.1348 42.9874C12.4769 42.9874 13.6772 41.2337 13.6772 39.1669ZM4.80225 39.1669C4.80225 36.3941 6.75066 33.8933 10.1349 33.8933C13.5194 33.8933 15.4686 36.334 15.4686 39.1074C15.4686 41.8807 13.5598 44.3838 10.1742 44.3838C6.79077 44.3838 4.80225 41.9425 4.80225 39.1669Z" fill="#8C96A1" style="fill:#8C96A1;fill:color(display-p3 0.5490 0.5882 0.6314);fill-opacity:1;"/><path d="M18.4429 34.0968H24.524V35.4705H20.1349V38.3461H24.0119V39.7006H20.1349V44.21H18.443V34.0969" fill="#8C96A1" style="fill:#8C96A1;fill:color(display-p3 0.5490 0.5882 0.6314);fill-opacity:1;"/><path d="M1.521 46.9033H28.9735V31.3653H1.521V46.9033ZM2.58154 32.4258H27.9134V45.843H2.58154V32.4258Z" fill="#8C96A1" style="fill:#8C96A1;fill:color(display-p3 0.5490 0.5882 0.6314);fill-opacity:1;"/><path d="M1.521 29.5029H103.303V13.9659H1.521V29.5029ZM2.58154 15.0258H102.243V28.4424H2.58154V15.0258Z" fill="#8C96A1" style="fill:#8C96A1;fill:color(display-p3 0.5490 0.5882 0.6314);fill-opacity:1;"/><path d="M1.521 64.2954H103.303V48.7586H1.521V64.2959V64.2954ZM2.58154 49.8184H102.243V63.2355H2.58154V49.8184Z" fill="#8C96A1" style="fill:#8C96A1;fill:color(display-p3 0.5490 0.5882 0.6314);fill-opacity:1;"/></g><defs><clipPath id="clip0_5242_10067"><rect width="101.781" height="50.2708" fill="white" style="fill:white;fill-opacity:1;" transform="translate(1.51318 14.0166)"/></clipPath></defs></svg>