<svg width="72" height="73" viewBox="0 0 72 73" fill="none" xmlns="http://www.w3.org/2000/svg"><g id="det logo"><g id="logo"><g id="Seal icon"><path id="Seal" d="M57.9658 60.2923L56.0347 65.3633C55.6271 66.4327 54.8632 67.3289 53.8719 67.9008C52.8806 68.4728 51.7224 68.6855 50.5926 68.5031L45.2357 67.6454C44.8894 67.5909 44.5354 67.6096 44.1968 67.7003C43.8581 67.791 43.5422 67.9518 43.2695 68.1721L39.0613 71.5929C38.1744 72.3155 37.0654 72.7102 35.9214 72.7102C34.7774 72.7102 33.6684 72.3155 32.7815 71.5929L28.5732 68.1721C28.2999 67.9511 27.9832 67.79 27.6436 67.6992C27.304 67.6085 26.9491 67.5902 26.602 67.6454L21.2451 68.5031C20.1153 68.6855 18.9571 68.4728 17.9658 67.9008C16.9745 67.3289 16.2106 66.4327 15.803 65.3633L13.8719 60.2923C13.7465 59.9655 13.5541 59.6686 13.307 59.4207C13.0599 59.1728 12.7637 58.9793 12.4374 58.8528L7.36643 56.9217C6.29644 56.5148 5.39967 55.7511 4.8276 54.7596C4.25553 53.7681 4.04322 52.6095 4.22654 51.4795L5.08424 46.1227C5.14223 45.7781 5.12757 45.4252 5.04119 45.0866C4.95481 44.748 4.79863 44.4312 4.58266 44.1565L1.13681 39.9482C0.414151 39.0614 0.0195312 37.9524 0.0195312 36.8084C0.0195312 35.6643 0.414151 34.5553 1.13681 33.6685L4.55758 29.4602C4.77356 29.1855 4.92974 28.8687 5.01611 28.5301C5.10249 28.1915 5.11715 27.8386 5.05916 27.494L4.22654 22.1372C4.04322 21.0072 4.25553 19.8486 4.8276 18.8571C5.39967 17.8656 6.29644 17.1019 7.36643 16.695L12.4374 14.7589C12.7645 14.6351 13.0616 14.4432 13.3089 14.1959C13.5562 13.9486 13.7481 13.6515 13.8719 13.3244L15.808 8.25345C16.2149 7.18347 16.9786 6.2867 17.9701 5.71463C18.9616 5.14256 20.1202 4.93025 21.2502 5.11357L26.602 5.97127C26.9466 6.02925 27.2995 6.01459 27.6381 5.92822C27.9767 5.84184 28.2935 5.68566 28.5682 5.46969L32.7765 2.04892C33.6633 1.32626 34.7723 0.931641 35.9164 0.931641C37.0604 0.931641 38.1694 1.32626 39.0562 2.04892L43.2645 5.46969C43.5392 5.68566 43.856 5.84184 44.1946 5.92822C44.5332 6.01459 44.8861 6.02925 45.2307 5.97127L50.5876 5.11357C51.7175 4.93025 52.8761 5.14256 53.8676 5.71463C54.8592 6.2867 55.6229 7.18347 56.0297 8.25345L57.9608 13.3244C58.0873 13.6507 58.2808 13.947 58.5287 14.194C58.7767 14.4411 59.0736 14.6335 59.4003 14.7589L64.4713 16.695C65.5407 17.1027 66.4369 17.8665 67.0089 18.8578C67.5808 19.8491 67.7935 21.0073 67.6112 22.1372L66.7585 27.489C66.704 27.8354 66.7227 28.1893 66.8134 28.5279C66.9041 28.8666 67.0648 29.1825 67.2852 29.4552L70.7059 33.6635C71.4286 34.5503 71.8232 35.6593 71.8232 36.8033C71.8232 37.9474 71.4286 39.0564 70.7059 39.9432L67.2852 44.1515C67.0648 44.4242 66.9041 44.7401 66.8134 45.0787C66.7227 45.4174 66.704 45.7713 66.7585 46.1177L67.6162 51.4745C67.7985 52.6044 67.5858 53.7626 67.0139 54.7539C66.4419 55.7452 65.5457 56.509 64.4763 56.9167L59.4053 58.8477C59.0776 58.9743 58.7801 59.1682 58.5321 59.4171C58.2841 59.6659 58.0912 59.9641 57.9658 60.2923Z" fill="#FFC800" style="fill:#FFC800;fill:color(display-p3 1.0000 0.7843 0.0000);fill-opacity:1;"/><path id="Duo" d="M49.8072 31.9969C51.1218 34.9178 51.3773 38.2055 50.5297 41.2944C49.6821 44.3833 47.7845 47.0802 45.1633 48.9211C42.5421 50.762 39.3612 51.6318 36.168 51.3808C32.9748 51.1298 29.9688 49.7737 27.6675 47.5459C25.2368 48.4344 22.5898 48.5443 20.0938 47.8604C17.5979 47.1764 15.3767 45.7324 13.7386 43.7289C13.5766 43.529 13.4643 43.2936 13.4107 43.042C13.3572 42.7903 13.3639 42.5296 13.4305 42.2811C13.497 42.0325 13.6214 41.8033 13.7935 41.6121C13.9656 41.4209 14.1806 41.2731 14.4207 41.1809L21.0867 38.6027L17.7011 33.7725C17.2622 33.144 16.9855 32.4168 16.8956 31.6555C16.8057 30.8942 16.9055 30.1225 17.186 29.4091C17.4665 28.6956 17.919 28.0626 18.5033 27.5664C19.0876 27.0702 19.7856 26.7261 20.535 26.5648C24.347 25.7523 26.7981 24.9648 27.8882 24.2024C28.9783 23.44 30.5298 21.4337 32.5428 18.1835C32.9489 17.5314 33.5103 16.9903 34.1769 16.6085C34.8435 16.2267 35.5943 16.0162 36.3622 15.9958C37.1301 15.9754 37.891 16.1458 38.5769 16.4917C39.2628 16.8376 39.8521 17.3482 40.2922 17.9778L43.6578 22.7729L48.2824 17.4511C48.4509 17.2567 48.663 17.1048 48.9014 17.008C49.1398 16.9112 49.3977 16.8723 49.654 16.8943C49.9104 16.9163 50.1579 16.9987 50.3763 17.1347C50.5947 17.2707 50.7778 17.4565 50.9107 17.6769C52.227 19.8859 52.8276 22.448 52.63 25.0119C52.4324 27.5758 51.4464 30.0157 49.8072 31.9969ZM37.8596 54.8288L34.2833 54.3272C33.6813 54.2401 33.0694 54.3957 32.5822 54.7597C32.0949 55.1237 31.7722 55.6664 31.6851 56.2684C31.598 56.8703 31.7535 57.4822 32.1176 57.9695C32.4816 58.4567 33.0243 58.7794 33.6262 58.8665L37.2025 59.3681C37.8051 59.4519 38.4163 59.2929 38.9017 58.9261C39.3871 58.5592 39.7068 58.0146 39.7906 57.412C39.8745 56.8093 39.7154 56.1981 39.3486 55.7127C38.9817 55.2274 38.4371 54.9076 37.8345 54.8238L37.8596 54.8288ZM56.6538 38.7783C56.0598 38.6518 55.44 38.7662 54.9303 39.0962C54.4206 39.4263 54.0627 39.9451 53.9352 40.5388L53.1878 44.095C53.1153 44.3934 53.1034 44.7033 53.153 45.0063C53.2025 45.3093 53.3124 45.5993 53.4761 45.8591C53.6399 46.1188 53.8541 46.343 54.1062 46.5183C54.3582 46.6937 54.643 46.8166 54.9434 46.8798C55.2439 46.943 55.554 46.9451 55.8554 46.8862C56.1567 46.8272 56.4431 46.7083 56.6976 46.5365C56.9521 46.3647 57.1695 46.1436 57.3369 45.8861C57.5042 45.6287 57.6182 45.3403 57.672 45.038L58.4193 41.5269C58.5474 40.9303 58.4333 40.3073 58.1023 39.7948C57.7712 39.2822 57.2502 38.922 56.6538 38.7933V38.7783Z" fill="white" style="fill:white;fill-opacity:1;"/></g></g></g></svg>