<svg fill="none" height="18" viewBox="0 0 18 18" width="18" xmlns="http://www.w3.org/2000/svg" xmlns:xlink="http://www.w3.org/1999/xlink"><clipPath id="a"><path d="m0 0h18v18h-18z"/></clipPath><g clip-path="url(#a)"><path clip-rule="evenodd" d="m17.2153 9.39151c0-4.68974-3.8017-8.491486-8.49144-8.491486-4.68969 0-8.491438 3.801746-8.491438 8.491486 0 4.23829 3.105198 7.75129 7.164658 8.38829v-5.9338h-2.15604v-2.45449h2.15604v-1.87081c0-2.12817 1.26771-3.3037 3.20732-3.3037.9291 0 1.9008.16584 1.9008.16584v2.08969h-1.0707c-1.0549 0-1.3839.65456-1.3839 1.32608v1.5929h2.3551l-.3765 2.45449h-1.9786v5.9338c4.0595-.637 7.1647-4.15 7.1647-8.38829z" fill="#8c96a1" fill-rule="evenodd"/></g></svg>