<svg width="18" height="18" viewBox="0 0 18 18" fill="none" xmlns="http://www.w3.org/2000/svg"><g clip-path="url(#clip0_40_49649)"><path fill-rule="evenodd" clip-rule="evenodd" d="M18 4.47952V13.5205C18 15.9944 15.9291 18 13.3744 18H4.62556C2.07092 18 0 15.9944 0 13.5205V4.47952C0 2.00554 2.07092 0 4.62556 0H13.3744C15.9291 0 18 2.00554 18 4.47952ZM5.70179 14.3654C5.91517 14.3654 6.08813 14.1936 6.08813 13.9816V7.13326C6.08813 6.92129 5.91517 6.74948 5.70179 6.74948H4.05721C3.84383 6.74948 3.67087 6.92129 3.67087 7.13326V13.9816C3.67087 14.1936 3.84383 14.3654 4.05721 14.3654H5.70179ZM3.31714 4.55189C3.31714 5.40904 4.01664 6.10391 4.8795 6.10391C5.7424 6.10391 6.44186 5.40904 6.44186 4.55189C6.44186 3.69475 5.74236 2.99988 4.8795 2.99988C4.01664 2.99988 3.31714 3.69475 3.31714 4.55189ZM14.3274 14.3654C14.5236 14.3654 14.6826 14.2074 14.6826 14.0125V10.6981L14.6826 10.6736C14.6827 9.22757 14.6829 6.63455 11.873 6.63455C10.5969 6.63455 9.9976 7.0986 9.59431 7.69982V7.10235C9.59431 6.90748 9.43519 6.74948 9.23908 6.74948H7.53224C7.33607 6.74948 7.17701 6.90748 7.17701 7.10235V14.0125C7.17701 14.2074 7.33607 14.3654 7.53224 14.3654H9.23908C9.43528 14.3654 9.59431 14.2074 9.59431 14.0125V10.3075C9.63859 9.80968 9.85918 8.70039 10.9468 8.70039C12.2457 8.70039 12.2199 10.0911 12.2091 10.6769C12.2082 10.7234 12.2075 10.7649 12.2075 10.8002V14.0125C12.2075 14.2074 12.3665 14.3654 12.5627 14.3654H14.3274Z" fill="#8C96A1"/></g><defs><clipPath id="clip0_40_49649"><rect width="18" height="18" fill="white"/></clipPath></defs></svg>