<svg width="18" height="18" viewBox="0 0 18 18" fill="none" xmlns="http://www.w3.org/2000/svg"><g clip-path="url(#clip0_40_49609)"><path fill-rule="evenodd" clip-rule="evenodd" d="M12.464 17.6222C15.1845 17.6222 17.3898 15.4168 17.3898 12.6963V5.30375C17.3898 2.5833 15.1845 0.37793 12.464 0.37793H5.53597C2.81548 0.37793 0.610107 2.58329 0.610107 5.30375V12.6963C0.610107 15.4168 2.81548 17.6222 5.53597 17.6222H12.464ZM16.1268 5.30375V12.6963C16.1268 14.7192 14.4869 16.3591 12.464 16.3591H5.53601C3.51307 16.3591 1.87318 14.7192 1.87318 12.6963V5.30375C1.87318 3.28084 3.51307 1.64096 5.53601 1.64096H12.464C14.4869 1.64096 16.1268 3.28085 16.1268 5.30375Z" fill="#8C96A1"/><path fill-rule="evenodd" clip-rule="evenodd" d="M8.99991 13.5574C11.5128 13.5574 13.5257 11.5274 13.5811 8.99293C13.6389 6.3492 11.8866 4.47863 9.02239 4.39507C6.49742 4.32141 4.41858 6.42303 4.41858 8.97607C4.41858 11.5063 6.46971 13.5574 8.99991 13.5574ZM8.97738 5.9381C10.9888 5.99679 12.0771 7.15853 12.0377 8.9592C12.0004 10.6647 10.6627 12.0137 8.99988 12.0137C7.32225 12.0137 5.96224 10.6537 5.96224 8.97607C5.96224 7.27954 7.33648 5.89024 8.97738 5.9381Z" fill="#8C96A1"/><path fill-rule="evenodd" clip-rule="evenodd" d="M14.7606 4.26555C14.7606 4.85566 14.2822 5.33407 13.692 5.33407C13.102 5.33407 12.6235 4.85566 12.6235 4.26555C12.6235 3.67543 13.102 3.19702 13.692 3.19702C14.2822 3.19702 14.7606 3.67543 14.7606 4.26555Z" fill="#8C96A1"/></g><defs><clipPath id="clip0_40_49609"><rect width="18" height="18" fill="white"/></clipPath></defs></svg>