<svg width="41" height="41" viewBox="0 0 41 41" fill="none" xmlns="http://www.w3.org/2000/svg"><rect width="40" height="40" transform="translate(0.5 0.5)"/><path d="M5 15.5C5 11.7288 5 9.84316 6.17157 8.67158C7.34315 7.50001 9.22876 7.50001 13 7.50001H28C31.7712 7.50001 33.6569 7.50001 34.8284 8.67158C36 9.84316 36 11.7288 36 15.5V24.5C36 26.3856 36 27.3284 35.4142 27.9142C34.8284 28.5 33.8856 28.5 32 28.5H9C7.11438 28.5 6.17157 28.5 5.58579 27.9142C5 27.3284 5 26.3856 5 24.5V15.5Z" fill="#FFD9AB" stroke="#3C5D87" stroke-width="1.5"/><path d="M10 16.5C10 14.6144 10 13.6716 10.5858 13.0858C11.1716 12.5 12.1144 12.5 14 12.5H27C28.8856 12.5 29.8284 12.5 30.4142 13.0858C31 13.6716 31 14.6144 31 16.5V21.0089C31 22.8946 31 23.8374 30.4142 24.4232C29.8284 25.0089 28.8856 25.0089 27 25.0089H14C12.1144 25.0089 11.1716 25.0089 10.5858 24.4232C10 23.8374 10 22.8946 10 21.0089V16.5Z" fill="white" stroke="#3C5D87" stroke-width="1.5"/><rect x="15" y="16.5" width="11" height="1.5" rx="0.75" fill="#E1E5EA"/><rect x="14" y="20.5" width="13" height="1.5" rx="0.75" fill="#E1E5EA"/><path d="M2.5 30.1349C2.5 29.232 3.23196 28.5 4.13487 28.5H36.8651C37.768 28.5 38.5 29.232 38.5 30.1349C38.5 31.0378 37.768 31.7698 36.8651 31.7698H4.13487C3.23196 31.7698 2.5 31.0378 2.5 30.1349Z" fill="white"/><path d="M2.5 30.1349C2.5 29.232 3.23196 28.5 4.13487 28.5H36.8651C37.768 28.5 38.5 29.232 38.5 30.1349C38.5 31.0378 37.768 31.7698 36.8651 31.7698H4.13487C3.23196 31.7698 2.5 31.0378 2.5 30.1349Z" fill="#3C5D87" fill-opacity="0.12"/><path d="M2.5 30.1349C2.5 29.232 3.23196 28.5 4.13487 28.5H36.8651C37.768 28.5 38.5 29.232 38.5 30.1349C38.5 31.0378 37.768 31.7698 36.8651 31.7698H4.13487C3.23196 31.7698 2.5 31.0378 2.5 30.1349Z" stroke="#3C5D87" stroke-width="1.5"/><rect opacity="0.15" x="7.2041" y="30.2609" width="26.625" height="3.73684" rx="1.86842" fill="#3C5D87"/><line x1="19.75" y1="9.75" x2="21.25" y2="9.75" stroke="#3C5D87" stroke-width="1.5" stroke-linecap="round"/></svg>