<svg width="41" height="41" viewBox="0 0 41 41" fill="none" xmlns="http://www.w3.org/2000/svg"><g clip-path="url(#clip0_615_26082)"><rect width="40" height="40" transform="translate(0.5 0.5)"/><path fill-rule="evenodd" clip-rule="evenodd" d="M31.1672 20.2511C31.1672 14.4974 26.3917 9.83333 20.5002 9.83333C14.6088 9.83333 9.83331 14.4974 9.83331 20.2505C9.83331 23.3168 11.1979 26.0643 13.3562 27.9706L15.7876 31.9289H25.2134L27.6437 27.9717C29.8026 26.0654 31.1672 23.3174 31.1672 20.2511Z" fill="#FFD9AB"/><path d="M16.3099 35.7381H24.6906M17.4528 39.1667H23.5477M31.1672 20.2511C31.1672 14.4974 26.3917 9.83333 20.5002 9.83333C14.6088 9.83333 9.83331 14.4974 9.83331 20.2505C9.83331 23.3168 11.1979 26.0643 13.3562 27.9706L15.7876 31.9289H25.2134L27.6437 27.9717C29.8026 26.0654 31.1672 23.3174 31.1672 20.2511Z" stroke="#3C5D87" stroke-width="1.5" stroke-linecap="round" stroke-linejoin="round"/><path d="M19.2934 31.7858L17.4534 21.8806H23.5483L21.7083 31.7858" stroke="#3C5D87" stroke-width="1.5" stroke-linecap="round" stroke-linejoin="round"/><rect opacity="0.15" x="15" y="36.0605" width="10.8592" height="4" rx="2" fill="#3C5D87"/><line x1="20.7246" y1="6.4104" x2="20.7246" y2="1.5" stroke="#FFD9AB" stroke-width="2" stroke-linecap="round"/><line x1="34.4481" y1="20.1206" x2="39.3585" y2="20.1206" stroke="#FFD9AB" stroke-width="2" stroke-linecap="round"/><line x1="1.5" y1="20.1206" x2="6.4104" y2="20.1206" stroke="#FFD9AB" stroke-width="2" stroke-linecap="round"/><line x1="6.85037" y1="6.9296" x2="10.3225" y2="10.4018" stroke="#FFD9AB" stroke-width="2" stroke-linecap="round"/><line x1="1" y1="-1" x2="5.9104" y2="-1" transform="matrix(-0.707107 0.707107 0.707107 0.707107 35.0026 6.9296)" stroke="#FFD9AB" stroke-width="2" stroke-linecap="round"/><line x1="1" y1="-1" x2="5.9104" y2="-1" transform="matrix(0.707107 -0.707107 -0.707107 -0.707107 5.43616 32.3004)" stroke="#FFD9AB" stroke-width="2" stroke-linecap="round"/><line x1="33.5884" y1="32.3004" x2="30.1162" y2="28.8282" stroke="#FFD9AB" stroke-width="2" stroke-linecap="round"/><path d="M26.6608 20.1334C26.6608 17.4073 24.4509 15.1974 21.7248 15.1974" stroke="white" stroke-width="2" stroke-linecap="round"/></g><defs><clipPath id="clip0_615_26082"><rect width="40" height="40" fill="white" transform="translate(0.5 0.5)"/></clipPath></defs></svg>