<svg width="168" height="80" viewBox="0 0 168 80" fill="none" xmlns="http://www.w3.org/2000/svg"><g clip-path="url(#clip0_5242_10052)"><path d="M2.43506 36.7399V19.4741H5.82076V36.7399H2.43506ZM10.7887 25.8619H10.8365C11.6529 24.752 13.2129 24.1108 14.6304 24.1108C16.1412 24.1108 17.4372 24.7274 18.159 25.8619C19.1688 24.8762 20.7283 24.1358 22.1463 24.1108C24.8562 24.0858 26.2756 25.7891 26.3239 28.6242V36.7148H23.1288V29.2171C23.1288 27.7868 22.6487 26.307 21.066 26.307C19.5292 26.307 18.5695 27.243 18.5695 29.3883V36.7394H15.3749V29.2171C15.3749 27.491 14.6308 26.307 13.262 26.307C11.7485 26.307 10.8138 27.3664 10.8138 29.4633V36.7399H7.61919V24.407H10.7887V25.8619ZM34.3544 26.0849C36.1774 26.0849 37.0902 28.2064 37.0902 30.3271C37.0902 32.4977 36.3713 35.0625 34.2357 35.0625C32.506 35.0625 31.2814 33.3114 31.2814 30.7215C31.2808 27.8847 32.3376 26.0849 34.3544 26.0849ZM31.2808 24.407H28.089V42.9075H31.2808V35.2104C32.1705 36.2976 33.4166 37.0352 34.8805 37.0352C38.3148 37.0352 40.4755 33.559 40.4755 30.3025C40.4755 27.5889 38.9402 24.1112 35.1708 24.1112C33.73 24.1112 32.1701 24.8516 31.3287 26.1085H31.2808V24.407ZM45.0512 29.0929C45.0272 27.4433 45.8422 25.9365 47.6679 25.9365C49.2515 25.9365 49.9004 27.2189 49.7798 29.0929H45.0512ZM52.7842 30.8686C53.0213 27.1943 51.4608 24.1108 47.7161 24.1108C44.2826 24.1108 41.5941 26.5281 41.5941 30.3271C41.5941 34.3976 44.3059 37.0348 47.9322 37.0348C49.3002 37.0348 51.0049 36.6403 52.6377 35.6545L51.7248 33.9285C50.9339 34.4946 49.6834 34.916 48.5083 34.916C46.5157 34.916 44.932 33.1881 45.0049 30.8682L52.7842 30.8686ZM57.4932 26.5773H57.541L58.1881 25.6157C58.5723 25.0965 59.2689 24.1108 60.2527 24.1108C60.9736 24.1108 61.7408 24.5062 62.4143 25.2203L61.2143 27.491C60.6864 27.2189 60.3497 27.0706 59.7017 27.0706C58.5977 27.0706 57.516 27.9834 57.516 30.647V36.7399H54.3224V24.407H57.4928L57.4932 26.5773ZM66.6296 24.407V36.7404H63.4378V24.407H66.6296ZM63.126 20.7087C63.126 19.7694 63.8942 18.8092 64.9746 18.8092C66.0785 18.8092 66.9432 19.7462 66.9432 20.7087C66.9432 21.7681 66.1973 22.7788 65.0206 22.7788C63.8942 22.7788 63.126 21.7681 63.126 20.7087ZM75.3019 29.5871C75.5417 33.2118 73.887 34.8409 72.6143 34.8409C71.8461 34.8409 71.1717 34.1014 71.1717 33.0152C71.1717 31.6098 71.9653 30.6734 73.5253 30.1782L75.3019 29.5871ZM75.255 34.9392C75.255 35.605 75.326 36.3203 75.5654 36.7399H78.9515C78.5665 35.8762 78.4468 34.7171 78.4468 33.7305V28.6997C78.4468 24.8512 75.7351 24.1108 73.5257 24.1108C71.8697 24.1108 70.4063 24.5304 68.9154 25.7891L69.9475 27.3427C70.7895 26.6023 71.75 26.0849 73.1198 26.0849C74.1519 26.0849 75.1349 26.8002 75.3027 27.9343L72.4691 28.7971C69.6836 29.6103 68.0277 30.9427 68.0277 33.2873C68.0277 35.5544 69.5876 37.0343 71.4602 37.0343C72.5651 37.0343 73.6477 36.2707 74.5355 35.5544L75.255 34.9392ZM80.44 36.7399V18.6104H83.6315V36.7404L80.44 36.7399ZM104.704 22.6063C103.885 22.1617 102.518 21.6448 101.22 21.6448C97.764 21.6448 95.2689 24.1363 95.2689 28.0585C95.2689 32.1532 98.0297 34.5702 101.317 34.5702C102.615 34.5702 103.814 34.1997 104.704 33.7064L105.64 35.8529C104.608 36.4695 102.807 37.0362 101.174 37.0362C95.3385 37.0362 91.6657 33.0897 91.6657 28.0103C91.6657 23.2985 95.3162 19.1792 101.22 19.1792C102.974 19.1792 104.608 19.8208 105.759 20.5116L104.704 22.6063Z" fill="#8C96A1" style="fill:#8C96A1;fill:color(display-p3 0.5490 0.5882 0.6314);fill-opacity:1;"/><path d="M111.974 35.2104C109.693 35.2104 109.07 32.5965 109.07 30.4257C109.07 28.3789 109.789 25.9365 111.974 25.9365C114.207 25.9365 114.903 28.3789 114.903 30.4257C114.903 32.5965 114.304 35.2104 111.974 35.2104ZM111.974 37.0352C115.746 37.0352 118.287 34.2497 118.287 30.4263C118.287 26.4303 115.216 24.1112 111.974 24.1112C108.757 24.1112 105.685 26.4303 105.685 30.4263C105.685 34.2497 108.23 37.0352 111.974 37.0352ZM119.665 36.7399V18.6104H122.86V36.7404L119.665 36.7399ZM124.871 36.7399V18.6104H128.064V36.7404L124.871 36.7399ZM132.85 29.0929C132.823 27.4433 133.639 25.9365 135.463 25.9365C137.05 25.9365 137.696 27.2189 137.578 29.0929H132.85ZM140.579 30.8686C140.819 27.1943 139.259 24.1108 135.513 24.1108C132.081 24.1108 129.389 26.5281 129.389 30.3271C129.389 34.3976 132.102 37.0348 135.73 37.0348C137.097 37.0348 138.802 36.6403 140.436 35.6545L139.523 33.9285C138.733 34.4945 137.482 34.916 136.306 34.916C134.314 34.916 132.728 33.1881 132.8 30.8682L140.579 30.8686ZM158.924 29.0929C158.902 27.4433 159.716 25.9365 161.542 25.9365C163.125 25.9365 163.776 27.2189 163.655 29.0929H158.924ZM166.657 30.8686C166.895 27.1943 165.337 24.1108 161.59 24.1108C158.156 24.1108 155.468 26.5281 155.468 30.3271C155.468 34.3976 158.18 37.0348 161.807 37.0348C163.176 37.0348 164.88 36.6403 166.512 35.6545L165.601 33.9285C164.808 34.4945 163.56 34.916 162.383 34.916C160.389 34.916 158.808 33.1881 158.878 30.8682L166.657 30.8686ZM148.042 26.0849C149.965 26.0849 150.947 28.0831 150.947 30.2283C150.947 32.6948 150.034 35.0625 147.897 35.0625C146.048 35.0625 145.139 32.7435 145.139 30.3507C145.138 27.9593 145.978 26.0849 148.042 26.0849ZM154.141 24.407H150.947V25.912H150.9C150.228 24.802 148.785 24.1112 147.321 24.1112C144.056 24.1112 141.752 27.2194 141.752 30.4263C141.752 34.3726 143.842 37.0352 147.034 37.0352C148.861 37.0352 150.107 36 150.9 34.9633H150.947V36.5915C150.947 39.4526 149.315 40.785 147.201 40.785C145.57 40.785 144.2 40.4642 143.025 39.7243L142.399 41.7461C143.817 42.4856 145.643 42.9075 147.442 42.9075C151.019 42.9075 154.141 41.1058 154.141 35.6304V24.407ZM2.43506 44.1411H5.84534V59.0861H13.0222V61.4052H2.43506V44.1411ZM31.7574 50.5276C32.8964 49.3435 34.4855 48.7756 36.0782 48.7756C39.0343 48.7756 40.45 50.3552 40.45 53.4623V61.4047H37.2414V53.8328C37.2414 52.1076 36.4578 50.9732 34.714 50.9732C33.0698 50.9732 31.7824 52.0321 31.7824 54.0544V61.4047H28.5732V49.0732H31.7578L31.7574 50.5276ZM48.7596 50.7515C50.7819 50.7515 51.8172 52.7497 51.8172 54.8935C51.8172 57.3619 50.8589 59.7277 48.6076 59.7277C46.6631 59.7277 45.7029 57.4096 45.7029 55.0169C45.7029 52.6246 46.588 50.7515 48.7596 50.7515ZM51.8172 61.4052H55.0268V43.2779H51.8172V50.5049H51.7662C51.0085 49.4176 49.5441 48.776 47.9018 48.776C44.5143 48.776 42.1398 51.8846 42.1398 55.0911C42.1398 59.0366 44.3372 61.6996 47.6483 61.6996C49.6192 61.6996 50.933 60.6648 51.7662 59.6276H51.8167L51.8172 61.4052ZM63.3654 59.8743C60.9667 59.8743 60.3069 57.2613 60.3069 55.0906C60.3069 53.0441 61.0641 50.6023 63.3654 50.6023C65.7168 50.6023 66.4476 53.0441 66.4476 55.0906C66.4476 57.2613 65.8178 59.8743 63.3654 59.8743ZM63.3654 61.6996C67.3323 61.6996 70.0099 58.9122 70.0099 55.0911C70.0099 51.0974 66.7771 48.776 63.3654 48.776C59.9792 48.776 56.7446 51.0974 56.7446 55.0911C56.7446 58.9122 59.4236 61.6996 63.3654 61.6996ZM74.9383 50.5276C76.076 49.3435 77.6673 48.7756 79.2582 48.7756C82.2148 48.7756 83.6305 50.3552 83.6305 53.4623V61.4047H80.4219V53.8328C80.4219 52.1076 79.6382 50.9732 77.8935 50.9732C76.2525 50.9732 74.9629 52.0321 74.9629 54.0544V61.4047H71.7537V49.0732H74.9378L74.9383 50.5276ZM20.1295 59.8743C17.7267 59.8743 17.0714 57.2613 17.0714 55.0906C17.0714 53.0441 17.8286 50.6023 20.1295 50.6023C22.4794 50.6023 23.2121 53.0441 23.2121 55.0906C23.2126 57.2613 22.5791 59.8743 20.1295 59.8743ZM20.1295 61.6996C24.0958 61.6996 26.7744 58.9122 26.7744 55.0911C26.7744 51.0974 23.5397 48.776 20.1295 48.776C16.7429 48.776 13.5087 51.0974 13.5087 55.0911C13.5091 58.9122 16.1862 61.6996 20.1295 61.6996Z" fill="#8C96A1" style="fill:#8C96A1;fill:color(display-p3 0.5490 0.5882 0.6314);fill-opacity:1;"/></g><defs><clipPath id="clip0_5242_10052"><rect width="164.816" height="43.0892" fill="white" style="fill:white;fill-opacity:1;" transform="translate(2.30615 18.6104)"/></clipPath></defs></svg>