<svg fill="none" height="180" viewBox="0 0 395 180" width="395" xmlns="http://www.w3.org/2000/svg" xmlns:xlink="http://www.w3.org/1999/xlink"><clipPath id="a"><path d="m151 13.2h86.4v154.8h-86.4z"/></clipPath><mask id="b" height="72" maskUnits="userSpaceOnUse" width="71" x="100" y="23"><circle cx="35.0843" cy="35.0843" fill="#fff" r="35.0843" transform="matrix(-.707107 -.707107 -.707107 .707107 184.729 58.9758)"/></mask><g fill="#ff9600"><rect height="132.315" opacity=".08" rx="19.8832" transform="matrix(.91694869 .39900514 -.39900514 .91694869 9.612634 -37.782275)" width="132.315" x="95.5654" y="4.19995"/><rect height="76.0053" opacity=".08" rx="13.6662" transform="matrix(.93559263 -.35308134 .35308134 .93559263 5.774104 95.13165)" width="76.0053" x="263.643" y="31.739"/><rect height="60.8427" opacity=".08" rx="11.0904" transform="matrix(.93845686 -.34539648 .34539648 .93845686 -23.706813 10.91146)" width="60.8427" x="18.7656" y="71.9802"/><rect height="8.44849" opacity=".1" rx="2.82999" transform="matrix(.78252449 .62261981 -.62261981 .78252449 88.437286 -224.222034)" width="8.44849" x="365.186" y="14.4844"/><rect height="8.44849" opacity=".1" rx="2.82999" transform="matrix(.18621024 .98250992 -.98250992 .18621024 57.930865 -33.988267)" width="8.44849" x="49.4829" y="17.9766"/><rect height="8.44849" opacity=".1" rx="2.82999" transform="matrix(.15959518 .98718255 -.98718255 .15959518 414.069597 -317.056158)" width="8.44849" x="393.25" y="84.6656"/><rect height="15.0912" opacity=".1" rx="2.82999" transform="matrix(.15959518 .98718255 -.98718255 .15959518 224.294723 -251.468071)" width="15.0912" x="259.841" y="6"/><rect height="13.6181" opacity=".1" rx="3.28475" transform="matrix(.91318376 .40754805 -.40754805 .91318376 52.497076 8.726991)" width="13.6181" x="5.76465" y="127.584"/></g><rect fill="#083156" height="1.8" rx=".9" width="249.6" x="64.6001" y="178.2"/><rect fill="#083156" height="1.8" rx=".9" width="9.6" x="50.1997" y="178.2"/><rect fill="#083156" height="1.8" rx=".9" width="9.6" x="319" y="178.2"/><rect fill="#083156" height="1.8" rx=".9" width="4.8" x="333.4" y="178.2"/><g opacity=".6"><path clip-rule="evenodd" d="m21.3999 115.8c0 2.651 2.149 4.8 4.8 4.8h81.6001c2.651 0 4.8-2.149 4.8-4.8v-49.8001c0-2.6509-2.149-4.7999-4.8-4.7999h-81.6001c-2.651 0-4.8 2.149-4.8 4.8z" fill="#fff" fill-rule="evenodd"/><path clip-rule="evenodd" d="m21.3999 111c0 4.525 0 6.788 1.4059 8.194s3.6686 1.406 8.1941 1.406h72.0001c4.525 0 6.788 0 8.194-1.406s1.406-3.669 1.406-8.194v-40.2001c0-4.5254 0-6.7882-1.406-8.1941-1.406-1.4058-3.669-1.4058-8.194-1.4058h-72.0001c-4.5255 0-6.7882 0-8.1941 1.4058-1.4059 1.4059-1.4059 3.6687-1.4059 8.1942z" fill-rule="evenodd" stroke="#3c5d87" stroke-width="1.5"/><rect fill="#3c5d87" height="7.33402" opacity=".15" rx="2.04467" width="77.9656" x="35.9336" y="117"/><rect fill="#ffd9ab" height="1.8" rx=".9" width="68.4" x="31" y="70.8"/><rect fill="#ffd9ab" height="1.8" rx=".9" width="61.2" x="31" y="75.6"/><rect fill="#ffd9ab" height="1.8" rx=".9" width="72" x="31" y="80.4"/><rect fill="#3c5d87" height="1.8" rx=".9" width="56.4" x="31" y="85.2"/><rect fill="#3c5d87" height="1.8" rx=".9" width="68.4" x="31" y="90"/><g fill="#ffd9ab"><rect height="1.8" rx=".9" width="64.8" x="31" y="94.8"/><rect height="1.8" rx=".9" width="69.6" x="31" y="99.6"/><rect height="1.8" rx=".9" width="56.4" x="31" y="104.4"/><rect height="1.8" rx=".9" width="28.8" x="31" y="109.2"/></g></g><g opacity=".6"><rect fill="#fff" height="75.151" rx="5.11168" stroke="#3c5d87" stroke-linejoin="round" stroke-miterlimit="10" stroke-width="1.02234" width="102.128" x="262.6" y="81.6"/><circle cx="313.6" cy="120" fill="#3c5d87" r="13.2"/><path d="m315.73 117.475c2.271 1.311 3.406 1.967 3.406 2.95s-1.135 1.639-3.406 2.95l-1.278.738c-2.271 1.311-3.406 1.966-4.258 1.475-.851-.492-.851-1.803-.851-4.425v-1.475c0-2.623 0-3.934.851-4.425.852-.492 1.987.163 4.258 1.475z" fill="#ffd9ab"/><path d="m262.6 91.8233c0-4.8193 0-7.229 1.497-8.7261 1.497-1.4972 3.907-1.4972 8.726-1.4972h81.787c4.82 0 7.229 0 8.727 1.4972 1.497 1.4971 1.497 3.9068 1.497 8.7261v2.0447h-102.234z" fill="#ffd9ab"/><rect height="75.151" rx="5.11168" stroke="#3c5d87" stroke-linejoin="round" stroke-miterlimit="10" stroke-width="1.5" width="102.128" x="262.6" y="81.6"/><g fill="#3c5d87"><path d="m268.66 89.7835c1.13 0 2.046-.916 2.046-2.0462s-.916-2.0463-2.046-2.0463-2.046.9161-2.046 2.0463.916 2.0462 2.046 2.0462z"/><path d="m274.798 89.7835c1.13 0 2.046-.916 2.046-2.0462s-.916-2.0463-2.046-2.0463-2.046.9161-2.046 2.0463.916 2.0462 2.046 2.0462z"/><path d="m280.939 89.7835c1.13 0 2.046-.916 2.046-2.0462s-.916-2.0463-2.046-2.0463-2.046.9161-2.046 2.0463.916 2.0462 2.046 2.0462z"/><rect height="7.33402" opacity=".15" rx="2.04467" width="89.9656" x="267.534" y="154.2"/><rect fill-opacity=".5" height="9.63474" rx="1.92695" width="94.4205" x="266.454" y="143.262"/></g><path d="m270.561 148.078c0-.532.431-.963.963-.963h84.283c.532 0 .964.431.964.963s-.432.963-.964.963h-84.283c-.532 0-.963-.431-.963-.963z" fill="#083156"/><path d="m270.561 148.078c0-.532.431-.963.963-.963h57.599c.532 0 .964.431.964.963s-.432.963-.964.963h-57.599c-.532 0-.963-.431-.963-.963z" fill="#fff" opacity=".4"/><path d="m270.561 148.078c0-.532.431-.963.963-.963h26.81c.532 0 .963.431.963.963s-.431.963-.963.963h-26.81c-.532 0-.963-.431-.963-.963z" fill="#ffd9ab"/><circle cx="298.249" cy="148.078" fill="#ffd9ab" r="1.92695"/></g><g opacity=".6"><path d="m240.339 43.5198c0-3.9647 0-5.9471 1.232-7.1787 1.231-1.2317 3.214-1.2317 7.178-1.2317h93.04c3.965 0 5.947 0 7.179 1.2317 1.232 1.2316 1.232 3.214 1.232 7.1787v10.513c0 3.9647 0 5.947-1.232 7.1787s-3.214 1.2317-7.179 1.2317h-93.04c-3.964 0-5.947 0-7.178-1.2317-1.232-1.2317-1.232-3.214-1.232-7.1787z" fill="#fff" stroke="#3c5d87" stroke-width="1.5"/><rect fill="#3c5d87" height="6.6052" opacity=".15" rx="1.57695" width="103.553" x="239.891" y="59.1375"/><path d="m240.863 42.4685c0-3.4691 0-5.2037 1.078-6.2814s2.812-1.0777 6.281-1.0777h29.437c1.487 0 2.23 0 2.692.4619.462.4618.462 1.2052.462 2.692v21.026c0 1.4868 0 2.2301-.462 2.692s-1.205.4619-2.692.4619h-29.437c-3.469 0-5.203 0-6.281-1.0777s-1.078-2.8123-1.078-6.2814z" fill="#1cb0f6" opacity=".04"/><g stroke-linecap="round"><path d="m280.814 36.9128v23.2038" opacity=".4" stroke="#3c5d87" stroke-width="1.0513"/><path d="m252.429 47.8008v1.9524" stroke="#ffd9ab" stroke-width="1.2"/><path d="m249.274 48.451v.6514" stroke="#ffd9ab" stroke-width="1.2"/><path d="m255.583 46.4965v4.5556" stroke="#ffd9ab" stroke-width="1.2"/><path d="m258.735 45.8464v5.8573" stroke="#ffd9ab" stroke-width="1.2"/><path d="m261.889 46.4965v4.5556" stroke="#ffd9ab" stroke-width="1.2"/><path d="m265.044 47.4757v2.2778" stroke="#ffd9ab" stroke-width="1.2"/><path d="m268.198 45.8464v5.8573" stroke="#ffd9ab" stroke-width="1.2"/><path d="m271.352 44.5459v8.4605" stroke="#ffd9ab" stroke-width="1.2"/><path d="m274.506 45.8464v5.8573" stroke="#ffd9ab" stroke-width="1.2"/><path d="m277.659 44.5459v8.4605" stroke="#ffd9ab" stroke-width="1.2"/><path d="m283.967 41.2911v14.9686" stroke="#ffd9ab" stroke-width="1.2"/><path d="m287.122 42.2703v13.0161" stroke="#ffd9ab" stroke-width="1.2"/><path d="m290.274 43.8958v9.762" stroke="#ffd9ab" stroke-width="1.2"/><path d="m293.43 42.5953v12.3653" stroke="#ffd9ab" stroke-width="1.2"/><path d="m296.582 42.9205v11.7145" stroke="#ffd9ab" stroke-width="1.2"/><path d="m299.736 40.9659v15.6194" stroke="#ffd9ab" stroke-width="1.2"/><path d="m302.89 39.6656v18.2226" stroke="#ffd9ab" stroke-width="1.2"/><path d="m306.045 41.2911v14.9686" stroke="#ffd9ab" stroke-width="1.2"/><path d="m309.199 43.2456v11.0637" stroke="#ffd9ab" stroke-width="1.2"/><path d="m312.351 45.8464v5.8573" stroke="#ffd9ab" stroke-width="1.2"/><path d="m315.505 46.4965v4.5556" stroke="#ffd9ab" stroke-width="1.2"/><path d="m318.66 44.5459v8.4605" stroke="#ffd9ab" stroke-width="1.2"/><path d="m321.813 45.8464v5.8573" stroke="#ffd9ab" stroke-width="1.2"/><path d="m324.968 46.4965v4.5556" stroke="#ffd9ab" stroke-width="1.2"/><path d="m328.123 45.5212v6.5081" stroke="#ffd9ab" stroke-width="1.2"/><path d="m331.276 47.1505v3.254" stroke="#ffd9ab" stroke-width="1.2"/><path d="m334.431 47.8008v1.9524" stroke="#ffd9ab" stroke-width="1.2"/><path d="m337.583 48.1259v1.3006" stroke="#ffd9ab" stroke-width="1.2"/><path d="m340.737 48.451v.6514" stroke="#ffd9ab" stroke-width="1.2"/><path d="m343.891 48.451v.6514" stroke="#ffd9ab" stroke-width="1.2"/><path d="m252.429 47.8015v1.9524" stroke="#3c5d87" stroke-width="1.0513"/><path d="m249.275 48.4517v.6514" stroke="#3c5d87" stroke-width="1.0513"/><path d="m246.121 48.4517v.6514" stroke="#3c5d87" stroke-width="1.0513"/><path d="m255.584 46.4972v4.5556" stroke="#3c5d87" stroke-width="1.0513"/><path d="m258.738 45.8469v5.8573" stroke="#3c5d87" stroke-width="1.0513"/><path d="m261.89 46.4972v4.5556" stroke="#3c5d87" stroke-width="1.0513"/><path d="m265.044 47.4763v2.2778" stroke="#3c5d87" stroke-width="1.0513"/><path d="m268.199 45.8469v5.8573" stroke="#3c5d87" stroke-width="1.0513"/><path d="m271.353 44.5466v8.4605" stroke="#3c5d87" stroke-width="1.0513"/><path d="m274.507 45.8469v5.8573" stroke="#3c5d87" stroke-width="1.0513"/><path d="m277.662 44.5466v8.4605" stroke="#3c5d87" stroke-width="1.0513"/></g></g><path d="m105.4 66c0-5.3019 4.298-9.6 9.6-9.6h158.4c5.302 0 9.6 4.2981 9.6 9.6v100.8h-177.6z" fill="#b2bece"/><path d="m105.4 75.6c0-9.0509 0-13.5764 2.812-16.3882 2.811-2.8118 7.337-2.8118 16.388-2.8118h139.2c9.051 0 13.576 0 16.388 2.8118s2.812 7.3373 2.812 16.3882v91.2h-177.6z" stroke="#083156" stroke-width="1.8"/><path d="m117.4 72c0-1.9882 1.612-3.6 3.6-3.6h146.4c1.988 0 3.6 1.6118 3.6 3.6v94.8h-153.6z" fill="#083156" fill-opacity=".55"/><path d="m117.4 75.6c0-3.3941 0-5.0911 1.054-6.1456 1.055-1.0544 2.752-1.0544 6.146-1.0544h139.2c3.394 0 5.091 0 6.145 1.0544 1.055 1.0545 1.055 2.7515 1.055 6.1456v91.2h-153.6z" stroke="#083156" stroke-width="1.8"/><rect fill="#083156" height="123.6" opacity=".1" rx="2.4" width="8.4" x="251.8" y="49.2"/><path clip-rule="evenodd" d="m136.6 169.2h115.2v-160.80005c0-3.97645-3.223-7.2-7.2-7.2h-100.8c-3.976 0-7.2 3.22355-7.2 7.2z" fill="#fff" fill-rule="evenodd"/><path clip-rule="evenodd" d="m136.6 166.8h115.2v-151.2001c0-6.78818 0-10.18229-2.109-12.29112s-5.503-2.10883-12.291-2.10883h-86.4c-6.788 0-10.182 0-12.291 2.10883s-2.109 5.50295-2.109 12.29122z" fill-rule="evenodd" stroke="#083156" stroke-width="1.8"/><g clip-path="url(#a)"><path clip-rule="evenodd" d="m167.8 21.5995c0 4.6394-3.76 8.4005-8.4 8.4005-4.639 0-8.4-3.7611-8.4-8.4005 0-4.6393 3.761-8.3995 8.4-8.3995 4.64 0 8.4 3.7602 8.4 8.3995z" fill="#ffd9ab" fill-rule="evenodd"/><path d="m156.809 21.1594c-.075-.0753-.166-.1353-.265-.1766-.1-.0413-.207-.063-.315-.0639-.109-.001-.216.019-.317.0586-.1.0396-.191.0981-.268.1721s-.137.162-.178.2589c-.041.0968-.062.2006-.061.3052.001.1047.023.2081.066.3042.043.0962.105.1831.183.2558l2.172 2.0955c.154.1478.361.2308.578.2308.216 0 .424-.083.577-.2308l4.595-4.4337c.148-.1486.231-.3477.229-.5543s-.088-.4043-.239-.5504c-.152-.1461-.357-.229-.571-.2308s-.42.0776-.574.2212l-4.018 3.8765z" fill="#3c5d87"/><g fill="#ffd9ab"><rect height="1.8" rx=".9" width="60" x="175" y="16.2"/><rect height="1.8" rx=".9" width="48" x="175" y="21"/><rect height="1.8" rx=".9" width="24" x="175" y="25.8"/><path clip-rule="evenodd" d="m167.8 50.3996c0 4.6393-3.76 8.4004-8.4 8.4004-4.639 0-8.4-3.7611-8.4-8.4004 0-4.6394 3.761-8.3996 8.4-8.3996 4.64 0 8.4 3.7602 8.4 8.3996z" fill-rule="evenodd"/></g><path d="m156.809 49.9595c-.075-.0753-.166-.1353-.265-.1766-.1-.0413-.207-.0631-.315-.064-.109-.0009-.216.019-.317.0587-.1.0396-.191.0981-.268.1721s-.137.162-.178.2588c-.041.0969-.062.2007-.061.3053s.023.208.066.3042c.043.0961.105.1831.183.2558l2.172 2.0955c.154.1477.361.2307.578.2307.216 0 .424-.083.577-.2307l4.595-4.4337c.148-.1487.231-.3477.229-.5544-.002-.2066-.088-.4042-.239-.5504-.152-.1461-.357-.229-.571-.2307-.214-.0018-.42.0776-.574.2211l-4.018 3.8766z" fill="#3c5d87"/><rect fill="#ffd9ab" height="1.8" rx=".9" width="48" x="175" y="45"/><rect fill="#ffd9ab" height="1.8" rx=".9" width="62.4" x="175" y="49.8"/><rect fill="#ffd9ab" height="1.8" rx=".9" width="54" x="175" y="54.6"/><path clip-rule="evenodd" d="m167.8 79.1996c0 4.6394-3.76 8.4004-8.4 8.4004-4.639 0-8.4-3.761-8.4-8.4004 0-4.6393 3.761-8.3996 8.4-8.3996 4.64 0 8.4 3.7603 8.4 8.3996z" fill="#ffd9ab" fill-rule="evenodd"/><path d="m156.809 78.7594c-.075-.0753-.166-.1353-.265-.1766-.1-.0413-.207-.0631-.315-.064-.109-.0009-.216.0191-.317.0587-.1.0396-.191.0981-.268.1721s-.137.162-.178.2589c-.041.0968-.062.2006-.061.3052.001.1047.023.2081.066.3042.043.0962.105.1831.183.2558l2.172 2.0955c.154.1478.361.2308.578.2308.216 0 .424-.083.577-.2308l4.595-4.4337c.148-.1486.231-.3477.229-.5543-.002-.2067-.088-.4043-.239-.5504-.152-.1461-.357-.229-.571-.2308s-.42.0776-.574.2212l-4.018 3.8765z" fill="#3c5d87"/><rect fill="#ffd9ab" height="1.8" rx=".9" width="60" x="175" y="73.8"/><rect fill="#ffd9ab" height="1.8" rx=".9" width="56.4" x="175" y="78.6"/><rect fill="#ffd9ab" height="1.8" rx=".9" width="36" x="175" y="83.4"/><path clip-rule="evenodd" d="m167.8 108c0 4.639-3.76 8.4-8.4 8.4-4.639 0-8.4-3.761-8.4-8.4 0-4.64 3.761-8.4 8.4-8.4 4.64 0 8.4 3.76 8.4 8.4z" fill="#ffd9ab" fill-rule="evenodd"/><path d="m156.809 107.559c-.075-.075-.166-.135-.265-.176-.1-.041-.207-.063-.315-.064-.109-.001-.216.019-.317.059-.1.039-.191.098-.268.172s-.137.162-.178.259c-.041.096-.062.2-.061.305.001.104.023.208.066.304s.105.183.183.256l2.172 2.095c.154.148.361.231.578.231.216 0 .424-.083.577-.231l4.595-4.433c.148-.149.231-.348.229-.555-.002-.206-.088-.404-.239-.55-.152-.146-.357-.229-.571-.231s-.42.078-.574.221l-4.018 3.877z" fill="#3c5d87"/><rect fill="#ffd9ab" height="1.8" rx=".9" width="56.4" x="175" y="102.6"/><rect fill="#ffd9ab" height="1.8" rx=".9" width="61.2" x="175" y="107.4"/><rect fill="#ffd9ab" height="1.8" rx=".9" width="12" x="175" y="112.2"/><path clip-rule="evenodd" d="m167.8 136.8c0 4.639-3.76 8.4-8.4 8.4-4.639 0-8.4-3.761-8.4-8.4 0-4.64 3.761-8.4 8.4-8.4 4.64 0 8.4 3.76 8.4 8.4z" fill="#ffd9ab" fill-rule="evenodd"/><path d="m156.809 136.359c-.075-.075-.166-.135-.265-.176-.1-.041-.207-.063-.315-.064-.109-.001-.216.019-.317.059-.1.039-.191.098-.268.172s-.137.162-.178.259c-.041.096-.062.2-.061.305.001.104.023.208.066.304s.105.183.183.256l2.172 2.095c.154.148.361.231.578.231.216 0 .424-.083.577-.231l4.595-4.433c.148-.149.231-.348.229-.555-.002-.206-.088-.404-.239-.55-.152-.146-.357-.229-.571-.231s-.42.078-.574.221l-4.018 3.877z" fill="#3c5d87"/><rect fill="#ffd9ab" height="1.8" rx=".9" width="60" x="175" y="131.4"/><rect fill="#ffd9ab" height="1.8" rx=".9" width="48" x="175" y="136.2"/><rect fill="#ffd9ab" height="1.8" rx=".9" width="24" x="175" y="141"/><path clip-rule="evenodd" d="m167.8 165.6c0 4.639-3.76 8.4-8.4 8.4-4.639 0-8.4-3.761-8.4-8.4 0-4.64 3.761-8.4 8.4-8.4 4.64 0 8.4 3.76 8.4 8.4z" fill="#ffd9ab" fill-rule="evenodd"/><path d="m156.809 165.159c-.075-.075-.166-.135-.265-.176-.1-.041-.207-.063-.315-.064-.109-.001-.216.019-.317.059-.1.039-.191.098-.268.172s-.137.162-.178.258c-.041.097-.062.201-.061.306.001.104.023.208.066.304s.105.183.183.256l2.172 2.095c.154.148.361.231.578.231.216 0 .424-.083.577-.231l4.595-4.433c.148-.149.231-.348.229-.555-.002-.206-.088-.404-.239-.55-.152-.146-.357-.229-.571-.231s-.42.078-.574.221l-4.018 3.877z" fill="#3c5d87"/><rect fill="#ffd9ab" height="1.8" rx=".9" width="56.4" x="175" y="160.2"/><rect fill="#ffd9ab" height="1.8" rx=".9" width="60" x="175" y="165"/></g><path d="m91 171.6c0-2.651 2.149-4.8 4.8-4.8h196.8c2.651 0 4.8 2.149 4.8 4.8v2.4c0 2.651-2.149 4.8-4.8 4.8h-196.8c-2.651 0-4.8-2.149-4.8-4.8z" fill="#b2bece"/><path d="m177.4 166.8h33.6v1.2c0 1.326-1.075 2.4-2.4 2.4h-28.8c-1.326 0-2.4-1.074-2.4-2.4z" fill="#083156" opacity=".4"/><path d="m115 175.2c0-1.118 0-1.677.183-2.118.243-.589.71-1.056 1.299-1.299.441-.183 1-.183 2.118-.183h181.2c1.118 0 1.677 0 2.118.183.589.243 1.056.71 1.299 1.299.183.441.183 1 .183 2.118s0 1.677-.183 2.118c-.243.588-.71 1.056-1.299 1.299-.441.183-1 .183-2.118.183h-181.2c-1.118 0-1.677 0-2.118-.183-.589-.243-1.056-.711-1.299-1.299-.183-.441-.183-1-.183-2.118z" fill="#083156" opacity=".1"/><path d="m111.4 162c0-2.263 0-3.394.703-4.097s1.834-.703 4.097-.703h159.6c2.263 0 3.394 0 4.097.703s.703 1.834.703 4.097 0 3.394-.703 4.097-1.834.703-4.097.703h-159.6c-2.263 0-3.394 0-4.097-.703s-.703-1.834-.703-4.097z" fill="#083156" opacity=".12"/><path d="m91 172.8c0-1.115 0-1.673.0922-2.136.3788-1.904 1.8673-3.393 3.7714-3.772.4636-.092 1.0212-.092 2.1364-.092h194.4c1.115 0 1.673 0 2.136.092 1.905.379 3.393 1.868 3.772 3.772.092.463.092 1.021.092 2.136 0 1.115 0 1.673-.092 2.136-.379 1.905-1.867 3.393-3.772 3.772-.463.092-1.021.092-2.136.092h-194.4c-1.1152 0-1.6728 0-2.1364-.092-1.9041-.379-3.3926-1.867-3.7714-3.772-.0922-.463-.0922-1.021-.0922-2.136z" stroke="#083156" stroke-width="1.8"/><path d="m120.359 98.9384c15.068 5.5046 32.625 2.2116 44.716-9.8791 5.264-5.2636 8.86-11.5632 10.789-18.2423" opacity=".14" stroke="#083156" stroke-linecap="round" stroke-width="14.9295"/><path d="m0 0h7.46475v24.6337h-7.46475z" fill="#ffe49f" stroke="#083156" stroke-width="1.8" transform="matrix(-.707107 -.707107 -.707107 .707107 110.829 88.5369)"/><path d="m102.383 91.7046c-1.742-1.7416-3.3157-3.5875-4.7217-5.5175-.7882-1.082-1.1823-1.623-1.5321-2.5113-.3723-.9454-.5787-2.3598-.492-3.3722.0814-.9512.3675-1.7604.9397-3.3789l20.5861 20.5857c-1.619.5722-2.428.8583-3.379.9397-1.013.0867-2.427-.1197-3.373-.492-.888-.3498-1.429-.7439-2.511-1.5321-1.93-1.406-3.776-2.9798-5.517-4.7214z" fill="#fff3c7" stroke="#083156" stroke-width="1.8"/><circle cx="42.5491" cy="42.5491" fill="#fff3c7" r="42.5491" stroke="#083156" stroke-width="1.8" transform="matrix(-.707107 -.707107 -.707107 .707107 195.283 58.9781)"/><circle cx="35.0843" cy="35.0843" fill="#fffaed" r="35.0843" transform="matrix(-.707107 -.707107 -.707107 .707107 184.725 58.9781)"/><g mask="url(#b)"><g opacity=".9"><path clip-rule="evenodd" d="m131.455 58.8059c0 12.5926-10.206 22.8012-22.8 22.8012-12.5904 0-22.7995-10.2086-22.7995-22.8012 0-12.5925 10.2091-22.7988 22.7995-22.7988 12.594 0 22.8 10.2063 22.8 22.7988z" fill="#ffd9ab" fill-rule="evenodd"/><path d="m101.623 57.6111c-.204-.2043-.449-.3673-.72-.4794-.27-.1121-.561-.1711-.855-.1735-.2944-.0025-.5863.0516-.8587.1591-.2725.1076-.52.2664-.7281.4673-.2081.2008-.3727.4397-.4842.7025-.1114.2629-.1675.5446-.1649.8286.0026.2841.0637.5647.1799.8257.1161.261.285.497.4967.6943l5.8963 5.6878c.416.401.979.6263 1.567.6263s1.151-.2253 1.567-.6263l12.471-12.0344c.404-.4034.627-.9437.622-1.5046-.005-.5608-.238-1.0973-.649-1.4939s-.967-.6216-1.548-.6265c-.582-.0048-1.141.2108-1.559.6004l-10.906 10.522z" fill="#3c5d87"/><g fill="#ffd9ab"><rect height="4.88571" rx="2.44286" width="130.286" x="142.599" y="44.1499"/><rect height="4.88571" rx="2.44286" width="169.371" x="142.599" y="57.1786"/><rect height="4.88571" rx="2.44286" width="146.571" x="142.599" y="70.207"/></g></g><g fill="#fff" opacity=".7"><path d="m109.374 33.8547 9.501-9.501 27.447 27.4475c2.624 2.6237 2.624 6.8774 0 9.5011-2.623 2.6236-6.877 2.6236-9.501 0z"/><path d="m100.415 42.0665 4.75-4.7505 40.38 40.3796c1.311 1.3118 1.311 3.4387 0 4.7505-1.312 1.3118-3.439 1.3118-4.751 0z"/></g></g><circle cx="35.0843" cy="35.0843" r="35.0843" stroke="#083156" stroke-width="1.8" transform="matrix(-.707107 -.707107 -.707107 .707107 184.725 58.9781)"/><circle cx="38.0702" cy="38.0702" r="38.0702" stroke="#ffe091" stroke-width="1.24983" transform="matrix(-.707107 -.707107 -.707107 .707107 188.949 58.9781)"/><rect fill="#fff" height="54.4927" rx="4.47885" stroke="#083156" stroke-width="1.24983" transform="matrix(-.707107 -.707107 -.707107 .707107 99.7446 103.845)" width="13.4366"/><rect fill="#fff3c7" height="54.4927" rx="4.47885" stroke="#083156" stroke-width="1.8" transform="matrix(-.707107 -.707107 -.707107 .707107 99.7446 103.845)" width="13.4366"/><path d="m0 0h13.4366v45.535h-13.4366z" fill="#ffd9ab" stroke="#083156" stroke-linejoin="round" stroke-width="1.8" transform="matrix(-.707107 -.707107 -.707107 .707107 96.5781 107.011)"/><path d="m93.6602 111.998-27.9929 27.993" opacity=".13" stroke="#083156" stroke-linecap="round" stroke-width="11.1971"/><path d="m157.382 35.0118c-12.464-12.464-32.672-12.464-45.136 0-1.87 1.8702-3.46 3.9148-4.769 6.0813" opacity=".13" stroke="#083156" stroke-linecap="round" stroke-width="8.9577"/></svg>