<svg width="152" height="80" viewBox="0 0 152 80" fill="none" xmlns="http://www.w3.org/2000/svg"><g clip-path="url(#clip0_5242_10097)"><g clip-path="url(#clip1_5242_10097)"><path fill-rule="evenodd" clip-rule="evenodd" d="M124.734 24.6666C125.158 24.6666 125.573 24.7926 125.925 25.0284C126.277 25.2643 126.552 25.5995 126.713 25.9914C126.874 26.3833 126.916 26.8144 126.832 27.2298C126.747 27.6453 126.542 28.0265 126.241 28.3249C125.94 28.6234 125.557 28.8258 125.141 28.9063C124.725 28.9868 124.294 28.942 123.903 28.7773C123.513 28.6127 123.18 28.3358 122.948 27.9817C122.715 27.6275 122.592 27.2122 122.596 26.7884C122.603 26.2247 122.83 25.6864 123.231 25.2895C123.631 24.8926 124.171 24.6689 124.734 24.6666ZM145.151 47.2661C145.054 48.1993 144.622 48.8155 142.844 49.2997C141.444 49.7487 141.62 50.4794 143.029 50.5323C145.814 50.0496 148.66 50.0229 151.454 50.453C152.801 50.453 152.572 49.5726 151.736 49.1852C149.737 48.4193 149.42 48.4017 149.015 46.4385L148.865 26.6387C148.865 25.503 149.306 24.1736 148.073 24.473C145.793 25.3533 145.6 25.4502 143.522 26.1545C142.43 26.6211 142.844 27.1493 143.637 27.4046C144.036 27.5332 144.38 27.7945 144.61 28.1452C144.841 28.4959 144.944 28.9149 144.905 29.3326L145.151 47.2661ZM133.398 47.1163C133.309 48.0495 132.869 48.6659 131.1 49.15C129.701 49.5991 129.867 50.3298 131.285 50.3825C134.07 49.9026 136.916 49.8787 139.71 50.3121C141.048 50.3121 140.828 49.4318 139.992 49.0356C137.993 48.2697 137.667 48.252 137.271 46.2975L137.139 26.533C137.139 25.3885 137.579 24.068 136.347 24.3673C134.066 25.2477 133.873 25.3357 131.795 26.04C130.695 26.5066 131.118 27.0349 131.91 27.299C132.308 27.4261 132.65 27.6861 132.879 28.0355C133.109 28.3849 133.211 28.8025 133.169 29.2182L133.398 47.1163ZM122.693 39.325C122.596 38.3214 122.463 37.5642 121.292 37.1944C120.465 37.124 120.069 36.3757 121.292 35.9267C122.984 35.54 124.55 34.7314 125.845 33.5761C126.407 33.2767 127.076 33.5145 126.724 34.5269C126.629 35.1978 126.58 35.8742 126.575 36.5518V46.861C126.671 48.5426 127.992 48.8155 128.838 49.15C129.683 49.4846 129.77 50.4794 128.767 50.497C125.061 49.9952 124.251 49.9424 120.685 50.6467C119.488 50.6467 119.233 49.7663 120.685 49.2469C122.138 48.7274 122.649 48.4809 122.728 47.2307V39.4042L122.693 39.325ZM89.925 37.4321C90.7614 28.6284 96.4662 24.9484 104.486 24.2969C112.947 24.3585 114.171 24.9131 114.047 29.5792C114.1 31.2607 112.965 31.648 112.172 29.7464C111.821 28.916 111.3 28.1677 110.644 27.5493C109.987 26.9309 109.21 26.4559 108.36 26.1545C101.044 24.5698 95.6651 29.2006 95.3481 37.08C94.8815 48.1993 107.418 51.4478 110.024 47.3013C110.57 46.2184 110.57 43.3396 110.491 40.9712C110.041 39.3954 108.527 39.5451 107.057 39.4922C105.472 39.6067 104.9 37.8283 107.057 37.846C110.765 37.955 114.478 37.8638 118.176 37.573C119.69 37.6258 119.805 38.9904 117.956 39.1929C117.155 39.3426 115.482 39.325 115.254 40.6279C115.059 47.3892 116.653 48.0495 111.494 49.8984C104.917 51.4303 97.8396 50.7171 93.8339 46.8874C92.559 45.6712 91.5527 44.2016 90.8795 42.5732C90.2063 40.9448 89.8811 39.1936 89.925 37.4321ZM72.9516 41.975C73.6822 34.6502 79.8272 32.9334 82.9789 32.9158C86.7205 33.0303 87.909 34.2451 87.9442 35.4778C87.9851 35.7173 87.9645 35.9633 87.8843 36.1928C87.8041 36.4222 87.6668 36.6275 87.4856 36.7894C87.3044 36.9514 87.0849 37.0646 86.8479 37.1184C86.611 37.1724 86.3641 37.1652 86.1307 37.0976C84.0706 36.5782 84.4668 34.4565 81.7288 34.2628C78.6388 34.7117 76.7636 38.1453 77.3269 42.2566C77.8904 46.3681 81.8785 49.4318 86.7909 46.9226C87.9794 46.6674 88.0763 47.6358 87.1079 48.3049C78.0841 53.7985 72.6082 45.9719 73.022 41.975H72.9516ZM45.079 29.6496C44.8854 27.1317 44.0931 27.8888 42.1475 27.1317C40.5804 26.8324 40.4483 25.7143 41.9977 25.6527C44.1649 25.9013 46.3554 25.8628 48.5125 25.5382C48.9634 25.5775 49.3905 25.7576 49.7334 26.0531C50.0763 26.3485 50.3175 26.7444 50.4229 27.1845C52.3685 31.2519 55.1945 37.3617 57.1401 41.4379C57.4834 42.1598 57.6684 42.3183 58.1085 41.3763L63.8486 26.8676C64.4912 25.6351 65.1867 25.3357 67.194 25.5206C69.198 25.6056 71.2056 25.532 73.198 25.3005C74.6331 25.3533 74.5714 26.4714 73.1188 26.8676C70.8915 26.8676 69.7206 27.6335 69.3773 29.271L69.703 45.9367C70.0639 48.4193 71.3668 48.4986 73.7086 49.0884C74.7651 49.5638 74.5362 50.2857 73.6294 50.5323C69.8346 49.9957 65.9843 49.9779 62.1847 50.4794C60.7849 50.6027 60.6968 49.4141 62.1847 49.0884C63.9453 48.7011 64.4384 48.3841 64.8258 47.4509L64.4736 31.384C64.4119 30.7501 64.0158 30.7501 63.7693 31.4984L56.9376 48.4369C56.295 49.8807 56.0573 49.8807 55.3089 48.7538L47.2095 31.4015C46.9631 30.8029 46.6638 30.9966 46.6285 31.4015L46.699 46.7202C46.9279 48.4809 48.1692 48.6042 50.7047 49.3613C51.4177 49.5902 51.4617 50.1801 50.8719 50.5586C47.4398 50.1135 43.9611 50.1699 40.5452 50.7259C39.8232 50.7259 39.4887 49.6783 40.5979 49.5286C43.0366 48.8419 43.6969 48.8067 44.0579 47.4157L45.079 29.6848V29.6496Z" fill="#8C96A1" style="fill:#8C96A1;fill:color(display-p3 0.5490 0.5882 0.6314);fill-opacity:1;"/><path fill-rule="evenodd" clip-rule="evenodd" d="M3.02547 37.7047C1.74893 33.2235 2.49725 29.0769 2.49725 24.0675C7.03115 21.8402 11.521 21.6377 16.3806 21.6377C20.5888 21.6377 26.5489 22.1747 30.1409 24.0587C30.5106 28.7864 30.7219 32.9418 29.4981 38.3121C27.6519 45.8247 23.0195 52.3548 16.5391 56.58C7.67382 50.8224 4.7686 43.8585 3.02547 37.7047Z" fill="white" style="fill:white;fill-opacity:1;"/><path fill-rule="evenodd" clip-rule="evenodd" d="M2.93547 24.3458C2.92929 25.5084 2.88538 26.6237 2.83883 27.7022C2.83316 27.8335 2.82746 27.9642 2.82178 28.0944C2.77699 29.1205 2.73371 30.1125 2.72159 31.0913C2.69434 33.2936 2.82578 35.403 3.44759 37.5858C5.15866 43.6265 7.98216 50.408 16.5372 56.0551C22.7975 51.8877 27.2712 45.5221 29.0686 38.2124C30.255 33.0034 30.0764 28.9542 29.7199 24.3405C28.0121 23.4933 25.771 22.9306 23.4253 22.5788C20.9866 22.2129 18.4669 22.0796 16.3794 22.0796C11.6153 22.0796 7.2882 22.2777 2.93547 24.3458ZM2.30194 23.6742C6.9341 21.3985 11.5139 21.1992 16.3794 21.1992C18.5002 21.1992 21.0647 21.3344 23.556 21.7081C26.0405 22.0808 28.4845 22.6953 30.3441 23.6706L30.5595 23.7836L30.5785 24.0261C30.9491 28.764 31.1652 32.974 29.9261 38.4117L29.9245 38.4189C28.0516 46.04 23.3522 52.6643 16.7783 56.9505L16.5384 57.1069L16.2981 56.9509C7.31054 51.1138 4.36011 44.0374 2.60084 37.8267C1.94617 35.5285 1.81352 33.324 1.84129 31.0804C1.85359 30.0869 1.89752 29.0804 1.94224 28.0561C1.94792 27.9258 1.95363 27.7952 1.95928 27.6642C2.00946 26.5016 2.05585 25.3113 2.05585 24.0693V23.7951L2.30194 23.6742Z" fill="#8C96A1" style="fill:#8C96A1;fill:color(display-p3 0.5490 0.5882 0.6314);fill-opacity:1;"/><path fill-rule="evenodd" clip-rule="evenodd" d="M7.26457 31.1377L2.60742 36.3056C3.46516 40.4599 5.1376 44.4031 7.52812 47.9074C9.91864 51.4115 12.9799 54.4073 16.5348 56.7216C26.3598 50.0219 29.3883 40.7075 29.9781 36.1295L25.3386 31.1201L20.6286 35.8478L16.2884 31.1641L11.9658 35.7861L7.26457 31.1377Z" fill="#8C96A1" style="fill:#8C96A1;fill:color(display-p3 0.5490 0.5882 0.6314);fill-opacity:1;"/><path fill-rule="evenodd" clip-rule="evenodd" d="M7.23507 28.0161C8.04114 27.9825 8.84659 28.0958 9.61206 28.3507C10.0046 27.6693 10.3403 26.9567 10.6157 26.2201C10.3252 26.1145 10.0522 26.4931 9.9378 26.5195C9.7265 26.2025 9.52402 26.2025 9.41838 26.2201C9.31274 26.2378 9.33915 26.3258 9.41838 26.3522C10.5188 27.2326 8.89015 28.1834 8.60844 27.2326C7.20865 27.347 7.56961 26.2289 7.93055 26.0881C8.2915 25.9472 7.93055 25.9824 7.93055 25.956C7.93055 25.9296 7.66645 25.956 7.64004 25.956C7.64004 25.4102 7.59601 24.9876 7.26147 24.8027C6.90053 25.1021 6.8477 25.4894 6.8477 26.0353C6.8477 25.9824 6.66282 25.9824 6.57478 25.9824C6.48675 25.9824 6.31067 26.0441 6.57478 26.1145C6.8389 26.1849 7.29669 27.3646 5.8969 27.2502C5.61518 28.1746 3.9865 27.2502 5.08696 26.3698C5.15739 26.3698 5.25423 26.2906 5.08696 26.2378C4.91969 26.1849 4.77883 26.2378 4.56754 26.5459C4.4531 26.5459 4.18018 26.1321 3.88086 26.2378C4.14501 26.9689 4.47197 27.6759 4.85807 28.3507C5.62419 28.0986 6.42914 27.9853 7.23507 28.0161ZM7.23507 29.187C7.84275 29.1789 8.44905 29.247 9.03982 29.3895C9.16307 29.143 9.37436 28.7204 9.4888 28.5532C8.76177 28.317 7.99904 28.2097 7.23507 28.2362C6.47108 28.2097 5.70835 28.317 4.98132 28.5532C5.08696 28.7292 5.30705 29.143 5.4215 29.4335C6.01481 29.2876 6.62409 29.2166 7.23507 29.2222V29.187ZM8.5116 27.4879L8.83734 27.9633L8.08902 27.8929L8.5116 27.4879ZM8.06261 28.4739C8.00967 28.4722 7.95742 28.4864 7.91267 28.5148C7.8679 28.5431 7.8327 28.5842 7.81164 28.6328C7.79056 28.6814 7.7846 28.7353 7.7945 28.7873C7.8044 28.8393 7.82974 28.8872 7.86719 28.9246C7.90466 28.9621 7.95251 28.9874 8.00455 28.9974C8.05659 29.0073 8.11041 29.0013 8.159 28.9802C8.20761 28.9591 8.24875 28.9239 8.27709 28.8792C8.30543 28.8344 8.31965 28.7822 8.31791 28.7292C8.31572 28.6622 8.28811 28.5985 8.2407 28.5511C8.19329 28.5037 8.12963 28.4761 8.06261 28.4739ZM8.85494 28.6412C8.8066 28.6429 8.75984 28.6588 8.72047 28.6869C8.68111 28.7151 8.65089 28.7541 8.63357 28.7993C8.61626 28.8445 8.61262 28.8937 8.6231 28.941C8.63358 28.9882 8.65773 29.0313 8.69252 29.0649C8.72732 29.0985 8.77124 29.1211 8.81881 29.1299C8.86636 29.1387 8.91547 29.1334 8.96 29.1145C9.00453 29.0956 9.04252 29.064 9.06924 29.0237C9.09595 28.9834 9.11022 28.9361 9.11025 28.8877C9.11275 28.8531 9.10793 28.8184 9.0961 28.7858C9.08428 28.7532 9.06571 28.7235 9.04162 28.6986C9.01753 28.6737 8.98845 28.6541 8.95628 28.6412C8.92412 28.6283 8.88958 28.6223 8.85494 28.6236V28.6412ZM7.23507 29.8561C6.24024 29.8561 5.47432 29.7593 5.47432 29.6448C5.47432 29.5304 6.21383 29.3983 7.23507 29.3983C8.25629 29.3983 8.9958 29.5216 8.9958 29.636C8.9958 29.7505 8.25629 29.8561 7.23507 29.8561ZM7.23507 28.4299C7.30361 28.4299 7.36949 28.4565 7.41877 28.5041C7.46806 28.5518 7.49688 28.6167 7.49918 28.6852C7.50622 28.7233 7.50479 28.7625 7.495 28.8C7.4852 28.8375 7.46727 28.8724 7.44248 28.9022C7.4177 28.9319 7.38667 28.9559 7.35158 28.9724C7.31649 28.9888 7.27822 28.9973 7.23947 28.9973C7.20072 28.9973 7.16243 28.9888 7.12735 28.9724C7.09226 28.9559 7.06122 28.9319 7.03644 28.9022C7.01165 28.8724 6.99373 28.8375 6.98393 28.8C6.97414 28.7625 6.97271 28.7233 6.97975 28.6852C6.98196 28.6182 7.00956 28.5545 7.05697 28.5071C7.10438 28.4597 7.16805 28.4321 7.23507 28.4299ZM6.43393 28.4739C6.48687 28.4722 6.53912 28.4864 6.58387 28.5148C6.62864 28.5431 6.66384 28.5842 6.6849 28.6328C6.70598 28.6814 6.71194 28.7353 6.70204 28.7873C6.69213 28.8393 6.6668 28.8872 6.62934 28.9246C6.59188 28.9621 6.54402 28.9874 6.49199 28.9974C6.43995 29.0073 6.38613 29.0013 6.33753 28.9802C6.28893 28.9591 6.24779 28.9239 6.21945 28.8792C6.19111 28.8344 6.17689 28.7822 6.17862 28.7292C6.18082 28.6622 6.20843 28.5985 6.25583 28.5511C6.30324 28.5037 6.36692 28.4761 6.43393 28.4739ZM5.64159 28.6412C5.70698 28.6412 5.76967 28.6672 5.8159 28.7134C5.86213 28.7596 5.8881 28.8223 5.8881 28.8877C5.8881 28.9531 5.86213 29.0158 5.8159 29.062C5.76967 29.1082 5.70698 29.1342 5.64159 29.1342C5.57622 29.1342 5.51352 29.1082 5.46729 29.062C5.42106 29.0158 5.39509 28.9531 5.39509 28.8877C5.39509 28.8223 5.42106 28.7596 5.46729 28.7134C5.51352 28.6672 5.57622 28.6412 5.64159 28.6412ZM7.23507 26.9685L7.77209 27.8489H6.70685L7.22626 26.9685H7.23507ZM5.96734 27.4879L5.6328 27.9633L6.3811 27.8929L5.96734 27.4879Z" fill="#8C96A1" style="fill:#8C96A1;fill:color(display-p3 0.5490 0.5882 0.6314);fill-opacity:1;"/><path fill-rule="evenodd" clip-rule="evenodd" d="M25.3453 28.0161C26.1514 27.9811 26.9571 28.0945 27.7223 28.3507C28.1215 27.6715 28.4603 26.9586 28.7347 26.2201C28.4354 26.1145 28.1713 26.4931 28.048 26.5195C27.8368 26.2025 27.6343 26.2025 27.5374 26.2201C27.4406 26.2378 27.4581 26.3258 27.5374 26.3522C28.629 27.2326 27.0092 28.1834 26.7274 27.2326C25.3188 27.347 25.6886 26.2289 26.0496 26.0881C26.4105 25.9472 26.0496 25.9824 26.0496 25.956C26.0496 25.9296 25.7854 25.956 25.7679 25.956C25.7679 25.4102 25.7238 24.9876 25.3893 24.8027C25.0547 24.9876 24.9932 25.419 25.0195 25.9648C25.0195 25.8856 24.8259 25.9032 24.7378 25.9648C24.6498 26.0265 24.4649 26.0265 24.7378 26.0969C25.0107 26.1673 25.4686 27.347 24.06 27.2326C23.7782 28.157 22.1496 27.2326 23.2501 26.3522C23.3205 26.3522 23.4173 26.273 23.2501 26.2201C23.0828 26.1673 22.9507 26.2201 22.7394 26.5283C22.6162 26.5283 22.3432 26.1145 22.0527 26.2201C22.3245 26.9582 22.6604 27.6711 23.0564 28.3507C23.7949 28.1102 24.5689 27.9971 25.3453 28.0161ZM25.3453 29.187C25.9559 29.1784 26.5651 29.2464 27.1588 29.3895C27.2821 29.143 27.4933 28.7204 27.6079 28.5532C26.8777 28.317 26.1121 28.2098 25.3453 28.2362C24.5813 28.2103 23.8187 28.3175 23.0916 28.5532C23.206 28.7292 23.4173 29.143 23.5405 29.4335C24.1166 29.2916 24.7079 29.2207 25.3013 29.2222L25.3453 29.187ZM26.6218 27.4879L26.9563 27.9633L26.2256 27.8929L26.6394 27.4879H26.6218ZM26.1816 28.4739C26.1435 28.4669 26.1043 28.4683 26.0668 28.4781C26.0293 28.4879 25.9945 28.5058 25.9647 28.5306C25.9349 28.5554 25.9109 28.5864 25.8945 28.6215C25.878 28.6566 25.8695 28.6949 25.8695 28.7336C25.8695 28.7724 25.878 28.8107 25.8945 28.8458C25.9109 28.8808 25.9349 28.9119 25.9647 28.9367C25.9945 28.9614 26.0293 28.9794 26.0668 28.9892C26.1043 28.999 26.1435 29.0004 26.1816 28.9933C26.2424 28.9821 26.2971 28.95 26.3366 28.9026C26.3761 28.8551 26.3978 28.7954 26.3978 28.7336C26.3978 28.6719 26.3761 28.6122 26.3366 28.5647C26.2971 28.5173 26.2424 28.4851 26.1816 28.4739ZM26.974 28.6412C26.9086 28.6412 26.8459 28.6672 26.7996 28.7134C26.7535 28.7596 26.7274 28.8223 26.7274 28.8877C26.7274 28.9531 26.7535 29.0158 26.7996 29.062C26.8459 29.1082 26.9086 29.1342 26.974 29.1342C27.0393 29.1342 27.1021 29.1082 27.1482 29.062C27.1945 29.0158 27.2204 28.9531 27.2204 28.8877C27.2204 28.8223 27.1945 28.7596 27.1482 28.7134C27.1021 28.6672 27.0393 28.6412 26.974 28.6412ZM25.3453 29.8561C24.3593 29.8561 23.5846 29.7593 23.5846 29.6448C23.5846 29.5304 24.3152 29.3983 25.3453 29.3983C26.3753 29.3983 27.106 29.5216 27.106 29.636C27.106 29.7505 26.3665 29.8561 25.3453 29.8561ZM25.3453 28.4299C25.413 28.4299 25.4779 28.4568 25.5258 28.5047C25.5737 28.5526 25.6006 28.6175 25.6006 28.6852C25.6006 28.7538 25.574 28.8196 25.5264 28.8689C25.4787 28.9182 25.4138 28.947 25.3453 28.9493C25.2774 28.945 25.2138 28.9155 25.1665 28.8667C25.1194 28.8178 25.092 28.7531 25.09 28.6852C25.0922 28.6182 25.1197 28.5545 25.1672 28.5071C25.2146 28.4597 25.2782 28.4321 25.3453 28.4299ZM24.5441 28.4739C24.6049 28.4851 24.6596 28.5173 24.6991 28.5647C24.7386 28.6122 24.7603 28.6719 24.7603 28.7336C24.7603 28.7954 24.7386 28.8551 24.6991 28.9026C24.6596 28.95 24.6049 28.9821 24.5441 28.9933C24.4835 28.9821 24.4286 28.95 24.3891 28.9026C24.3496 28.8551 24.3281 28.7954 24.3281 28.7336C24.3281 28.6719 24.3496 28.6122 24.3891 28.5647C24.4286 28.5173 24.4835 28.4851 24.5441 28.4739ZM23.743 28.6412C23.7918 28.6412 23.8394 28.6556 23.8799 28.6827C23.9205 28.7098 23.9521 28.7483 23.9708 28.7934C23.9895 28.8384 23.9942 28.888 23.9848 28.9358C23.9753 28.9836 23.9518 29.0275 23.9173 29.062C23.8828 29.0965 23.8389 29.12 23.7911 29.1295C23.7433 29.139 23.6937 29.1341 23.6487 29.1154C23.6036 29.0968 23.5651 29.0652 23.538 29.0247C23.511 28.9841 23.4965 28.9365 23.4965 28.8877C23.4965 28.8223 23.5225 28.7596 23.5687 28.7134C23.6149 28.6672 23.6777 28.6412 23.743 28.6412ZM25.3453 26.9685L25.8823 27.8489H24.817L25.3365 26.9685H25.3453ZM24.0952 27.4879L23.7606 27.9633L24.4649 27.8929L24.0511 27.4879H24.0952Z" fill="#8C96A1" style="fill:#8C96A1;fill:color(display-p3 0.5490 0.5882 0.6314);fill-opacity:1;"/><path fill-rule="evenodd" clip-rule="evenodd" d="M6.6947 39.8412C6.75633 39.6915 6.91479 39.2514 6.97642 39.1105C6.94955 39.0338 6.90277 38.9657 6.84089 38.9131C6.77901 38.8606 6.70424 38.8254 6.62426 38.8112C6.6947 38.6704 6.9412 38.4854 6.89718 38.3534C6.85317 38.2213 6.72991 38.239 6.47461 38.098C6.51432 38.0252 6.56832 37.9613 6.63337 37.9098C6.69841 37.8583 6.77317 37.8205 6.85317 37.7987C6.99402 37.7987 6.99402 37.5698 7.24053 37.4377C7.49116 37.3133 7.77254 37.2644 8.05047 37.2969C8.24952 37.2994 8.44526 37.3481 8.62229 37.4391C8.7993 37.5302 8.95276 37.6612 9.07056 37.8215C9.18834 37.982 9.26726 38.1677 9.30106 38.3638C9.33488 38.56 9.32266 38.7614 9.26538 38.952C9.93446 40.2814 12.2586 38.5119 13.0774 38.5119C12.9277 38.8112 12.6988 39.1105 12.5579 39.3922C12.7781 39.5419 13.0774 39.3922 13.3063 39.3922C13.1179 39.939 12.7482 40.405 12.2586 40.7128C12.6372 41.8925 14.0194 41.4348 15.2431 41.2938C15.0934 41.6988 14.574 41.7341 14.3627 42.0334C14.835 42.5165 15.2352 43.065 15.5512 43.662C14.8802 43.3072 14.179 43.0127 13.4559 42.7817C12.4836 42.4824 11.4438 42.4824 10.4715 42.7817C10.6394 43.0364 10.8738 43.2404 11.1494 43.3716C10.7708 44.1111 10.0225 43.6709 9.5735 43.5212C9.39138 43.6498 9.18002 43.7309 8.95863 43.757C8.73724 43.7831 8.51283 43.7535 8.30577 43.6709C8.31404 43.5995 8.33809 43.5309 8.37615 43.47C8.41422 43.4091 8.46536 43.3574 8.52587 43.3187C8.67553 43.1075 8.07688 43.0722 7.92722 42.7817C7.92722 42.5088 8.21774 42.7817 8.38501 42.4824C8.00645 41.7429 6.43939 41.602 6.66829 39.8412H6.6947ZM7.73353 37.7371C7.77323 37.7371 7.81129 37.7529 7.83936 37.7809C7.86743 37.809 7.8832 37.8471 7.8832 37.8868C7.8832 37.9265 7.86743 37.9646 7.83936 37.9926C7.81129 38.0206 7.77323 38.0364 7.73353 38.0364C7.69385 38.0364 7.65577 38.0206 7.62771 37.9926C7.59964 37.9646 7.58387 37.9265 7.58387 37.8868C7.58387 37.8471 7.59964 37.809 7.62771 37.7809C7.65577 37.7529 7.69385 37.7371 7.73353 37.7371Z" fill="white" style="fill:white;fill-opacity:1;"/><path fill-rule="evenodd" clip-rule="evenodd" d="M17.2455 40.0755C17.3159 39.9347 17.4744 39.4944 17.536 39.3448C17.5077 39.2691 17.4604 39.2019 17.3987 39.1494C17.3372 39.0971 17.2632 39.0612 17.1839 39.0455C17.2455 38.9046 17.5008 38.7197 17.448 38.5877C17.3951 38.4556 17.2895 38.4733 17.0254 38.3412C17.069 38.262 17.1293 38.1933 17.2024 38.14C17.2754 38.0868 17.3592 38.0502 17.448 38.033C17.5888 38.033 17.5888 37.8042 17.8265 37.6809C18.0784 37.5502 18.3636 37.4981 18.6453 37.5312C18.8447 37.5351 19.0405 37.585 19.2175 37.6771C19.3944 37.7692 19.5476 37.9009 19.6653 38.062C19.7829 38.2231 19.8617 38.4091 19.8955 38.6057C19.9293 38.8023 19.9173 39.004 19.8602 39.1951C20.5293 40.5157 22.8446 38.7549 23.6722 38.7549C23.5137 39.0455 23.2937 39.3448 23.144 39.6354C23.3729 39.785 23.6722 39.6354 23.9011 39.6354C23.7124 40.1845 23.339 40.6513 22.8446 40.9559C23.2233 42.1356 24.6054 41.6866 25.8379 41.5458C25.6882 41.9507 25.1689 41.9859 24.9575 42.2853C25.4291 42.7656 25.8294 43.3112 26.146 43.9052C25.475 43.5504 24.7739 43.2558 24.0507 43.0248C23.0738 42.7362 22.0344 42.7362 21.0575 43.0248C21.2282 43.2805 21.4657 43.4845 21.7442 43.6146C21.3569 44.3541 20.6174 43.914 20.1683 43.7644C19.9856 43.8951 19.7726 43.9775 19.5493 44.0036C19.3261 44.0299 19.0999 43.999 18.8918 43.914C18.9011 43.8419 18.9264 43.7727 18.9661 43.7118C19.0057 43.6508 19.0586 43.5996 19.1207 43.5618C19.2703 43.3593 18.6717 43.3153 18.5133 43.0248C18.5133 42.7606 18.8037 43.0248 18.971 42.7343C18.5925 41.9947 17.0342 41.8539 17.2103 40.0931L17.2455 40.0755ZM18.2931 37.9538C18.3328 37.9538 18.3709 37.9696 18.399 37.9977C18.4271 38.0257 18.4428 38.0638 18.4428 38.1035C18.4441 38.1235 18.4412 38.1435 18.4341 38.1623C18.427 38.181 18.416 38.198 18.4019 38.2121C18.3877 38.2263 18.3706 38.2373 18.3519 38.2443C18.3331 38.2514 18.3132 38.2544 18.2931 38.2531C18.2735 38.2531 18.254 38.2492 18.2359 38.2418C18.2177 38.2342 18.2012 38.2232 18.1873 38.2093C18.1734 38.1954 18.1624 38.1789 18.1549 38.1608C18.1473 38.1426 18.1435 38.1232 18.1435 38.1035C18.1456 38.0644 18.1621 38.0276 18.1897 38C18.2173 37.9723 18.2541 37.9559 18.2931 37.9538Z" fill="white" style="fill:white;fill-opacity:1;"/><path fill-rule="evenodd" clip-rule="evenodd" d="M12.1908 47.4467C12.2525 47.3058 12.4109 46.8656 12.4813 46.716C12.4501 46.6405 12.4009 46.5738 12.338 46.5216C12.275 46.4694 12.2004 46.4333 12.1204 46.4167C12.1908 46.2757 12.4373 46.0909 12.3933 45.9588C12.3492 45.8268 12.226 45.8444 11.9707 45.7124C12.0129 45.6338 12.0717 45.5655 12.1433 45.5122C12.2148 45.4589 12.2972 45.422 12.3845 45.4042C12.5254 45.4042 12.5254 45.1753 12.7718 45.0432C13.0225 44.9188 13.3039 44.8698 13.5818 44.9024C13.779 44.9102 13.9717 44.963 14.1453 45.0568C14.319 45.1505 14.4688 45.2828 14.5835 45.4433C14.6982 45.6039 14.7746 45.7885 14.807 45.9832C14.8394 46.1778 14.8269 46.3773 14.7703 46.5663C15.4394 47.8869 17.7635 46.1261 18.5823 46.1261C18.4326 46.4167 18.2038 46.716 18.0628 47.0064C18.283 47.1562 18.5823 47.0064 18.8112 47.0064C18.6254 47.5546 18.255 48.0214 17.7635 48.3271C18.1421 49.5068 19.5243 49.049 20.748 48.9169C20.5983 49.3219 20.079 49.3571 19.8676 49.6564C20.3417 50.1347 20.7422 50.6806 21.0561 51.2764C20.3879 50.9157 19.6862 50.6209 18.9608 50.3959C17.9885 50.0966 16.9487 50.0966 15.9764 50.3959C16.1446 50.6484 16.3791 50.8495 16.6543 50.977C16.2757 51.7165 15.5274 51.2764 15.0784 51.1354C14.8959 51.2634 14.6841 51.3433 14.4626 51.3679C14.2411 51.3925 14.0168 51.3611 13.8107 51.2764C13.819 51.205 13.843 51.1363 13.8811 51.0755C13.9191 51.0145 13.9703 50.9629 14.0308 50.9242C14.1892 50.7217 13.5818 50.6777 13.4321 50.3959C13.4321 50.123 13.7227 50.3959 13.89 50.0966C13.5113 49.3571 11.9443 49.2163 12.1732 47.4555L12.1908 47.4467ZM13.2384 45.3514C13.2758 45.3514 13.3117 45.3663 13.3381 45.3926C13.3644 45.419 13.3793 45.4548 13.3793 45.4922C13.3793 45.5296 13.3644 45.5655 13.3381 45.5919C13.3117 45.6182 13.2758 45.6331 13.2384 45.6331C13.2011 45.6331 13.1652 45.6182 13.1388 45.5919C13.1125 45.5655 13.0976 45.5296 13.0976 45.4922C13.0976 45.4548 13.1125 45.419 13.1388 45.3926C13.1652 45.3663 13.2011 45.3514 13.2384 45.3514Z" fill="white" style="fill:white;fill-opacity:1;"/><path fill-rule="evenodd" clip-rule="evenodd" d="M16.3744 29.349C16.1631 29.5427 16.0839 29.6131 16.1279 29.798H16.6649C16.6649 29.5955 16.6121 29.5074 16.3744 29.349ZM19.4469 23.5561C19.0442 23.709 18.5994 23.709 18.1967 23.5561C17.9374 23.4162 17.6528 23.3293 17.3596 23.3006C17.0663 23.2719 16.7704 23.3019 16.4888 23.3888V29.0496C16.9668 28.8776 17.4898 28.8776 17.9678 29.0496C18.4486 29.1886 18.9552 29.2127 19.4469 29.1201V23.5561ZM19.6317 23.5561L20.1336 24.0227V29.6307L19.6317 29.1729V23.5561ZM20.0631 29.7804L19.5349 29.3314C18.9948 29.4159 18.4429 29.3859 17.9151 29.2433C17.2548 29.1113 16.9819 29.032 16.5417 29.2433C16.6511 29.2926 16.7445 29.3714 16.8114 29.471C16.8783 29.5706 16.916 29.6869 16.9202 29.8068L20.0631 29.7804ZM12.8001 29.7804L13.3195 29.3226C13.8597 29.4074 14.4116 29.3773 14.9394 29.2345C15.6085 29.1113 15.8814 29.0232 16.3128 29.2345C16.2038 29.2809 16.1107 29.3581 16.045 29.4566C15.9793 29.5551 15.9438 29.6707 15.943 29.7892L12.8001 29.7804ZM13.1434 23.6177L12.6504 24.0843V29.6923L13.1434 29.2345V23.6001V23.6177ZM13.3371 23.6177C13.7424 23.7728 14.1907 23.7728 14.5961 23.6177C14.8553 23.4778 15.1399 23.3909 15.4331 23.3622C15.7264 23.3335 16.0224 23.3635 16.304 23.4504V29.1113C15.8229 28.9393 15.2972 28.9393 14.8161 29.1113C14.3384 29.2498 13.8347 29.2739 13.3459 29.1817V23.5561L13.3371 23.6177Z" fill="#8C96A1" style="fill:#8C96A1;fill:color(display-p3 0.5490 0.5882 0.6314);fill-opacity:1;"/><path fill-rule="evenodd" clip-rule="evenodd" d="M16.7564 24.5937C16.7497 24.5459 16.7538 24.4972 16.7684 24.4511C16.7829 24.405 16.8075 24.3628 16.8404 24.3274C16.8732 24.292 16.9135 24.2643 16.9584 24.2465C17.0033 24.2286 17.0515 24.2209 17.0997 24.2239C17.1381 24.219 17.1771 24.2221 17.2143 24.233C17.2514 24.2438 17.2859 24.2622 17.3156 24.287C17.3455 24.3118 17.3697 24.3424 17.3871 24.377C17.4045 24.4116 17.4145 24.4494 17.4166 24.4881H17.267C17.2659 24.4687 17.2609 24.4498 17.2522 24.4325C17.2435 24.4152 17.2314 24.3999 17.2165 24.3875C17.2016 24.3751 17.1844 24.3659 17.1658 24.3605C17.1472 24.3551 17.1277 24.3535 17.1085 24.356C16.9941 24.356 16.906 24.4616 16.906 24.6201C16.906 24.7786 16.9764 24.8578 17.0909 24.8578C17.2053 24.8578 17.2582 24.8578 17.267 24.717H17.4078C17.4068 24.7567 17.3976 24.7958 17.3809 24.8318C17.3641 24.8679 17.3401 24.9001 17.3105 24.9265C17.2807 24.9529 17.2459 24.9729 17.2081 24.9854C17.1704 24.9978 17.1305 25.0023 17.0909 24.9987C16.8972 24.9987 16.7387 24.8578 16.7475 24.5849L16.7564 24.5937ZM17.4871 24.7258C17.4776 24.6731 17.4802 24.619 17.4948 24.5675C17.5094 24.5161 17.5354 24.4686 17.5711 24.4287C17.6067 24.3888 17.651 24.3576 17.7005 24.3374C17.75 24.3171 17.8035 24.3085 17.8569 24.312C17.9074 24.3101 17.9579 24.3194 18.0045 24.3393C18.0511 24.3592 18.0927 24.3891 18.1264 24.427C18.1601 24.4648 18.1849 24.5097 18.1992 24.5583C18.2134 24.6069 18.2168 24.6581 18.209 24.7081C18.209 24.8039 18.1709 24.8957 18.1032 24.9634C18.0356 25.0311 17.9437 25.0691 17.848 25.0691C17.7523 25.0691 17.6605 25.0311 17.5928 24.9634C17.5251 24.8957 17.4871 24.8039 17.4871 24.7081V24.7258ZM17.6367 24.6641C17.6367 24.805 17.6896 24.937 17.8569 24.937C18.0241 24.937 18.0505 24.8314 18.0505 24.6994C18.0505 24.5673 18.0505 24.4528 17.8569 24.4528C17.6632 24.4528 17.6632 24.4528 17.6367 24.6641ZM18.3674 25.1395V24.4H18.5171L18.8253 24.9018V24.4H18.9749V25.1043H18.8253L18.5259 24.6025V25.1043L18.3674 25.1395ZM17.4078 26.5393V25.7998H17.9361V25.9319H17.5663V26.108H17.8921V26.2312H17.5663V26.5393H17.4078ZM18.1121 26.6274V25.8791H18.2882V26.6274H18.1121ZM17.5486 28.0888H17.1878V27.3493H17.5399C17.9361 27.3493 17.8569 28.0536 17.5399 28.0888H17.5486ZM17.3374 27.9656H17.4871C17.6896 27.9656 17.7071 27.4813 17.4871 27.4813H17.3462V27.9656H17.3374ZM17.9537 27.8599C17.9462 27.8104 17.9492 27.76 17.9623 27.7117C17.9755 27.6634 17.9985 27.6184 18.0299 27.5795C18.0614 27.5405 18.1006 27.5086 18.145 27.4856C18.1895 27.4627 18.2383 27.4492 18.2882 27.4461C18.3391 27.4445 18.3898 27.4538 18.4368 27.4737C18.4837 27.4935 18.5257 27.5233 18.5601 27.5609C18.5945 27.5986 18.6202 27.6433 18.6356 27.6918C18.6509 27.7404 18.6555 27.7918 18.6491 27.8423C18.6491 27.938 18.6111 28.0298 18.5434 28.0975C18.4758 28.1652 18.3839 28.2033 18.2882 28.2033C18.1925 28.2033 18.1006 28.1652 18.033 28.0975C17.9653 28.0298 17.9273 27.938 17.9273 27.8423L17.9537 27.8599ZM18.1033 27.8071C18.1033 27.9392 18.1562 28.08 18.3146 28.08C18.4731 28.08 18.5171 27.9744 18.5171 27.8335C18.5171 27.6926 18.5171 27.587 18.3146 27.587C18.1121 27.587 18.121 27.587 18.1033 27.8071ZM14.1241 25.1043V24.3208H14.2825V25.1043H14.1241ZM14.4586 25.0163V24.2239H14.6083L14.9164 24.7258V24.2239H15.066V24.9635H14.9164L14.6171 24.4616V24.9635L14.4586 25.0163ZM13.8864 26.6274H13.5254V25.8791H13.8864C14.2825 25.9319 14.1945 26.5834 13.8864 26.6274ZM13.6751 26.4953H13.8864C14.0888 26.4953 14.1065 26.0199 13.8864 26.0199H13.7455V26.4953H13.6751ZM14.2385 26.1432C14.2323 26.0911 14.2372 26.0382 14.2529 25.9881C14.2687 25.938 14.2949 25.8919 14.3299 25.8528C14.3649 25.8136 14.4078 25.7824 14.4558 25.7611C14.5038 25.7398 14.5557 25.729 14.6083 25.7294C14.6589 25.7275 14.7093 25.7368 14.7559 25.7567C14.8025 25.7766 14.8441 25.8065 14.8778 25.8444C14.9114 25.8823 14.9364 25.9271 14.9506 25.9757C14.9649 26.0243 14.9683 26.0755 14.9604 26.1256C14.9604 26.2213 14.9224 26.3131 14.8547 26.3808C14.7869 26.4485 14.6952 26.4865 14.5994 26.4865C14.5038 26.4865 14.4119 26.4485 14.3442 26.3808C14.2766 26.3131 14.2385 26.2213 14.2385 26.1256V26.1432ZM14.3969 26.0903C14.3969 26.2224 14.441 26.3545 14.6083 26.3545C14.7756 26.3545 14.8108 26.2576 14.8108 26.1168C14.8108 25.9759 14.8108 25.8703 14.6083 25.8703C14.4057 25.8703 14.4146 25.8703 14.3969 26.0903ZM15.1012 26.4513V25.7118H15.3302L15.471 26.2664L15.6471 25.7118H15.8672V26.4513H15.7087V25.8615L15.5855 26.4513H15.4182L15.2949 25.8615V26.4513H15.1012ZM13.8864 28.2297V27.4902H14.0449V28.2297H13.8864ZM14.2209 28.1416V27.4021H14.3705L14.6787 27.8951V27.4021H14.8371V28.1416H14.6787L14.3794 27.6398V28.1416H14.2209ZM14.9868 27.7455C14.9792 27.6938 14.9828 27.6412 14.9975 27.5911C15.0122 27.541 15.0376 27.4947 15.0719 27.4553C15.1062 27.416 15.1486 27.3846 15.1963 27.3632C15.2439 27.3419 15.2955 27.3311 15.3478 27.3317C15.3989 27.3281 15.45 27.3363 15.4975 27.3556C15.5449 27.3749 15.5873 27.4049 15.6213 27.4431C15.6553 27.4814 15.6801 27.527 15.6937 27.5764C15.7074 27.6257 15.7095 27.6775 15.6999 27.7279C15.7081 27.7794 15.7049 27.832 15.6907 27.8822C15.6766 27.9324 15.6516 27.9789 15.6177 28.0186C15.5839 28.0582 15.5418 28.0901 15.4944 28.1119C15.4471 28.1337 15.3955 28.145 15.3434 28.145C15.2913 28.145 15.2397 28.1337 15.1923 28.1119C15.1449 28.0901 15.1028 28.0582 15.069 28.0186C15.0351 27.9789 15.0102 27.9324 14.996 27.8822C14.9818 27.832 14.9787 27.7794 14.9868 27.7279V27.7455ZM15.1364 27.6926C15.1364 27.8247 15.1893 27.9568 15.3478 27.9568C15.5062 27.9568 15.5503 27.8599 15.5503 27.7191C15.5503 27.5782 15.5503 27.4726 15.3478 27.4726C15.1453 27.4726 15.1541 27.4726 15.1364 27.6926Z" fill="white" style="fill:white;fill-opacity:1;"/></g></g><defs><clipPath id="clip0_5242_10097"><rect x="0.888672" y="0.000976562" width="151.111" height="80" rx="13.3333" fill="white" style="fill:white;fill-opacity:1;"/></clipPath><clipPath id="clip1_5242_10097"><rect width="150.613" height="35.9077" fill="white" style="fill:white;fill-opacity:1;" transform="translate(1.83789 21.1992)"/></clipPath></defs></svg>