<svg width="130" height="80" viewBox="0 0 130 80" fill="none" xmlns="http://www.w3.org/2000/svg"><g clip-path="url(#clip0_5242_10061)"><g clip-path="url(#clip1_5242_10061)"><path d="M56.4902 27.708H61.436L72.9203 42.6956V27.708H78.1471V52.1284H73.5572L61.7545 36.4851V52.1284H56.4902V27.708Z" fill="#8C96A1" style="fill:#8C96A1;fill:color(display-p3 0.5490 0.5882 0.6314);fill-opacity:1;"/><path d="M90.3378 42.555L80.9707 27.708H87.1905L93.0918 37.5998L98.9931 27.708H105.044L95.6772 42.3959V52.1284H90.1505V42.555H90.3378Z" fill="#8C96A1" style="fill:#8C96A1;fill:color(display-p3 0.5490 0.5882 0.6314);fill-opacity:1;"/><path d="M107.369 41.7442V27.6934H112.811V41.5849C112.811 45.5753 114.685 47.6549 118.066 47.6549C121.448 47.6549 123.33 45.7347 123.33 41.7442V27.6934H128.736V41.5849C128.736 48.9289 124.586 52.6008 118.048 52.6008C111.35 52.6008 107.369 48.9289 107.369 41.7442Z" fill="#8C96A1" style="fill:#8C96A1;fill:color(display-p3 0.5490 0.5882 0.6314);fill-opacity:1;"/><path d="M45.3722 61.6996H2.2832V18.6104H45.3722V61.6996ZM22.3758 56.5945C22.3758 56.913 23.0127 57.0722 23.172 56.5945L24.6052 44.6231H20.9426L22.3758 56.5945ZM25.8884 43.8269V42.0284H19.6686V43.7894L25.8884 43.8269ZM24.1274 41.0917C31.9397 41.4102 32.5579 34.2349 32.5579 31.5183C32.3987 32.1553 31.2746 34.0757 28.4083 35.3496C27.2383 35.8245 26.2209 36.6108 25.4663 37.623C24.7116 38.6352 24.2485 39.8349 24.1274 41.0917ZM23.3312 40.614C24.6052 34.7126 29.3918 34.5534 29.8883 33.4293C30.5252 31.6776 29.2513 28.4834 28.9516 28.1649H28.7923C28.193 29.5215 27.3117 30.7349 26.2069 31.7244C25.2702 32.5206 21.1018 35.7149 23.3312 40.6608V40.614ZM22.3945 40.9325C19.6874 35.3121 25.1017 31.6776 25.9072 30.8814C26.0664 30.7221 26.0664 30.7221 26.0664 30.5629C25.9441 28.8026 25.5029 27.0791 24.7644 25.4765H24.6052C24.1274 27.2282 21.7388 29.7854 21.2611 30.4224C17.1114 35.209 18.0669 38.2441 22.3758 40.9512L22.3945 40.9325ZM21.2611 41.0917C16.793 38.3846 17.2707 34.7126 19.1909 31.9961V31.7244C19.0132 30.7495 18.6299 29.8235 18.0669 29.008C18.0669 28.8487 17.9077 28.8487 17.9077 29.008C17.9077 29.8136 16.9709 31.7244 15.6783 33.804C14.4043 36.0334 14.4043 40.9793 21.2986 41.1385L21.2611 41.0917Z" fill="#8C96A1" style="fill:#8C96A1;fill:color(display-p3 0.5490 0.5882 0.6314);fill-opacity:1;"/></g></g><defs><clipPath id="clip0_5242_10061"><rect x="0.466797" y="0.000976562" width="128.889" height="80" rx="13.3333" fill="white" style="fill:white;fill-opacity:1;"/></clipPath><clipPath id="clip1_5242_10061"><rect width="126.874" height="43.0892" fill="white" style="fill:white;fill-opacity:1;" transform="translate(2.26758 18.6104)"/></clipPath></defs></svg>