<svg width="18" height="18" viewBox="0 0 18 18" fill="none" xmlns="http://www.w3.org/2000/svg"><path fill-rule="evenodd" clip-rule="evenodd" d="M18 4.15706C17.338 4.43808 16.6259 4.62812 15.8789 4.71372C16.6415 4.27604 17.2272 3.58371 17.5028 2.75841C16.7895 3.16325 15.9987 3.4572 15.1577 3.61601C14.4838 2.92907 13.5242 2.5 12.4622 2.5C10.4226 2.5 8.76939 4.08223 8.76939 6.03431C8.76939 6.31103 8.80201 6.58074 8.86502 6.8397C5.79545 6.69218 3.07463 5.28492 1.25325 3.14656C0.935443 3.66877 0.75319 4.27604 0.75319 4.92369C0.75319 6.14952 1.40512 7.23162 2.39569 7.86527C1.79044 7.84696 1.22119 7.68815 0.723376 7.42327C0.722814 7.43835 0.722814 7.45288 0.722814 7.46795C0.722814 9.18046 1.99575 10.6087 3.68551 10.9333C3.37557 11.0141 3.04932 11.0572 2.71238 11.0572C2.47444 11.0572 2.24325 11.0351 2.01769 10.9942C2.48738 12.3983 3.85144 13.4201 5.46751 13.4486C4.20357 14.3966 2.61113 14.9613 0.880873 14.9613C0.582752 14.9613 0.289126 14.9446 0 14.9124C1.63406 15.9148 3.57525 16.5 5.66101 16.5C12.4538 16.5 16.168 11.1142 16.168 6.444C16.168 6.29057 16.1646 6.13821 16.1573 5.9864C16.879 5.48842 17.505 4.86608 18 4.15706Z" fill="#8C96A1"/></svg>