<svg width="504" height="357" viewBox="0 0 504 357" fill="none" xmlns="http://www.w3.org/2000/svg"><g opacity="0.08"><rect x="0.0263672" y="162.756" width="175.434" height="175.434" rx="35.8878" transform="rotate(-10.2116 0.0263672 162.756)" fill="#FF9600" style="fill:#FF9600;fill:color(display-p3 1.0000 0.5882 0.0000);fill-opacity:1;"/><rect x="127.833" y="44.2534" width="21.0774" height="21.0774" rx="5.4366" transform="rotate(81.2798 127.833 44.2534)" fill="#FF9600" style="fill:#FF9600;fill:color(display-p3 1.0000 0.5882 0.0000);fill-opacity:1;"/><rect width="21.0774" height="21.0774" rx="5.4366" transform="matrix(-0.15161 0.98844 0.98844 0.15161 367.701 0.608398)" fill="#FF9600" style="fill:#FF9600;fill:color(display-p3 1.0000 0.5882 0.0000);fill-opacity:1;"/><rect x="50.1108" y="27.2872" width="15.5786" height="15.5786" rx="5.32216" transform="rotate(-73.6192 50.1108 27.2872)" fill="#FF9600" style="fill:#FF9600;fill:color(display-p3 1.0000 0.5882 0.0000);fill-opacity:1;"/><rect width="280.242" height="280.242" rx="32.8653" transform="matrix(-0.968362 -0.249548 -0.249548 0.968362 491.606 84.8942)" fill="#FF9600" style="fill:#FF9600;fill:color(display-p3 1.0000 0.5882 0.0000);fill-opacity:1;"/></g><rect opacity="0.18" x="84.6084" y="230.949" width="15.5231" height="71.6452" rx="4.48991" fill="#083156" style="fill:#083156;fill:color(display-p3 0.0314 0.1922 0.3373);fill-opacity:1;"/><rect opacity="0.18" x="430.894" y="233.338" width="15.5231" height="71.6452" rx="4.48991" fill="#083156" style="fill:#083156;fill:color(display-p3 0.0314 0.1922 0.3373);fill-opacity:1;"/><path d="M132.848 346.648C142.933 322.574 123.683 296.448 97.7029 298.949C78.2671 300.819 64.2503 318.424 66.7821 337.785L69.0141 354.853H129.41L132.848 346.648Z" fill="white" style="fill:white;fill-opacity:1;"/><path d="M122.305 334.824C128.439 315.412 112.38 296.184 92.1854 298.76C77.2164 300.671 66.4826 314.142 67.9638 329.159L70.4803 354.673H116.033L122.305 334.824Z" fill="#FFD9AB" style="fill:#FFD9AB;fill:color(display-p3 1.0000 0.8491 0.6720);fill-opacity:1;"/><path d="M132.465 345.316C142.694 321.374 123.591 295.204 97.6701 297.65V297.65C78.2784 299.48 64.2923 317.059 66.8672 336.366L69.0141 352.464H129.41L132.465 345.316Z" stroke="#083156" style="stroke:#083156;stroke:color(display-p3 0.0314 0.1922 0.3373);stroke-opacity:1;" stroke-width="2.24495" stroke-linecap="round"/><rect width="133.19" height="36.2529" transform="matrix(-1 0 0 1 345.875 122.218)" fill="#FFD9AB" stroke="#083156" style="fill:#FFD9AB;fill:color(display-p3 1.0000 0.8491 0.6720);fill-opacity:1;stroke:#083156;stroke:color(display-p3 0.0314 0.1922 0.3373);stroke-opacity:1;" stroke-width="2.24495" stroke-linecap="round" stroke-linejoin="round"/><rect width="16.0845" height="36.2529" transform="matrix(-1 0 0 1 346.724 122.215)" fill="white" style="fill:white;fill-opacity:1;"/><rect width="16.0844" height="36.2529" transform="matrix(-1 0 0 1 315.902 122.215)" fill="white" style="fill:white;fill-opacity:1;"/><rect width="16.0845" height="36.2529" transform="matrix(-1 0 0 1 287.412 122.215)" fill="white" style="fill:white;fill-opacity:1;"/><rect width="16.0844" height="36.2529" transform="matrix(-1 0 0 1 259.597 122.215)" fill="white" style="fill:white;fill-opacity:1;"/><rect width="16.0844" height="36.2529" transform="matrix(-1 0 0 1 228.771 122.215)" fill="white" style="fill:white;fill-opacity:1;"/><rect width="16.0844" height="36.2529" transform="matrix(-1 0 0 1 228.771 122.215)" stroke="#083156" style="stroke:#083156;stroke:color(display-p3 0.0314 0.1922 0.3373);stroke-opacity:1;" stroke-width="2.24495" stroke-linecap="round" stroke-linejoin="round"/><rect width="16.0844" height="36.2529" transform="matrix(-1 0 0 1 259.597 122.215)" stroke="#083156" style="stroke:#083156;stroke:color(display-p3 0.0314 0.1922 0.3373);stroke-opacity:1;" stroke-width="2.24495" stroke-linecap="round" stroke-linejoin="round"/><rect width="16.0844" height="36.2529" transform="matrix(-1 0 0 1 315.902 122.215)" stroke="#083156" style="stroke:#083156;stroke:color(display-p3 0.0314 0.1922 0.3373);stroke-opacity:1;" stroke-width="2.24495" stroke-linecap="round" stroke-linejoin="round"/><rect width="16.0845" height="36.2529" transform="matrix(-1 0 0 1 287.412 122.215)" stroke="#083156" style="stroke:#083156;stroke:color(display-p3 0.0314 0.1922 0.3373);stroke-opacity:1;" stroke-width="2.24495" stroke-linecap="round" stroke-linejoin="round"/><rect width="16.0845" height="36.2529" transform="matrix(-1 0 0 1 346.724 122.215)" stroke="#083156" style="stroke:#083156;stroke:color(display-p3 0.0314 0.1922 0.3373);stroke-opacity:1;" stroke-width="2.24495" stroke-linecap="round" stroke-linejoin="round"/><path d="M213.02 110.396H345.483C339.979 96.9983 318.78 70.2026 278.022 70.2026C237.264 70.2026 217.705 96.9983 213.02 110.396Z" fill="white" style="fill:white;fill-opacity:1;"/><path d="M212.687 110.396H339.276C334.015 96.9983 313.757 70.2026 274.806 70.2026C235.856 70.2026 217.164 96.9983 212.687 110.396Z" fill="#3C5D87" style="fill:#3C5D87;fill:color(display-p3 0.2353 0.3647 0.5294);fill-opacity:1;"/><path d="M213.02 110.396H345.483C339.979 96.9983 318.78 70.2026 278.022 70.2026C237.264 70.2026 217.705 96.9983 213.02 110.396Z" stroke="#083156" style="stroke:#083156;stroke:color(display-p3 0.0314 0.1922 0.3373);stroke-opacity:1;" stroke-width="2.24495" stroke-linecap="round" stroke-linejoin="round"/><rect width="147.376" height="11.8216" rx="2.24495" transform="matrix(-1 0 0 1 352.96 110.398)" fill="white" stroke="#083156" style="fill:white;fill-opacity:1;stroke:#083156;stroke:color(display-p3 0.0314 0.1922 0.3373);stroke-opacity:1;" stroke-width="2.24495" stroke-linecap="round" stroke-linejoin="round"/><path d="M289.51 41.8269L284.782 69.8047" stroke="#083156" style="stroke:#083156;stroke:color(display-p3 0.0314 0.1922 0.3373);stroke-opacity:1;" stroke-width="2.24495" stroke-linecap="round"/><path d="M261.995 49.0351L290.7 36.3134L285.972 59.1685L262.36 53.2655C259.73 52.6079 258.414 52.2792 258.346 51.481C258.277 50.6829 259.516 50.1336 261.995 49.0351Z" fill="#FFD9AB" stroke="#083156" style="fill:#FFD9AB;fill:color(display-p3 1.0000 0.8491 0.6720);fill-opacity:1;stroke:#083156;stroke:color(display-p3 0.0314 0.1922 0.3373);stroke-opacity:1;" stroke-width="2.24495" stroke-linecap="round" stroke-linejoin="round"/><rect width="103.242" height="145.012" transform="matrix(-1 0 0 1 433.356 209.698)" fill="white" style="fill:white;fill-opacity:1;"/><rect opacity="0.6" width="103.242" height="145.012" transform="matrix(-1 0 0 1 433.356 209.698)" fill="#FFD9AB" style="fill:#FFD9AB;fill:color(display-p3 1.0000 0.8491 0.6720);fill-opacity:1;"/><rect width="103.242" height="145.012" transform="matrix(-1 0 0 1 433.356 209.698)" stroke="#083156" style="stroke:#083156;stroke:color(display-p3 0.0314 0.1922 0.3373);stroke-opacity:1;" stroke-width="2.24495" stroke-linecap="round" stroke-linejoin="round"/><path d="M157.522 198.665H97.6259V354.71H157.522V198.665Z" fill="#C5CEDB" style="fill:#C5CEDB;fill:color(display-p3 0.7725 0.8078 0.8588);fill-opacity:1;"/><path d="M330.109 198.665H97.6179V239.646H330.109V198.665Z" fill="#C5CEDB" style="fill:#C5CEDB;fill:color(display-p3 0.7725 0.8078 0.8588);fill-opacity:1;"/><rect width="232.491" height="148.164" transform="matrix(-1 0 0 1 330.109 206.545)" fill="white" stroke="#083156" style="fill:white;fill-opacity:1;stroke:#083156;stroke:color(display-p3 0.0314 0.1922 0.3373);stroke-opacity:1;" stroke-width="2.24495" stroke-linecap="round" stroke-linejoin="round"/><path opacity="0.5" d="M122.843 301.122H144.028C144.028 301.122 148.871 264.081 135.857 264.081C122.843 264.08 122.843 301.122 122.843 301.122Z" fill="#FFD9AB" style="fill:#FFD9AB;fill:color(display-p3 1.0000 0.8491 0.6720);fill-opacity:1;"/><path d="M122.843 301.122H144.028C144.028 301.122 148.871 264.081 135.857 264.081C122.843 264.08 122.843 301.122 122.843 301.122Z" stroke="#083156" style="stroke:#083156;stroke:color(display-p3 0.0314 0.1922 0.3373);stroke-opacity:1;" stroke-width="2.24495" stroke-linecap="round" stroke-linejoin="round"/><path d="M134.661 265.66L134.661 300.336" stroke="#083156" style="stroke:#083156;stroke:color(display-p3 0.0314 0.1922 0.3373);stroke-opacity:1;" stroke-width="2.24495" stroke-linecap="round" stroke-linejoin="round"/><path d="M143.337 289.301H125.21" stroke="#083156" style="stroke:#083156;stroke:color(display-p3 0.0314 0.1922 0.3373);stroke-opacity:1;" stroke-width="2.24495" stroke-linecap="round" stroke-linejoin="round"/><path d="M469.347 354.709C483.04 330.692 465.987 300.33 438.34 300.33C418.444 300.33 402.314 316.46 402.314 336.357V354.709H469.347Z" fill="white" style="fill:white;fill-opacity:1;"/><path d="M460.312 337.297C461.091 322.892 451.17 310.102 437.024 307.273C419.066 303.681 402.311 317.417 402.311 335.731V354.709H459.364C459.368 354.709 459.371 354.706 459.371 354.702L460.312 337.297Z" fill="#FFD9AB" style="fill:#FFD9AB;fill:color(display-p3 1.0000 0.8491 0.6720);fill-opacity:1;"/><path d="M469.347 354.709C483.04 330.692 465.987 300.33 438.34 300.33V300.33C418.444 300.33 402.314 316.46 402.314 336.357V354.709H469.347V354.709Z" stroke="#083156" style="stroke:#083156;stroke:color(display-p3 0.0314 0.1922 0.3373);stroke-opacity:1;" stroke-width="2.24495" stroke-linecap="round"/><path d="M382.272 149.015H156.579L86.5754 209.699H453.852L382.272 149.015Z" fill="white" style="fill:white;fill-opacity:1;"/><path d="M385.269 151.67C383.716 150.356 382.94 149.699 382.005 149.357C381.07 149.015 380.053 149.015 378.019 149.015H161.639C159.604 149.015 158.587 149.015 157.652 149.357C156.718 149.699 155.941 150.356 154.388 151.67L90.4846 205.74C88.5259 207.397 87.5465 208.226 87.8163 208.962C88.086 209.699 89.3689 209.699 91.9347 209.699H447.723C450.289 209.699 451.571 209.699 451.841 208.962C452.111 208.226 451.132 207.397 449.173 205.74L385.269 151.67Z" fill="#3C5D87" style="fill:#3C5D87;fill:color(display-p3 0.2353 0.3647 0.5294);fill-opacity:1;"/><path d="M385.413 151.677C383.859 150.36 383.082 149.701 382.146 149.358C381.21 149.015 380.191 149.015 378.154 149.015H160.767C158.695 149.015 157.66 149.015 156.711 149.369C155.762 149.723 154.979 150.401 153.414 151.758L91.1219 205.758C89.2139 207.412 88.2599 208.239 88.5323 208.969C88.8047 209.699 90.0672 209.699 92.5924 209.699H447.732C450.294 209.699 451.576 209.699 451.846 208.963C452.116 208.227 451.138 207.399 449.184 205.742L385.413 151.677Z" stroke="#083156" style="stroke:#083156;stroke:color(display-p3 0.0314 0.1922 0.3373);stroke-opacity:1;" stroke-width="2.24495" stroke-linecap="round" stroke-linejoin="round"/><path fill-rule="evenodd" clip-rule="evenodd" d="M390.564 206.036C402.225 201.761 416.165 210.534 421.701 225.632C422.747 228.486 423.418 231.361 423.74 234.177C428.824 233.288 433.456 234.178 436.749 237.104C444.538 244.025 441.897 259.715 430.848 272.15C430.306 272.761 429.753 273.353 429.191 273.925C434.483 277.083 437.643 281.688 437.062 286.393C436.128 293.962 425.868 298.924 414.146 297.477C408.768 296.813 404.017 294.915 400.54 292.325C394.639 295.154 386.84 296.174 378.666 294.699C362.841 291.843 351.603 280.715 353.565 269.845C354.389 265.278 357.411 261.484 361.813 258.83C358.174 248.798 359.518 238.889 366.049 233.99C369.194 231.631 373.118 230.751 377.304 231.178C376.451 219.652 381.472 209.37 390.564 206.036Z" fill="white" style="fill:white;fill-opacity:1;"/><path fill-rule="evenodd" clip-rule="evenodd" d="M387.024 211.063C396.224 207.69 407.857 216.346 413.009 230.396C413.564 231.911 414.022 233.428 414.385 234.931C419.008 234.39 423.208 235.383 426.278 238.11C434.067 245.03 431.624 260.497 420.822 272.655C420.34 273.198 419.849 273.724 419.351 274.235C424.018 277.252 426.747 281.389 426.228 285.592C425.332 292.847 415.104 297.555 403.382 296.108C399.955 295.685 396.78 294.783 394.025 293.536C388.844 295.572 382.516 296.219 375.949 295.034C361.14 292.361 350.726 281.382 352.688 270.511C353.48 266.122 356.169 262.421 360.069 259.745C357.8 251.49 359.095 243.889 364.201 240.059C367.971 237.232 373.134 236.973 378.511 238.839C375.179 226.115 378.649 214.134 387.024 211.063Z" fill="#FFD9AB" style="fill:#FFD9AB;fill:color(display-p3 1.0000 0.8491 0.6720);fill-opacity:1;"/><path d="M421.701 225.632L422.754 225.246L421.701 225.632ZM390.564 206.036L390.178 204.983V204.983L390.564 206.036ZM423.74 234.177L423.933 235.282C423.628 235.336 423.315 235.261 423.067 235.076C422.82 234.891 422.659 234.611 422.624 234.304L423.74 234.177ZM436.749 237.104L436.004 237.944L436.749 237.104ZM430.848 272.15L430.009 271.405L430.848 272.15ZM429.191 273.925L428.616 274.889C428.32 274.712 428.122 274.41 428.078 274.068C428.034 273.727 428.149 273.384 428.39 273.138L429.191 273.925ZM437.062 286.393L438.176 286.531L437.062 286.393ZM414.146 297.477L414.009 298.591L414.146 297.477ZM400.54 292.325L400.054 291.313C400.43 291.132 400.876 291.176 401.21 291.425L400.54 292.325ZM378.666 294.699L378.467 295.804L378.666 294.699ZM353.565 269.845L352.46 269.645L353.565 269.845ZM361.813 258.83L362.868 258.447C363.051 258.951 362.851 259.514 362.392 259.791L361.813 258.83ZM366.049 233.99L366.723 234.888L366.049 233.99ZM377.304 231.178L378.423 231.095C378.447 231.426 378.324 231.751 378.086 231.982C377.848 232.214 377.52 232.328 377.19 232.294L377.304 231.178ZM420.647 226.019C415.226 211.234 401.792 203.115 390.951 207.09L390.178 204.983C402.657 200.407 417.104 209.835 422.754 225.246L420.647 226.019ZM422.624 234.304C422.313 231.578 421.662 228.789 420.647 226.019L422.754 225.246C423.831 228.182 424.523 231.145 424.855 234.049L422.624 234.304ZM423.546 233.071C428.857 232.143 433.871 233.046 437.495 236.265L436.004 237.944C433.04 235.31 428.791 234.434 423.933 235.282L423.546 233.071ZM437.495 236.265C441.782 240.075 443.075 246.183 441.97 252.746C440.862 259.327 437.329 266.546 431.688 272.896L430.009 271.405C435.416 265.32 438.728 258.477 439.756 252.373C440.787 246.252 439.506 241.055 436.004 237.944L437.495 236.265ZM431.688 272.896C431.133 273.521 430.567 274.126 429.992 274.711L428.39 273.138C428.939 272.58 429.479 272.002 430.009 271.405L431.688 272.896ZM429.767 272.961C435.242 276.229 438.835 281.193 438.176 286.531L435.948 286.256C436.451 282.183 433.724 277.937 428.616 274.889L429.767 272.961ZM438.176 286.531C437.647 290.82 434.495 294.219 430.138 296.326C425.77 298.439 420.052 299.337 414.009 298.591L414.284 296.363C419.963 297.064 425.236 296.204 429.161 294.305C433.099 292.401 435.544 289.535 435.948 286.256L438.176 286.531ZM414.009 298.591C408.461 297.906 403.521 295.945 399.869 293.225L401.21 291.425C404.513 293.885 409.076 295.72 414.284 296.363L414.009 298.591ZM401.025 293.337C394.883 296.282 386.84 297.315 378.467 295.804L378.865 293.594C386.839 295.034 394.394 294.027 400.054 291.313L401.025 293.337ZM378.467 295.804C370.36 294.341 363.379 290.752 358.656 286.075C353.937 281.402 351.395 275.55 352.46 269.645L354.67 270.044C353.773 275.01 355.869 280.157 360.235 284.48C364.597 288.798 371.147 292.202 378.865 293.594L378.467 295.804ZM352.46 269.645C353.355 264.689 356.625 260.647 361.233 257.869L362.392 259.791C358.198 262.32 355.423 265.867 354.67 270.044L352.46 269.645ZM360.757 259.213C357.04 248.965 358.273 238.42 365.376 233.092L366.723 234.888C360.763 239.358 359.308 248.632 362.868 258.447L360.757 259.213ZM365.376 233.092C368.786 230.533 373.006 229.612 377.417 230.061L377.19 232.294C373.231 231.891 369.602 232.728 366.723 234.888L365.376 233.092ZM390.951 207.09C382.488 210.193 377.593 219.878 378.423 231.095L376.184 231.261C375.308 219.426 380.456 208.547 390.178 204.983L390.951 207.09Z" fill="#083156" style="fill:#083156;fill:color(display-p3 0.0314 0.1922 0.3373);fill-opacity:1;"/><path d="M400.244 294.348L400.244 347.496" stroke="#083156" style="stroke:#083156;stroke:color(display-p3 0.0314 0.1922 0.3373);stroke-opacity:1;" stroke-width="2.24495" stroke-linecap="round"/><path d="M422.666 251.09L411.78 260.055" stroke="#083156" style="stroke:#083156;stroke:color(display-p3 0.0314 0.1922 0.3373);stroke-opacity:1;" stroke-width="2.24495" stroke-linecap="round"/><path d="M377.202 263.262L390.649 278.63" stroke="#083156" style="stroke:#083156;stroke:color(display-p3 0.0314 0.1922 0.3373);stroke-opacity:1;" stroke-width="2.24495" stroke-linecap="round"/><path d="M391.927 232.526L395.769 245.973" stroke="#083156" style="stroke:#083156;stroke:color(display-p3 0.0314 0.1922 0.3373);stroke-opacity:1;" stroke-width="2.24495" stroke-linecap="round"/><path opacity="0.5" d="M234.547 258.563H188.107C188.107 258.563 181.573 230.192 210.1 230.192C238.628 230.191 234.547 258.563 234.547 258.563Z" fill="#FFD9AB" style="fill:#FFD9AB;fill:color(display-p3 1.0000 0.8491 0.6720);fill-opacity:1;"/><path d="M234.547 258.563H188.107C188.107 258.563 181.573 230.192 210.1 230.192C238.628 230.191 234.547 258.563 234.547 258.563Z" stroke="#083156" style="stroke:#083156;stroke:color(display-p3 0.0314 0.1922 0.3373);stroke-opacity:1;" stroke-width="2.24495" stroke-linecap="round" stroke-linejoin="round"/><path d="M209.535 230.192L209.535 258.563" stroke="#083156" style="stroke:#083156;stroke:color(display-p3 0.0314 0.1922 0.3373);stroke-opacity:1;" stroke-width="2.24495" stroke-linecap="round"/><path d="M189.054 246.741H232.4" stroke="#083156" style="stroke:#083156;stroke:color(display-p3 0.0314 0.1922 0.3373);stroke-opacity:1;" stroke-width="2.24495" stroke-linecap="round"/><path d="M108.485 245.038H123.242V341.438H108.485V245.038Z" fill="white" style="fill:white;fill-opacity:1;"/><path d="M105.604 341.437H126.208L129.152 354.71H104.721L105.604 341.437Z" fill="white" style="fill:white;fill-opacity:1;"/><path d="M126.698 245.038L106.094 245.038L103.15 231.766L130.734 231.766L126.698 245.038Z" fill="white" style="fill:white;fill-opacity:1;"/><path d="M108.876 245.038H123.633L123.634 339.646H108.876L108.876 245.038Z" stroke="#083156" style="stroke:#083156;stroke:color(display-p3 0.0314 0.1922 0.3373);stroke-opacity:1;" stroke-width="2.24495" stroke-linecap="round" stroke-linejoin="round"/><path d="M105.534 340.694C105.573 340.105 106.063 339.646 106.654 339.646H125.308C125.834 339.646 126.29 340.012 126.404 340.526L128.849 351.553C129.005 352.254 128.471 352.919 127.753 352.919H105.92C105.271 352.919 104.757 352.37 104.8 351.722L105.534 340.694Z" stroke="#083156" style="stroke:#083156;stroke:color(display-p3 0.0314 0.1922 0.3373);stroke-opacity:1;" stroke-width="2.24495" stroke-linecap="round" stroke-linejoin="round"/><path d="M127.666 241.854C127.2 243.388 126.967 244.155 126.371 244.597C125.776 245.038 124.974 245.038 123.371 245.038L109.697 245.038C107.97 245.038 107.106 245.038 106.49 244.544C105.875 244.05 105.688 243.207 105.314 241.52L103.15 231.766L130.734 231.766L127.666 241.854Z" stroke="#083156" style="stroke:#083156;stroke:color(display-p3 0.0314 0.1922 0.3373);stroke-opacity:1;" stroke-width="2.24495" stroke-linecap="round" stroke-linejoin="round"/><path d="M143.146 245.038H157.903V341.438H143.146V245.038Z" fill="white" style="fill:white;fill-opacity:1;"/><path d="M140.266 341.437H160.871L163.814 354.71H139.383L140.266 341.437Z" fill="white" style="fill:white;fill-opacity:1;"/><path d="M161.361 245.038L140.756 245.038L137.812 231.766L165.396 231.766L161.361 245.038Z" fill="white" style="fill:white;fill-opacity:1;"/><path d="M143.539 245.038H158.296L158.296 339.646H143.539L143.539 245.038Z" stroke="#083156" style="stroke:#083156;stroke:color(display-p3 0.0314 0.1922 0.3373);stroke-opacity:1;" stroke-width="2.24495" stroke-linecap="round" stroke-linejoin="round"/><path d="M140.201 340.694C140.24 340.105 140.73 339.646 141.321 339.646H159.975C160.501 339.646 160.957 340.012 161.071 340.526L163.516 351.553C163.672 352.254 163.138 352.919 162.42 352.919H140.587C139.938 352.919 139.424 352.37 139.467 351.722L140.201 340.694Z" stroke="#083156" style="stroke:#083156;stroke:color(display-p3 0.0314 0.1922 0.3373);stroke-opacity:1;" stroke-width="2.24495" stroke-linecap="round" stroke-linejoin="round"/><path d="M162.329 241.854C161.862 243.388 161.629 244.155 161.033 244.597C160.438 245.038 159.636 245.038 158.033 245.038L144.359 245.038C142.632 245.038 141.768 245.038 141.152 244.544C140.537 244.05 140.35 243.207 139.976 241.52L137.812 231.766L165.396 231.766L162.329 241.854Z" stroke="#083156" style="stroke:#083156;stroke:color(display-p3 0.0314 0.1922 0.3373);stroke-opacity:1;" stroke-width="2.24495" stroke-linecap="round" stroke-linejoin="round"/><path opacity="0.5" d="M286.778 301.122H307.964C307.964 301.122 312.806 264.081 299.792 264.081C286.778 264.08 286.778 301.122 286.778 301.122Z" fill="#FFD9AB" style="fill:#FFD9AB;fill:color(display-p3 1.0000 0.8491 0.6720);fill-opacity:1;"/><path d="M286.778 301.122H307.964C307.964 301.122 312.806 264.081 299.792 264.081C286.778 264.08 286.778 301.122 286.778 301.122Z" stroke="#083156" style="stroke:#083156;stroke:color(display-p3 0.0314 0.1922 0.3373);stroke-opacity:1;" stroke-width="2.24495" stroke-linecap="round" stroke-linejoin="round"/><path d="M298.598 265.66L298.598 300.336" stroke="#083156" style="stroke:#083156;stroke:color(display-p3 0.0314 0.1922 0.3373);stroke-opacity:1;" stroke-width="2.24495" stroke-linecap="round" stroke-linejoin="round"/><path d="M307.273 289.301H289.147" stroke="#083156" style="stroke:#083156;stroke:color(display-p3 0.0314 0.1922 0.3373);stroke-opacity:1;" stroke-width="2.24495" stroke-linecap="round" stroke-linejoin="round"/><path d="M502.711 135.123C489.088 129.379 482.896 138.714 482.153 143.501C480.667 135.123 475.465 128.421 468.035 131.772" stroke="#083156" style="stroke:#083156;stroke:color(display-p3 0.0314 0.1922 0.3373);stroke-opacity:1;" stroke-width="2.24495" stroke-linecap="round" stroke-linejoin="round"/><path d="M413.557 54.5488C398.848 53.0524 395.666 63.7928 396.359 68.5873C392.482 61.0141 385.543 56.1323 379.422 61.5153" stroke="#083156" style="stroke:#083156;stroke:color(display-p3 0.0314 0.1922 0.3373);stroke-opacity:1;" stroke-width="2.24495" stroke-linecap="round" stroke-linejoin="round"/><path d="M31.3321 353.93C22.9694 342.944 30.8038 327.134 44.6103 327.134H57.3077C69.9991 327.134 80.2875 337.422 80.2875 350.114V353.93H31.3321Z" fill="white" style="fill:white;fill-opacity:1;"/><path d="M29.9256 348.593C28.2273 337.296 36.976 327.134 48.3999 327.134H49.9839C63.7357 327.134 72.2796 342.079 65.3023 353.93H30.7278L29.9256 348.593Z" fill="#FFD9AB" style="fill:#FFD9AB;fill:color(display-p3 1.0000 0.8491 0.6720);fill-opacity:1;"/><path d="M32.5216 354.479C24.1021 343.192 32.157 327.134 46.2381 327.134H58.3093C71.1044 327.134 81.4769 337.507 81.4769 350.302V354.479H32.5216V354.479Z" stroke="#083156" style="stroke:#083156;stroke:color(display-p3 0.0314 0.1922 0.3373);stroke-opacity:1;" stroke-width="2.24495" stroke-linecap="round"/><path d="M55.235 353.927C39.7308 341.767 48.5891 316.87 68.2898 317.235L78.2902 317.421C94.478 317.721 105.684 333.698 100.454 349.021L98.779 353.927H55.235Z" fill="white" style="fill:white;fill-opacity:1;"/><path opacity="0.5" d="M49.2349 347.974C42.2126 333.477 53.0951 316.704 69.1962 317.21C82.6948 317.633 92.4418 330.285 89.4083 343.446L86.9921 353.927H52.1184L49.2349 347.974Z" fill="#FFD9AB" style="fill:#FFD9AB;fill:color(display-p3 1.0000 0.8491 0.6720);fill-opacity:1;"/><path d="M55.8208 354.189C40.6653 341.55 49.8779 316.882 69.6083 317.271L77.0858 317.419C92.8259 317.729 103.819 333.121 99.0071 348.11L97.0556 354.189H55.8208V354.189Z" stroke="#083156" style="stroke:#083156;stroke:color(display-p3 0.0314 0.1922 0.3373);stroke-opacity:1;" stroke-width="2.24495" stroke-linecap="round"/><path d="M172.981 152.893C170.868 151.044 169.812 150.119 168.546 150.119C167.281 150.119 166.225 151.044 164.111 152.893L87.4632 219.96C81.7966 224.918 78.9633 227.397 79.7836 229.58C80.6038 231.764 84.3686 231.764 91.8981 231.764H245.195C252.724 231.764 256.489 231.764 257.309 229.58C258.129 227.397 255.296 224.918 249.63 219.96L172.981 152.893Z" fill="white" style="fill:white;fill-opacity:1;"/><path opacity="0.7" d="M168.301 155.332C166.164 153.406 165.095 152.443 163.805 152.441C162.514 152.439 161.442 153.399 159.299 155.319L81.933 224.622C78.2505 227.921 76.4093 229.57 76.9612 231.013C77.513 232.456 79.9849 232.456 84.9288 232.456H236.346C243.733 232.456 247.427 232.456 248.256 230.296C249.086 228.136 246.342 225.664 240.855 220.718L168.301 155.332Z" fill="#FFD9AB" style="fill:#FFD9AB;fill:color(display-p3 1.0000 0.8491 0.6720);fill-opacity:1;"/><path d="M175.938 155.48C172.416 152.398 170.655 150.858 168.546 150.858C166.438 150.858 164.677 152.398 161.155 155.48L82.9666 223.895C79.1889 227.2 77.3001 228.853 77.8469 230.308C78.3937 231.764 80.9036 231.764 85.9232 231.764H251.169C256.189 231.764 258.699 231.764 259.246 230.308C259.793 228.853 257.904 227.2 254.126 223.895L175.938 155.48Z" stroke="#083156" style="stroke:#083156;stroke:color(display-p3 0.0314 0.1922 0.3373);stroke-opacity:1;" stroke-width="2.24495" stroke-linecap="round" stroke-linejoin="round"/><path d="M168.164 165.566L103.145 221.521H233.183L168.164 165.566Z" fill="white" style="fill:white;fill-opacity:1;"/><path opacity="0.6" d="M162.997 169.405L105.12 221.52H223.336L162.997 169.405Z" fill="#FFD9AB" style="fill:#FFD9AB;fill:color(display-p3 1.0000 0.8491 0.6720);fill-opacity:1;"/><path d="M168.164 165.566L103.145 221.521H233.183L168.164 165.566Z" stroke="#083156" style="stroke:#083156;stroke:color(display-p3 0.0314 0.1922 0.3373);stroke-opacity:1;" stroke-width="2.24495" stroke-linecap="round" stroke-linejoin="round"/><ellipse cx="12.4867" cy="12.9333" rx="12.4867" ry="12.9333" transform="matrix(-0.96304 0.269357 0.269357 0.96304 177.738 181.941)" fill="white" stroke="#083156" style="fill:white;fill-opacity:1;stroke:#083156;stroke:color(display-p3 0.0314 0.1922 0.3373);stroke-opacity:1;" stroke-width="2.24495" stroke-linecap="round" stroke-linejoin="round"/><path d="M168.544 186.048L168.544 209.691" stroke="#083156" style="stroke:#083156;stroke:color(display-p3 0.0314 0.1922 0.3373);stroke-opacity:1;" stroke-width="2.24495" stroke-linecap="round" stroke-linejoin="round"/><path d="M181.157 198.662L157.514 198.662" stroke="#083156" style="stroke:#083156;stroke:color(display-p3 0.0314 0.1922 0.3373);stroke-opacity:1;" stroke-width="2.24495" stroke-linecap="round" stroke-linejoin="round"/><path d="M239.305 150.125C238.677 149.575 238.363 149.3 237.98 149.156C237.598 149.012 237.181 149.012 236.346 149.012H180.49C175.475 149.012 172.967 149.012 172.42 150.467C171.873 151.922 173.759 153.574 177.531 156.879L261.726 230.651C262.354 231.201 262.668 231.476 263.05 231.62C263.433 231.764 263.85 231.764 264.685 231.764H320.541C325.556 231.764 328.064 231.764 328.611 230.309C329.158 228.854 327.272 227.202 323.5 223.897L239.305 150.125Z" fill="white" style="fill:white;fill-opacity:1;"/><path d="M230.986 149.013H169.743L264.187 231.764H325.43L230.986 149.013Z" fill="#3C5D87" style="fill:#3C5D87;fill:color(display-p3 0.2353 0.3647 0.5294);fill-opacity:1;"/><path d="M239.305 150.125C238.677 149.575 238.363 149.3 237.98 149.156C237.598 149.012 237.181 149.012 236.346 149.012H180.49C175.475 149.012 172.967 149.012 172.42 150.467C171.873 151.922 173.759 153.574 177.531 156.879L261.726 230.651C262.354 231.201 262.668 231.476 263.05 231.62C263.433 231.764 263.85 231.764 264.685 231.764H320.541C325.556 231.764 328.064 231.764 328.611 230.309C329.158 228.854 327.272 227.202 323.5 223.897L239.305 150.125Z" stroke="#083156" style="stroke:#083156;stroke:color(display-p3 0.0314 0.1922 0.3373);stroke-opacity:1;" stroke-width="2.24495" stroke-linecap="round" stroke-linejoin="round"/><path d="M235.525 344.467H191.963C191.963 344.467 182.721 272.749 212.838 272.749C242.956 272.749 235.525 344.467 235.525 344.467Z" fill="#FFD9AB" stroke="#083156" style="fill:#FFD9AB;fill:color(display-p3 1.0000 0.8491 0.6720);fill-opacity:1;stroke:#083156;stroke:color(display-p3 0.0314 0.1922 0.3373);stroke-opacity:1;" stroke-width="2.24495" stroke-linecap="round"/><path d="M212.692 272.749L212.692 344.467" stroke="#083156" style="stroke:#083156;stroke:color(display-p3 0.0314 0.1922 0.3373);stroke-opacity:1;" stroke-width="2.24495" stroke-linecap="round"/><ellipse cx="3.15243" cy="3.94052" rx="3.15243" ry="3.94052" transform="matrix(-1 0 0 1 202.445 316.881)" fill="#083156" style="fill:#083156;fill:color(display-p3 0.0314 0.1922 0.3373);fill-opacity:1;"/><ellipse cx="3.15243" cy="3.94052" rx="3.15243" ry="3.94052" transform="matrix(-1 0 0 1 230.818 316.881)" fill="#083156" style="fill:#083156;fill:color(display-p3 0.0314 0.1922 0.3373);fill-opacity:1;"/><path d="M225.893 245.038H240.65V341.438H225.893V245.038Z" fill="white" style="fill:white;fill-opacity:1;"/><path d="M223.012 341.437H243.617L246.56 354.71H222.129L223.012 341.437Z" fill="white" style="fill:white;fill-opacity:1;"/><path d="M244.107 245.038L223.502 245.038L220.558 231.766L248.142 231.766L244.107 245.038Z" fill="white" style="fill:white;fill-opacity:1;"/><path d="M226.285 245.038H241.042L241.042 339.646H226.285L226.285 245.038Z" stroke="#083156" style="stroke:#083156;stroke:color(display-p3 0.0314 0.1922 0.3373);stroke-opacity:1;" stroke-width="2.24495" stroke-linecap="round" stroke-linejoin="round"/><path d="M222.947 340.694C222.986 340.105 223.476 339.646 224.067 339.646H242.721C243.247 339.646 243.703 340.012 243.817 340.526L246.262 351.553C246.418 352.254 245.884 352.919 245.166 352.919H223.333C222.684 352.919 222.17 352.37 222.213 351.722L222.947 340.694Z" stroke="#083156" style="stroke:#083156;stroke:color(display-p3 0.0314 0.1922 0.3373);stroke-opacity:1;" stroke-width="2.24495" stroke-linecap="round" stroke-linejoin="round"/><path d="M245.075 241.854C244.608 243.388 244.375 244.155 243.779 244.597C243.184 245.038 242.382 245.038 240.779 245.038L227.105 245.038C225.378 245.038 224.514 245.038 223.898 244.544C223.283 244.05 223.096 243.207 222.722 241.52L220.558 231.766L248.142 231.766L245.075 241.854Z" stroke="#083156" style="stroke:#083156;stroke:color(display-p3 0.0314 0.1922 0.3373);stroke-opacity:1;" stroke-width="2.24495" stroke-linecap="round" stroke-linejoin="round"/><path d="M260.586 245.038H275.343V341.438H260.586V245.038Z" fill="white" style="fill:white;fill-opacity:1;"/><path d="M257.706 341.437H278.311L281.254 354.71H256.823L257.706 341.437Z" fill="white" style="fill:white;fill-opacity:1;"/><path d="M278.8 245.038L258.196 245.038L255.252 231.766L282.836 231.766L278.8 245.038Z" fill="white" style="fill:white;fill-opacity:1;"/><path d="M260.978 245.038H275.735L275.736 339.646H260.979L260.978 245.038Z" stroke="#083156" style="stroke:#083156;stroke:color(display-p3 0.0314 0.1922 0.3373);stroke-opacity:1;" stroke-width="2.24495" stroke-linecap="round" stroke-linejoin="round"/><path d="M257.641 340.694C257.68 340.105 258.17 339.646 258.761 339.646H277.415C277.941 339.646 278.397 340.012 278.51 340.526L280.956 351.553C281.112 352.254 280.578 352.919 279.86 352.919H258.027C257.378 352.919 256.864 352.37 256.907 351.722L257.641 340.694Z" stroke="#083156" style="stroke:#083156;stroke:color(display-p3 0.0314 0.1922 0.3373);stroke-opacity:1;" stroke-width="2.24495" stroke-linecap="round" stroke-linejoin="round"/><path d="M279.768 241.854C279.302 243.388 279.069 244.155 278.473 244.597C277.878 245.038 277.076 245.038 275.473 245.038L261.799 245.038C260.072 245.038 259.208 245.038 258.592 244.544C257.977 244.05 257.79 243.207 257.416 241.52L255.252 231.766L282.836 231.766L279.768 241.854Z" stroke="#083156" style="stroke:#083156;stroke:color(display-p3 0.0314 0.1922 0.3373);stroke-opacity:1;" stroke-width="2.24495" stroke-linecap="round" stroke-linejoin="round"/><path d="M253.669 344.469H86.0178C84.158 344.469 82.6503 345.977 82.6503 347.837V354.715H253.669V344.469Z" fill="white" stroke="#083156" style="fill:white;fill-opacity:1;stroke:#083156;stroke:color(display-p3 0.0314 0.1922 0.3373);stroke-opacity:1;" stroke-width="2.24495" stroke-linecap="round" stroke-linejoin="round"/><path d="M308.836 347.837C308.836 345.977 307.328 344.469 305.469 344.469H253.453V354.715H308.836V347.837Z" fill="#FFD9AB" stroke="#083156" style="fill:#FFD9AB;fill:color(display-p3 1.0000 0.8491 0.6720);fill-opacity:1;stroke:#083156;stroke:color(display-p3 0.0314 0.1922 0.3373);stroke-opacity:1;" stroke-width="2.24495" stroke-linecap="round" stroke-linejoin="round"/><path d="M386.344 354.858C397.493 334.033 381.259 309.105 357.705 310.879L353.994 311.158C335.246 312.57 321.756 329.773 324.855 348.317L325.948 354.858H386.344Z" fill="white" style="fill:white;fill-opacity:1;"/><path opacity="0.2" d="M376.091 346.977C383.496 328.639 368.77 308.996 349.092 310.961C334.374 312.431 323.763 325.744 325.612 340.419L327.414 354.713H372.967L376.091 346.977Z" fill="#FFD9AB" style="fill:#FFD9AB;fill:color(display-p3 1.0000 0.8491 0.6720);fill-opacity:1;"/><path d="M386.344 354.858C397.493 334.033 381.259 309.105 357.705 310.879L353.994 311.158C335.246 312.57 321.756 329.773 324.855 348.317L325.948 354.858H386.344V354.858Z" stroke="#083156" style="stroke:#083156;stroke:color(display-p3 0.0314 0.1922 0.3373);stroke-opacity:1;" stroke-width="2.24495" stroke-linecap="round"/><path d="M422.175 354.849C431.534 339.708 420.643 320.172 402.843 320.172H392.264C374.353 320.172 364.489 340.986 375.832 354.849H422.175Z" fill="white" style="fill:white;fill-opacity:1;"/><path opacity="0.5" d="M410.406 351.824C418.949 338.003 409.008 320.172 392.761 320.172C378.277 320.172 368.251 334.639 373.337 348.201L375.83 354.849H408.536L410.406 351.824Z" fill="#FFD9AB" style="fill:#FFD9AB;fill:color(display-p3 1.0000 0.8491 0.6720);fill-opacity:1;"/><path d="M422.175 354.849C431.534 339.708 420.643 320.172 402.843 320.172H392.264C374.353 320.172 364.489 340.986 375.832 354.849V354.849H422.175V354.849Z" stroke="#083156" style="stroke:#083156;stroke:color(display-p3 0.0314 0.1922 0.3373);stroke-opacity:1;" stroke-width="2.24495" stroke-linecap="round"/><rect opacity="0.16" x="97.7446" y="227.367" width="234.041" height="16.7172" rx="4.48991" fill="#083156" style="fill:#083156;fill:color(display-p3 0.0314 0.1922 0.3373);fill-opacity:1;"/><rect opacity="0.16" x="322.232" y="205.874" width="51.3457" height="14.329" rx="4.48991" fill="#083156" style="fill:#083156;fill:color(display-p3 0.0314 0.1922 0.3373);fill-opacity:1;"/><rect opacity="0.16" x="218.347" y="116.317" width="121.797" height="14.329" rx="4.48991" fill="#083156" style="fill:#083156;fill:color(display-p3 0.0314 0.1922 0.3373);fill-opacity:1;"/><rect opacity="0.1" x="344.92" y="345.164" width="96.7209" height="9.94086" rx="4.48991" fill="#083156" style="fill:#083156;fill:color(display-p3 0.0314 0.1922 0.3373);fill-opacity:1;"/><rect opacity="0.16" x="235.064" y="264.384" width="11.9409" height="64.4807" rx="4.48991" fill="#083156" style="fill:#083156;fill:color(display-p3 0.0314 0.1922 0.3373);fill-opacity:1;"/><rect opacity="0.16" x="160.4" y="166.035" width="10.7468" height="60.8984" rx="4.48991" transform="rotate(49.2715 160.4 166.035)" fill="#083156" style="fill:#083156;fill:color(display-p3 0.0314 0.1922 0.3373);fill-opacity:1;"/><rect opacity="0.16" x="269.693" y="254.831" width="11.9409" height="71.6451" rx="4.48991" fill="#083156" style="fill:#083156;fill:color(display-p3 0.0314 0.1922 0.3373);fill-opacity:1;"/><rect opacity="0.16" x="152.672" y="258.413" width="11.9409" height="71.6451" rx="4.48991" fill="#083156" style="fill:#083156;fill:color(display-p3 0.0314 0.1922 0.3373);fill-opacity:1;"/><rect opacity="0.16" x="118.043" y="248.861" width="11.9409" height="59.7043" rx="4.48991" fill="#083156" style="fill:#083156;fill:color(display-p3 0.0314 0.1922 0.3373);fill-opacity:1;"/><path opacity="0.16" d="M50.1013 349.12C44.0961 340.243 46.4245 328.178 55.3019 322.173" stroke="#083156" style="stroke:#083156;stroke:color(display-p3 0.0314 0.1922 0.3373);stroke-opacity:1;" stroke-width="8.97981" stroke-linecap="round"/><path d="M384.339 162.126H410.582V197.373C410.582 199.948 407.808 201.571 405.563 200.308L398.561 196.369C397.877 195.985 397.043 195.985 396.36 196.369L389.357 200.308C387.112 201.571 384.339 199.948 384.339 197.373V162.126Z" fill="#FFE999" stroke="#083156" style="fill:#FFE999;fill:color(display-p3 1.0000 0.9137 0.6000);fill-opacity:1;stroke:#083156;stroke:color(display-p3 0.0314 0.1922 0.3373);stroke-opacity:1;" stroke-width="2.69394"/><path fill-rule="evenodd" clip-rule="evenodd" d="M388.844 174.93C387.853 173.96 387.357 173.475 386.756 173.226C386.155 172.977 385.461 172.969 384.075 172.954C378.94 172.898 376.073 172.57 374.167 170.664C372.262 168.759 371.934 165.892 371.878 160.757C371.862 159.37 371.855 158.677 371.606 158.076C371.357 157.475 370.872 156.979 369.902 155.988C366.313 152.319 364.519 150.06 364.519 147.366C364.519 144.672 366.313 142.413 369.902 138.744C370.872 137.753 371.357 137.257 371.606 136.656C371.855 136.055 371.862 135.362 371.878 133.975C371.934 128.842 372.262 125.976 374.167 124.071C376.072 122.166 378.938 121.838 384.071 121.782C385.458 121.766 386.151 121.759 386.752 121.51C387.353 121.261 387.849 120.776 388.84 119.806C392.511 116.215 394.77 114.42 397.465 114.42C400.16 114.42 402.419 116.215 406.089 119.806C407.081 120.776 407.576 121.261 408.177 121.51C408.778 121.759 409.472 121.766 410.859 121.782C415.99 121.838 418.856 122.167 420.76 124.071C422.665 125.976 422.993 128.842 423.05 133.973C423.065 135.36 423.073 136.053 423.322 136.654C423.571 137.255 424.056 137.751 425.026 138.742C428.616 142.413 430.411 144.672 430.411 147.366C430.411 150.061 428.616 152.319 425.026 155.99C424.056 156.981 423.571 157.477 423.322 158.078C423.073 158.679 423.065 159.372 423.05 160.759C422.994 165.893 422.666 168.759 420.76 170.664C418.855 172.57 415.989 172.898 410.855 172.954C409.468 172.969 408.775 172.977 408.174 173.226C407.573 173.475 407.077 173.96 406.086 174.93C402.417 178.518 400.159 180.312 397.465 180.312C394.771 180.312 392.513 178.518 388.844 174.93Z" fill="#FFE999" style="fill:#FFE999;fill:color(display-p3 1.0000 0.9137 0.6000);fill-opacity:1;"/><path d="M374.167 170.664L373.215 171.617H373.215L374.167 170.664ZM420.76 124.071L419.808 125.024L420.76 124.071ZM410.855 172.954L410.84 171.607L410.855 172.954ZM406.086 174.93L405.144 173.967L406.086 174.93ZM408.174 173.226L408.689 174.47L408.174 173.226ZM425.026 155.99L425.988 156.932L425.026 155.99ZM423.05 160.759L421.703 160.744L423.05 160.759ZM423.322 158.078L424.566 158.593L423.322 158.078ZM425.026 138.742L425.988 137.8L425.026 138.742ZM423.322 136.654L422.077 137.17L423.322 136.654ZM406.089 119.806L405.147 120.769L406.089 119.806ZM410.859 121.782L410.844 123.129L410.859 121.782ZM408.177 121.51L408.693 120.265L408.177 121.51ZM388.84 119.806L387.898 118.843L388.84 119.806ZM386.752 121.51L387.268 122.754L386.752 121.51ZM371.606 136.656L372.85 137.172L371.606 136.656ZM369.902 155.988L368.939 156.929L369.902 155.988ZM371.606 158.076L372.85 157.56L371.606 158.076ZM384.075 172.954L384.09 171.607L384.075 172.954ZM388.844 174.93L387.902 175.893L388.844 174.93ZM386.756 173.226L387.271 171.981L386.756 173.226ZM384.09 171.607C381.522 171.579 379.637 171.482 378.18 171.183C376.76 170.892 375.834 170.427 375.12 169.712L373.215 171.617C374.406 172.808 375.866 173.459 377.64 173.822C379.376 174.178 381.493 174.273 384.06 174.301L384.09 171.607ZM375.12 169.712C374.405 168.997 373.94 168.072 373.649 166.651C373.35 165.194 373.253 163.31 373.225 160.742L370.531 160.772C370.559 163.339 370.654 165.456 371.009 167.192C371.373 168.965 372.024 170.426 373.215 171.617L375.12 169.712ZM370.865 155.046C369.07 153.211 367.808 151.81 366.989 150.569C366.191 149.36 365.866 148.377 365.866 147.366H363.172C363.172 149.049 363.744 150.543 364.74 152.053C365.716 153.532 367.145 155.095 368.939 156.929L370.865 155.046ZM365.866 147.366C365.866 146.355 366.191 145.372 366.989 144.163C367.808 142.922 369.07 141.521 370.865 139.686L368.939 137.803C367.145 139.637 365.716 141.2 364.74 142.679C363.744 144.189 363.172 145.683 363.172 147.366H365.866ZM373.225 133.99C373.253 131.423 373.35 129.54 373.649 128.083C373.94 126.664 374.405 125.738 375.12 125.024L373.215 123.119C372.024 124.309 371.373 125.77 371.01 127.542C370.654 129.278 370.559 131.394 370.531 133.96L373.225 133.99ZM375.12 125.024C375.834 124.309 376.759 123.844 378.179 123.553C379.636 123.254 381.519 123.157 384.086 123.129L384.056 120.435C381.49 120.463 379.374 120.558 377.638 120.914C375.866 121.277 374.405 121.928 373.215 123.119L375.12 125.024ZM389.782 120.769C391.618 118.973 393.019 117.71 394.261 116.891C395.471 116.092 396.454 115.767 397.465 115.767V113.073C395.781 113.073 394.288 113.645 392.777 114.642C391.297 115.618 389.734 117.048 387.898 118.843L389.782 120.769ZM397.465 115.767C398.476 115.767 399.459 116.092 400.669 116.891C401.911 117.71 403.312 118.973 405.147 120.769L407.031 118.843C405.196 117.048 403.632 115.618 402.153 114.642C400.642 113.645 399.149 113.073 397.465 113.073V115.767ZM410.844 123.129C413.41 123.157 415.293 123.254 416.749 123.553C418.168 123.844 419.093 124.309 419.808 125.024L421.713 123.119C420.523 121.929 419.062 121.277 417.29 120.914C415.555 120.558 413.439 120.463 410.874 120.435L410.844 123.129ZM419.808 125.024C420.522 125.738 420.988 126.663 421.279 128.083C421.577 129.539 421.675 131.422 421.703 133.988L424.397 133.958C424.369 131.393 424.274 129.277 423.918 127.542C423.554 125.769 422.903 124.309 421.713 123.119L419.808 125.024ZM424.063 139.684C425.858 141.52 427.121 142.921 427.941 144.162C428.739 145.372 429.064 146.355 429.064 147.366H431.758C431.758 145.682 431.186 144.189 430.189 142.678C429.213 141.199 427.783 139.635 425.988 137.8L424.063 139.684ZM429.064 147.366C429.064 148.377 428.739 149.36 427.941 150.57C427.121 151.811 425.858 153.212 424.063 155.048L425.988 156.932C427.783 155.097 429.213 153.533 430.189 152.054C431.186 150.543 431.758 149.05 431.758 147.366H429.064ZM421.703 160.744C421.675 163.311 421.578 165.195 421.279 166.652C420.988 168.072 420.523 168.997 419.808 169.712L421.713 171.617C422.903 170.426 423.555 168.966 423.918 167.193C424.274 165.457 424.369 163.34 424.397 160.774L421.703 160.744ZM419.808 169.712C419.093 170.427 418.168 170.892 416.748 171.183C415.291 171.482 413.407 171.579 410.84 171.607L410.87 174.301C413.436 174.273 415.553 174.178 417.289 173.822C419.062 173.459 420.522 172.807 421.713 171.617L419.808 169.712ZM405.144 173.967C403.309 175.761 401.909 177.024 400.668 177.842C399.458 178.64 398.475 178.965 397.465 178.965V181.659C399.148 181.659 400.641 181.087 402.151 180.091C403.63 179.115 405.193 177.687 407.027 175.893L405.144 173.967ZM397.465 178.965C396.454 178.965 395.471 178.64 394.262 177.842C393.021 177.024 391.62 175.761 389.786 173.967L387.902 175.893C389.736 177.687 391.299 179.115 392.778 180.091C394.289 181.087 395.782 181.659 397.465 181.659V178.965ZM410.84 171.607C409.566 171.621 408.557 171.609 407.658 171.981L408.689 174.47C408.993 174.345 409.37 174.317 410.87 174.301L410.84 171.607ZM407.027 175.893C408.1 174.844 408.386 174.596 408.689 174.47L407.658 171.981C406.76 172.354 406.054 173.076 405.144 173.967L407.027 175.893ZM424.063 155.048C423.172 155.958 422.45 156.663 422.077 157.562L424.566 158.593C424.692 158.29 424.94 158.004 425.988 156.932L424.063 155.048ZM424.397 160.774C424.413 159.274 424.441 158.897 424.566 158.593L422.077 157.562C421.705 158.461 421.717 159.47 421.703 160.744L424.397 160.774ZM421.703 133.988C421.717 135.262 421.705 136.271 422.077 137.17L424.566 136.139C424.441 135.835 424.413 135.458 424.397 133.958L421.703 133.988ZM425.988 137.8C424.94 136.728 424.692 136.442 424.566 136.139L422.077 137.17C422.45 138.069 423.172 138.774 424.063 139.684L425.988 137.8ZM405.147 120.769C406.058 121.66 406.763 122.382 407.662 122.754L408.693 120.265C408.39 120.14 408.103 119.892 407.031 118.843L405.147 120.769ZM410.874 120.435C409.374 120.418 408.996 120.391 408.693 120.265L407.662 122.754C408.561 123.127 409.57 123.115 410.844 123.129L410.874 120.435ZM384.086 123.129C385.36 123.115 386.369 123.127 387.268 122.754L386.237 120.265C385.933 120.391 385.556 120.418 384.056 120.435L384.086 123.129ZM387.898 118.843C386.826 119.892 386.54 120.14 386.237 120.265L387.268 122.754C388.167 122.382 388.872 121.66 389.782 120.769L387.898 118.843ZM370.865 139.686C371.756 138.776 372.478 138.071 372.85 137.172L370.361 136.141C370.236 136.444 369.988 136.73 368.939 137.803L370.865 139.686ZM370.531 133.96C370.514 135.46 370.487 135.838 370.361 136.141L372.85 137.172C373.223 136.273 373.211 135.264 373.225 133.99L370.531 133.96ZM373.225 160.742C373.211 159.468 373.223 158.459 372.85 157.56L370.361 158.591C370.487 158.895 370.514 159.272 370.531 160.772L373.225 160.742ZM368.939 156.929C369.988 158.002 370.236 158.288 370.361 158.591L372.85 157.56C372.478 156.662 371.756 155.956 370.865 155.046L368.939 156.929ZM384.06 174.301C385.56 174.317 385.937 174.345 386.24 174.47L387.271 171.981C386.373 171.609 385.363 171.621 384.09 171.607L384.06 174.301ZM389.786 173.967C388.875 173.076 388.17 172.354 387.271 171.981L386.24 174.47C386.544 174.596 386.83 174.844 387.902 175.893L389.786 173.967Z" fill="#083156" style="fill:#083156;fill:color(display-p3 0.0314 0.1922 0.3373);fill-opacity:1;"/><circle cx="397.46" cy="147.363" r="21.3222" fill="white" style="fill:white;fill-opacity:1;"/><circle cx="397.46" cy="147.363" r="21.3222" fill="#FFC800" fill-opacity="0.4" style="fill:#FFC800;fill:color(display-p3 1.0000 0.7843 0.0000);fill-opacity:0.4;"/><circle cx="397.46" cy="147.363" r="21.3222" stroke="white" style="stroke:white;stroke-opacity:1;" stroke-width="2.69394"/><path fill-rule="evenodd" clip-rule="evenodd" d="M407.889 138.867C407.06 138.094 405.754 138.16 405.008 139.015L394.185 151.398L390.474 147.406C389.709 146.583 388.407 146.582 387.641 147.404C386.877 148.223 386.966 149.517 387.834 150.224L393.243 154.634C393.835 155.116 394.695 155.071 395.233 154.531L407.944 141.752C408.744 140.948 408.719 139.641 407.889 138.867Z" fill="#083156" style="fill:#083156;fill:color(display-p3 0.0314 0.1922 0.3373);fill-opacity:1;"/><path opacity="0.16" d="M427.222 152.951C427.445 167.235 416.046 178.995 401.762 179.218" stroke="#3C5D87" style="stroke:#3C5D87;stroke:color(display-p3 0.2353 0.3647 0.5294);stroke-opacity:1;" stroke-width="8.97981" stroke-linecap="round"/></svg>