<svg width="76" height="80" viewBox="0 0 76 80" fill="none" xmlns="http://www.w3.org/2000/svg"><g clip-path="url(#clip0_5242_10049)"><path d="M67.2199 37.2305C64.8762 37.2305 63.2367 39.1349 62.6738 42.1347L70.9225 42.0394C70.9225 39.516 69.3754 37.2305 67.2199 37.2305ZM66.7977 56.6111C61.8772 56.6111 58.0808 52.6587 58.0808 47.135C58.0808 40.3729 62.1587 35.7537 67.9231 35.7537C72.562 35.7537 75.1398 38.421 75.1398 42.6589V43.5158L62.4866 43.4206C62.3928 43.9443 62.3454 44.8017 62.3454 45.8492C62.3454 50.7064 65.3448 53.8967 69.329 53.8967C71.7191 53.8967 72.9378 53.0397 74.8119 51.4207L75.5151 52.5156C72.8435 54.992 70.6411 56.6111 66.7977 56.6111ZM45.1461 56.2301V55.1347C47.2552 54.992 47.8641 54.5162 48.2394 53.7062V29.0394C48.2394 27.4203 48.0049 26.7539 44.7713 26.4681V25.5159L53.348 23.3252L53.6285 24.1352L52.27 25.8495V53.7062C52.7386 54.6588 53.6285 54.992 55.5499 55.1347V56.2301H45.1461ZM30.8525 48.8968C30.6649 49.6585 30.5246 50.3253 30.5246 51.3732C30.5246 52.8014 31.3212 54.2299 32.8673 54.2299C34.2732 54.2299 35.0702 53.754 36.3359 52.754L36.3823 46.325C35.1641 46.8966 32.1646 48.2304 30.8525 48.8968ZM40.2252 56.6585C37.6949 56.6585 36.4762 54.8963 36.3823 53.6587C34.7888 55.3731 32.7271 56.6585 30.7587 56.6585C28.2279 56.6585 26.0719 55.0873 26.0719 52.3733C26.0719 51.0396 26.4003 49.6585 27.0561 48.5636L36.3823 45.1349V41.6109C36.3823 39.4681 35.3981 37.4205 33.289 37.4205C32.0239 37.4205 30.8051 38.9918 30.7118 41.4208L26.4936 42.1347V41.6588C27.8995 37.3727 32.5394 35.7066 34.7888 35.7066C39.0539 35.7066 40.6 37.9921 40.5536 41.5157L40.4129 51.5159C40.366 53.4682 41.3971 53.9441 42.3343 53.9441C43.084 53.9441 43.8336 53.4682 44.7249 52.5634V53.9441C43.6933 55.1826 41.8662 56.6585 40.2252 56.6585ZM24.8536 30.3252L17.1209 43.5632V52.4686C18.0112 54.611 20.2606 54.8963 22.4166 54.992V56.2301H7.27907V54.992C9.43508 54.8963 12.0597 54.5636 12.7624 53.135V43.9443L4.88899 30.4205C3.53023 28.1346 2.21762 27.3733 -0.406738 27.1824V25.9443H12.7624V27.1824C10.2785 27.325 9.48199 27.8018 8.7788 28.3734L16.0898 41.2299L23.2601 28.4204C22.5104 27.8492 21.5263 27.325 19.0423 27.1824V25.9443H30.2896V27.1824C27.7593 27.2781 26.1657 28.1346 24.8536 30.3252Z" fill="#8C96A1" style="fill:#8C96A1;fill:color(display-p3 0.5490 0.5882 0.6314);fill-opacity:1;"/></g><defs><clipPath id="clip0_5242_10049"><rect x="0.155762" y="0.000976562" width="75.5556" height="80" rx="13.3333" fill="white" style="fill:white;fill-opacity:1;"/></clipPath></defs></svg>