<svg width="41" height="41" viewBox="0 0 41 41" fill="none" xmlns="http://www.w3.org/2000/svg"><g clip-path="url(#clip0_615_26067)"><rect width="40" height="40" transform="translate(0.5 0.5)"/><path d="M14.925 21.4938H26.074V36.1785C26.074 37.4021 24.7563 38.1728 23.6898 37.5729L21.2838 36.2195C20.7968 35.9456 20.2022 35.9456 19.7152 36.2195L17.3092 37.5729C16.2427 38.1728 14.925 37.4021 14.925 36.1785V21.4938Z" fill="#FFD9AB" stroke="#3C5D87" stroke-width="1.5"/><path fill-rule="evenodd" clip-rule="evenodd" d="M17.4112 27.4208C16.6575 26.7639 16.2807 26.4354 15.9181 26.2852C15.5555 26.135 15.0568 26.1008 14.0594 26.0325C12.5157 25.9266 11.52 25.6499 10.7966 24.9266C10.0732 24.2032 9.79654 23.2075 9.69071 21.6638C9.62233 20.6664 9.58814 20.1677 9.43793 19.8051C9.28772 19.4425 8.95926 19.0657 8.30234 18.3121C7.28555 17.1456 6.77716 16.2459 6.77716 15.2229C6.77716 14.1999 7.28556 13.3002 8.30235 12.1337C8.95926 11.3801 9.28772 11.0033 9.43793 10.6407C9.58814 10.2781 9.62233 9.77937 9.69072 8.78196C9.79657 7.23837 10.0733 6.2428 10.7966 5.51945C11.52 4.7961 12.5156 4.5194 14.0592 4.41356C15.0566 4.34517 15.5553 4.31098 15.9179 4.16077C16.2805 4.01056 16.6573 3.68211 17.4109 3.02521C18.5774 2.0084 19.4771 1.5 20.5002 1.5C21.5232 1.5 22.4229 2.0084 23.5894 3.02521C24.343 3.68211 24.7198 4.01057 25.0824 4.16078C25.445 4.31098 25.9437 4.34517 26.9411 4.41355C28.4848 4.51938 29.4805 4.79607 30.2039 5.51945C30.9272 6.24283 31.2039 7.23845 31.3098 8.78214C31.3781 9.77953 31.4123 10.2782 31.5625 10.6409C31.7127 11.0035 32.0412 11.3803 32.6981 12.1339C33.7148 13.3003 34.2231 14.1999 34.2231 15.2229C34.2231 16.2459 33.7148 17.1455 32.6981 18.3119C32.0412 19.0655 31.7127 19.4423 31.5625 19.805C31.4123 20.1676 31.3781 20.6663 31.3098 21.6637C31.204 23.2075 30.9273 24.2031 30.2039 24.9266C29.4804 25.65 28.4847 25.9267 26.9409 26.0325C25.9435 26.1008 25.4449 26.135 25.0822 26.2852C24.7196 26.4354 24.3428 26.7639 23.5891 27.4208C22.4228 28.4375 21.5231 28.9458 20.5002 28.9458C19.4772 28.9458 18.5775 28.4375 17.4112 27.4208Z" fill="#FFD9AB"/><path d="M10.7966 24.9266L11.3269 24.3962L10.7966 24.9266ZM10.7966 5.51945L10.2663 4.98912L10.2663 4.98913L10.7966 5.51945ZM30.2039 5.51945L29.6735 6.04979L30.2039 5.51945ZM30.2039 24.9266L29.6735 24.3962V24.3962L30.2039 24.9266ZM26.9409 26.0325L26.8896 25.2842L26.9409 26.0325ZM23.5891 27.4208L23.0963 26.8554L23.5891 27.4208ZM25.0822 26.2852L24.7952 25.5923L25.0822 26.2852ZM32.6981 18.3119L32.1328 17.8191L32.6981 18.3119ZM31.5625 19.805L32.2554 20.092L31.5625 19.805ZM31.3098 8.78214L30.5615 8.83344L31.3098 8.78214ZM31.5625 10.6409L32.2554 10.3538L31.5625 10.6409ZM26.9411 4.41355L26.8898 5.16179L26.9411 4.41355ZM25.0824 4.16078L25.3694 3.46787L25.0824 4.16078ZM14.0592 4.41356L14.0079 3.66532L14.0592 4.41356ZM17.4109 3.02521L16.9181 2.45985L17.4109 3.02521ZM15.9179 4.16077L16.2049 4.85368L15.9179 4.16077ZM9.43793 10.6407L10.1308 10.9277L9.43793 10.6407ZM8.30234 18.3121L8.8677 17.8192L8.30234 18.3121ZM9.43793 19.8051L10.1308 19.5181L9.43793 19.8051ZM14.0594 26.0325L14.0081 26.7807L14.0594 26.0325ZM15.9181 26.2852L16.2051 25.5923L15.9181 26.2852ZM14.1107 25.2842C12.6095 25.1813 11.8499 24.9192 11.3269 24.3962L10.2663 25.4569C11.1901 26.3807 12.4218 26.672 14.0081 26.7807L14.1107 25.2842ZM11.3269 24.3962C10.804 23.8732 10.5419 23.1137 10.439 21.6125L8.94247 21.7151C9.05121 23.3014 9.3425 24.5331 10.2663 25.4569L11.3269 24.3962ZM8.8677 17.8192C7.87891 16.6849 7.52716 15.9625 7.52716 15.2229H6.02716C6.02716 16.5293 6.6922 17.6063 7.73699 18.8049L8.8677 17.8192ZM7.52716 15.2229C7.52716 14.4833 7.87891 13.7609 8.86771 12.6265L7.73699 11.6409C6.69221 12.8395 6.02716 13.9164 6.02716 15.2229H7.52716ZM10.439 8.83327C10.5419 7.33221 10.804 6.57274 11.3269 6.04979L10.2663 4.98913C9.34254 5.91286 9.05124 7.14454 8.94248 8.73066L10.439 8.83327ZM11.3269 6.04979C11.8499 5.52682 12.6094 5.26473 14.1105 5.1618L14.0079 3.66532C12.4217 3.77407 11.19 4.06538 10.2663 4.98912L11.3269 6.04979ZM17.9037 3.59057C19.0381 2.60176 19.7605 2.25 20.5002 2.25V0.75C19.1937 0.75 18.1167 1.41505 16.9181 2.45985L17.9037 3.59057ZM20.5002 2.25C21.2398 2.25 21.9622 2.60175 23.0966 3.59056L24.0822 2.45985C22.8836 1.41505 21.8066 0.75 20.5002 0.75V2.25ZM26.8898 5.16179C28.391 5.26471 29.1505 5.5268 29.6735 6.04979L30.7342 4.98913C29.8104 4.06534 28.5787 3.77405 26.9924 3.66531L26.8898 5.16179ZM29.6735 6.04979C30.1965 6.57277 30.4586 7.33226 30.5615 8.83344L32.058 8.73084C31.9493 7.14463 31.658 5.9129 30.7342 4.98912L29.6735 6.04979ZM32.1327 12.6267C33.1214 13.761 33.4731 14.4833 33.4731 15.2229H34.9731C34.9731 13.9165 34.3082 12.8396 33.2635 11.6411L32.1327 12.6267ZM33.4731 15.2229C33.4731 15.9625 33.1214 16.6848 32.1328 17.8191L33.2635 18.8047C34.3082 17.6062 34.9731 16.5293 34.9731 15.2229H33.4731ZM30.5615 21.6124C30.4586 23.1137 30.1965 23.8732 29.6735 24.3962L30.7342 25.4569C31.658 24.5331 31.9493 23.3013 32.058 21.715L30.5615 21.6124ZM29.6735 24.3962C29.1505 24.9192 28.391 25.1813 26.8896 25.2842L26.9922 26.7807C28.5785 26.672 29.8104 26.3807 30.7342 25.4569L29.6735 24.3962ZM23.0963 26.8554C21.9621 27.8441 21.2397 28.1958 20.5002 28.1958V29.6958C21.8065 29.6958 22.8835 29.0308 24.082 27.9862L23.0963 26.8554ZM20.5002 28.1958C19.7606 28.1958 19.0382 27.8441 17.904 26.8554L16.9183 27.9861C18.1168 29.0308 19.1938 29.6958 20.5002 29.6958V28.1958ZM26.8896 25.2842C26.399 25.3179 26.0018 25.3448 25.6829 25.3836C25.3622 25.4227 25.0688 25.479 24.7952 25.5923L25.3692 26.9781C25.4583 26.9413 25.5956 26.9054 25.8642 26.8727C26.1346 26.8397 26.4855 26.8155 26.9922 26.7807L26.8896 25.2842ZM24.082 27.9862C24.4649 27.6524 24.7301 27.4215 24.9447 27.2535C25.1577 27.0867 25.2802 27.015 25.3692 26.9781L24.7952 25.5923C24.5216 25.7056 24.2744 25.8732 24.02 26.0725C23.767 26.2705 23.4671 26.5323 23.0963 26.8554L24.082 27.9862ZM32.1328 17.8191C31.8096 18.1898 31.5478 18.4897 31.3498 18.7427C31.1506 18.9971 30.9829 19.2444 30.8696 19.5179L32.2554 20.092C32.2923 20.0029 32.364 19.8804 32.5308 19.6674C32.6988 19.4529 32.9297 19.1876 33.2635 18.8047L32.1328 17.8191ZM32.058 21.715C32.0928 21.2082 32.1171 20.8573 32.15 20.5869C32.1827 20.3183 32.2186 20.181 32.2554 20.092L30.8696 19.5179C30.7563 19.7915 30.7 20.0849 30.661 20.4057C30.6221 20.7246 30.5952 21.1217 30.5615 21.6124L32.058 21.715ZM30.5615 8.83344C30.5952 9.32409 30.6221 9.72126 30.661 10.0402C30.7 10.3609 30.7563 10.6543 30.8696 10.9279L32.2554 10.3538C32.2186 10.2648 32.1827 10.1275 32.15 9.8589C32.117 9.58845 32.0927 9.23758 32.058 8.73084L30.5615 8.83344ZM33.2635 11.6411C32.9297 11.2582 32.6988 10.9929 32.5308 10.7784C32.364 10.5654 32.2923 10.4429 32.2554 10.3538L30.8696 10.9279C30.983 11.2015 31.1506 11.4487 31.3498 11.7031C31.5478 11.9561 31.8096 12.256 32.1327 12.6267L33.2635 11.6411ZM23.0966 3.59056C23.4673 3.91372 23.7672 4.17548 24.0201 4.37353C24.2746 4.57274 24.5218 4.74036 24.7954 4.85368L25.3694 3.46787C25.2804 3.43099 25.1579 3.35928 24.9449 3.19248C24.7304 3.02452 24.4651 2.7936 24.0822 2.45985L23.0966 3.59056ZM26.9924 3.66531C26.4857 3.63057 26.1348 3.60627 25.8644 3.57334C25.5958 3.54065 25.4585 3.50475 25.3694 3.46787L24.7954 4.85368C25.069 4.96701 25.3623 5.02331 25.6831 5.06235C26.002 5.10117 26.3992 5.12816 26.8898 5.16179L26.9924 3.66531ZM14.1105 5.1618C14.6011 5.12816 14.9983 5.10118 15.3172 5.06235C15.638 5.0233 15.9313 4.96701 16.2049 4.85368L15.6309 3.46786C15.5419 3.50474 15.4045 3.54065 15.136 3.57335C14.8655 3.60627 14.5146 3.63057 14.0079 3.66532L14.1105 5.1618ZM16.9181 2.45985C16.5352 2.7936 16.2699 3.02452 16.0554 3.19248C15.8424 3.35927 15.7199 3.43098 15.6309 3.46786L16.2049 4.85368C16.4785 4.74035 16.7257 4.57273 16.9802 4.37353C17.2331 4.17548 17.533 3.91372 17.9037 3.59057L16.9181 2.45985ZM8.86771 12.6265C9.19086 12.2558 9.45262 11.9559 9.65067 11.703C9.84988 11.4485 10.0175 11.2013 10.1308 10.9277L8.74502 10.3537C8.70814 10.4427 8.63643 10.5652 8.46963 10.7782C8.30167 10.9927 8.07075 11.258 7.73699 11.6409L8.86771 12.6265ZM8.94248 8.73066C8.90773 9.23741 8.88343 9.58829 8.8505 9.85874C8.8178 10.1273 8.7819 10.2647 8.74502 10.3537L10.1308 10.9277C10.2442 10.6541 10.3005 10.3608 10.3395 10.04C10.3783 9.72111 10.4053 9.32393 10.439 8.83327L8.94248 8.73066ZM10.439 21.6125C10.4053 21.1219 10.3783 20.7247 10.3395 20.4058C10.3005 20.085 10.2442 19.7917 10.1308 19.5181L8.74502 20.0921C8.7819 20.1812 8.81781 20.3185 8.8505 20.5871C8.88342 20.8575 8.90772 21.2084 8.94247 21.7151L10.439 21.6125ZM7.73699 18.8049C8.07075 19.1878 8.30167 19.453 8.46963 19.6676C8.63643 19.8806 8.70814 20.0031 8.74502 20.0921L10.1308 19.5181C10.0175 19.2445 9.84989 18.9973 9.65068 18.7428C9.45262 18.4899 9.19086 18.19 8.8677 17.8192L7.73699 18.8049ZM14.0081 26.7807C14.5148 26.8154 14.8657 26.8397 15.1362 26.8727C15.4047 26.9054 15.5421 26.9413 15.6311 26.9781L16.2051 25.5923C15.9315 25.479 15.6382 25.4227 15.3174 25.3837C14.9985 25.3448 14.6013 25.3179 14.1107 25.2842L14.0081 26.7807ZM17.904 26.8554C17.5332 26.5323 17.2333 26.2705 16.9804 26.0725C16.7259 25.8733 16.4787 25.7056 16.2051 25.5923L15.6311 26.9781C15.7201 27.015 15.8426 27.0867 16.0556 27.2535C16.2702 27.4215 16.5355 27.6524 16.9183 27.9861L17.904 26.8554Z" fill="#3C5D87"/><ellipse cx="20.4996" cy="15.2221" rx="9.05858" ry="9.05852" stroke="white" stroke-width="1.5"/><path opacity="0.14" d="M30.2898 24.1818C24.7431 29.7284 15.8626 29.8409 10.4546 24.4328" stroke="#3C5D87" stroke-width="5" stroke-linecap="round"/><path fill-rule="evenodd" clip-rule="evenodd" d="M24.9306 11.6123C24.5781 11.2836 24.0235 11.3119 23.7064 11.6748L19.1085 16.9357L17.5318 15.2398C17.2069 14.8903 16.6536 14.8899 16.3282 15.2389C16.0037 15.5868 16.0413 16.1366 16.41 16.4372L18.4084 18.0662C18.8298 18.4097 19.443 18.3778 19.8264 17.9923L24.9536 12.8378C25.2935 12.4962 25.283 11.941 24.9306 11.6123Z" fill="#3C5D87"/></g><defs><clipPath id="clip0_615_26067"><rect width="40" height="40" fill="white" transform="translate(0.5 0.5)"/></clipPath></defs></svg>