<svg width="18" height="18" viewBox="0 0 18 18" fill="none" xmlns="http://www.w3.org/2000/svg"><path fill-rule="evenodd" clip-rule="evenodd" d="M16.0261 14.6419C16.8034 14.4387 17.417 13.858 17.6216 13.1226C18 11.7871 18 9.00001 18 9.00001C18 9.00001 18 6.21291 17.6318 4.87743C17.417 4.13226 16.8136 3.55161 16.0363 3.35807C14.625 3 9 3 9 3C9 3 3.375 3 1.97386 3.35807C1.19659 3.56129 0.582955 4.14194 0.378409 4.87743C0 6.21291 0 9.00001 0 9.00001C0 9.00001 0 11.7871 0.368182 13.1226C0.582955 13.8678 1.18636 14.4484 1.96363 14.6419C3.375 15 9 15 9 15C9 15 14.625 15 16.0261 14.6419ZM7.15913 11.5357V6.46474L11.8637 9.00023L7.15913 11.5357Z" fill="#8C96A1"/></svg>